%TF.GenerationSoftware,KiCad,Pcbnew,8.0.1*%
%TF.CreationDate,2024-04-23T21:03:34-07:00*%
%TF.ProjectId,BatteryTelemetry,42617474-6572-4795-9465-6c656d657472,rev?*%
%TF.SameCoordinates,Original*%
%TF.FileFunction,Legend,Bot*%
%TF.FilePolarity,Positive*%
%FSLAX46Y46*%
G04 Gerber Fmt 4.6, Leading zero omitted, Abs format (unit mm)*
G04 Created by KiCad (PCBNEW 8.0.1) date 2024-04-23 21:03:34*
%MOMM*%
%LPD*%
G01*
G04 APERTURE LIST*
%ADD10C,0.150000*%
G04 APERTURE END LIST*
D10*
X76000000Y-116600000D02*
X78150000Y-116600000D01*
X78150000Y-126325000D01*
X76000000Y-126325000D01*
X76000000Y-116600000D01*
X76025000Y-38475000D02*
X78175000Y-38475000D01*
X78175000Y-45775000D01*
X76025000Y-45775000D01*
X76025000Y-38475000D01*
X76000000Y-105600000D02*
X78150000Y-105600000D01*
X78150000Y-112900000D01*
X76000000Y-112900000D01*
X76000000Y-105600000D01*
X60193220Y-26094819D02*
X59621792Y-26094819D01*
X59907506Y-27094819D02*
X59907506Y-26094819D01*
X59288458Y-27094819D02*
X59288458Y-26094819D01*
X59288458Y-26094819D02*
X58907506Y-26094819D01*
X58907506Y-26094819D02*
X58812268Y-26142438D01*
X58812268Y-26142438D02*
X58764649Y-26190057D01*
X58764649Y-26190057D02*
X58717030Y-26285295D01*
X58717030Y-26285295D02*
X58717030Y-26428152D01*
X58717030Y-26428152D02*
X58764649Y-26523390D01*
X58764649Y-26523390D02*
X58812268Y-26571009D01*
X58812268Y-26571009D02*
X58907506Y-26618628D01*
X58907506Y-26618628D02*
X59288458Y-26618628D01*
X58383696Y-26094819D02*
X57764649Y-26094819D01*
X57764649Y-26094819D02*
X58097982Y-26475771D01*
X58097982Y-26475771D02*
X57955125Y-26475771D01*
X57955125Y-26475771D02*
X57859887Y-26523390D01*
X57859887Y-26523390D02*
X57812268Y-26571009D01*
X57812268Y-26571009D02*
X57764649Y-26666247D01*
X57764649Y-26666247D02*
X57764649Y-26904342D01*
X57764649Y-26904342D02*
X57812268Y-26999580D01*
X57812268Y-26999580D02*
X57859887Y-27047200D01*
X57859887Y-27047200D02*
X57955125Y-27094819D01*
X57955125Y-27094819D02*
X58240839Y-27094819D01*
X58240839Y-27094819D02*
X58336077Y-27047200D01*
X58336077Y-27047200D02*
X58383696Y-26999580D01*
X75485839Y-107193950D02*
X75342982Y-107241569D01*
X75342982Y-107241569D02*
X75104887Y-107241569D01*
X75104887Y-107241569D02*
X75009649Y-107193950D01*
X75009649Y-107193950D02*
X74962030Y-107146330D01*
X74962030Y-107146330D02*
X74914411Y-107051092D01*
X74914411Y-107051092D02*
X74914411Y-106955854D01*
X74914411Y-106955854D02*
X74962030Y-106860616D01*
X74962030Y-106860616D02*
X75009649Y-106812997D01*
X75009649Y-106812997D02*
X75104887Y-106765378D01*
X75104887Y-106765378D02*
X75295363Y-106717759D01*
X75295363Y-106717759D02*
X75390601Y-106670140D01*
X75390601Y-106670140D02*
X75438220Y-106622521D01*
X75438220Y-106622521D02*
X75485839Y-106527283D01*
X75485839Y-106527283D02*
X75485839Y-106432045D01*
X75485839Y-106432045D02*
X75438220Y-106336807D01*
X75438220Y-106336807D02*
X75390601Y-106289188D01*
X75390601Y-106289188D02*
X75295363Y-106241569D01*
X75295363Y-106241569D02*
X75057268Y-106241569D01*
X75057268Y-106241569D02*
X74914411Y-106289188D01*
X74581077Y-106241569D02*
X74342982Y-107241569D01*
X74342982Y-107241569D02*
X74152506Y-106527283D01*
X74152506Y-106527283D02*
X73962030Y-107241569D01*
X73962030Y-107241569D02*
X73723935Y-106241569D01*
X73342982Y-107241569D02*
X73342982Y-106241569D01*
X73342982Y-106241569D02*
X73104887Y-106241569D01*
X73104887Y-106241569D02*
X72962030Y-106289188D01*
X72962030Y-106289188D02*
X72866792Y-106384426D01*
X72866792Y-106384426D02*
X72819173Y-106479664D01*
X72819173Y-106479664D02*
X72771554Y-106670140D01*
X72771554Y-106670140D02*
X72771554Y-106812997D01*
X72771554Y-106812997D02*
X72819173Y-107003473D01*
X72819173Y-107003473D02*
X72866792Y-107098711D01*
X72866792Y-107098711D02*
X72962030Y-107193950D01*
X72962030Y-107193950D02*
X73104887Y-107241569D01*
X73104887Y-107241569D02*
X73342982Y-107241569D01*
X77913220Y-37119819D02*
X77913220Y-36119819D01*
X77437030Y-36453152D02*
X77437030Y-37119819D01*
X77437030Y-36548390D02*
X77389411Y-36500771D01*
X77389411Y-36500771D02*
X77294173Y-36453152D01*
X77294173Y-36453152D02*
X77151316Y-36453152D01*
X77151316Y-36453152D02*
X77056078Y-36500771D01*
X77056078Y-36500771D02*
X77008459Y-36596009D01*
X77008459Y-36596009D02*
X77008459Y-37119819D01*
X76532268Y-36453152D02*
X76532268Y-37453152D01*
X76532268Y-36500771D02*
X76437030Y-36453152D01*
X76437030Y-36453152D02*
X76246554Y-36453152D01*
X76246554Y-36453152D02*
X76151316Y-36500771D01*
X76151316Y-36500771D02*
X76103697Y-36548390D01*
X76103697Y-36548390D02*
X76056078Y-36643628D01*
X76056078Y-36643628D02*
X76056078Y-36929342D01*
X76056078Y-36929342D02*
X76103697Y-37024580D01*
X76103697Y-37024580D02*
X76151316Y-37072200D01*
X76151316Y-37072200D02*
X76246554Y-37119819D01*
X76246554Y-37119819D02*
X76437030Y-37119819D01*
X76437030Y-37119819D02*
X76532268Y-37072200D01*
X75198935Y-36453152D02*
X75198935Y-37119819D01*
X75627506Y-36453152D02*
X75627506Y-36976961D01*
X75627506Y-36976961D02*
X75579887Y-37072200D01*
X75579887Y-37072200D02*
X75484649Y-37119819D01*
X75484649Y-37119819D02*
X75341792Y-37119819D01*
X75341792Y-37119819D02*
X75246554Y-37072200D01*
X75246554Y-37072200D02*
X75198935Y-37024580D01*
X74865601Y-36453152D02*
X74484649Y-36453152D01*
X74722744Y-36119819D02*
X74722744Y-36976961D01*
X74722744Y-36976961D02*
X74675125Y-37072200D01*
X74675125Y-37072200D02*
X74579887Y-37119819D01*
X74579887Y-37119819D02*
X74484649Y-37119819D01*
X73389410Y-37119819D02*
X73389410Y-36119819D01*
X73389410Y-36119819D02*
X73008458Y-36119819D01*
X73008458Y-36119819D02*
X72913220Y-36167438D01*
X72913220Y-36167438D02*
X72865601Y-36215057D01*
X72865601Y-36215057D02*
X72817982Y-36310295D01*
X72817982Y-36310295D02*
X72817982Y-36453152D01*
X72817982Y-36453152D02*
X72865601Y-36548390D01*
X72865601Y-36548390D02*
X72913220Y-36596009D01*
X72913220Y-36596009D02*
X73008458Y-36643628D01*
X73008458Y-36643628D02*
X73389410Y-36643628D01*
X72246553Y-37119819D02*
X72341791Y-37072200D01*
X72341791Y-37072200D02*
X72389410Y-37024580D01*
X72389410Y-37024580D02*
X72437029Y-36929342D01*
X72437029Y-36929342D02*
X72437029Y-36643628D01*
X72437029Y-36643628D02*
X72389410Y-36548390D01*
X72389410Y-36548390D02*
X72341791Y-36500771D01*
X72341791Y-36500771D02*
X72246553Y-36453152D01*
X72246553Y-36453152D02*
X72103696Y-36453152D01*
X72103696Y-36453152D02*
X72008458Y-36500771D01*
X72008458Y-36500771D02*
X71960839Y-36548390D01*
X71960839Y-36548390D02*
X71913220Y-36643628D01*
X71913220Y-36643628D02*
X71913220Y-36929342D01*
X71913220Y-36929342D02*
X71960839Y-37024580D01*
X71960839Y-37024580D02*
X72008458Y-37072200D01*
X72008458Y-37072200D02*
X72103696Y-37119819D01*
X72103696Y-37119819D02*
X72246553Y-37119819D01*
X71579886Y-36453152D02*
X71389410Y-37119819D01*
X71389410Y-37119819D02*
X71198934Y-36643628D01*
X71198934Y-36643628D02*
X71008458Y-37119819D01*
X71008458Y-37119819D02*
X70817982Y-36453152D01*
X70056077Y-37072200D02*
X70151315Y-37119819D01*
X70151315Y-37119819D02*
X70341791Y-37119819D01*
X70341791Y-37119819D02*
X70437029Y-37072200D01*
X70437029Y-37072200D02*
X70484648Y-36976961D01*
X70484648Y-36976961D02*
X70484648Y-36596009D01*
X70484648Y-36596009D02*
X70437029Y-36500771D01*
X70437029Y-36500771D02*
X70341791Y-36453152D01*
X70341791Y-36453152D02*
X70151315Y-36453152D01*
X70151315Y-36453152D02*
X70056077Y-36500771D01*
X70056077Y-36500771D02*
X70008458Y-36596009D01*
X70008458Y-36596009D02*
X70008458Y-36691247D01*
X70008458Y-36691247D02*
X70484648Y-36786485D01*
X69579886Y-37119819D02*
X69579886Y-36453152D01*
X69579886Y-36643628D02*
X69532267Y-36548390D01*
X69532267Y-36548390D02*
X69484648Y-36500771D01*
X69484648Y-36500771D02*
X69389410Y-36453152D01*
X69389410Y-36453152D02*
X69294172Y-36453152D01*
X71210839Y-155234104D02*
X70734649Y-155234104D01*
X71306077Y-155519819D02*
X70972744Y-154519819D01*
X70972744Y-154519819D02*
X70639411Y-155519819D01*
X70306077Y-154853152D02*
X70306077Y-155519819D01*
X70306077Y-154948390D02*
X70258458Y-154900771D01*
X70258458Y-154900771D02*
X70163220Y-154853152D01*
X70163220Y-154853152D02*
X70020363Y-154853152D01*
X70020363Y-154853152D02*
X69925125Y-154900771D01*
X69925125Y-154900771D02*
X69877506Y-154996009D01*
X69877506Y-154996009D02*
X69877506Y-155519819D01*
X69544172Y-154853152D02*
X69163220Y-154853152D01*
X69401315Y-154519819D02*
X69401315Y-155376961D01*
X69401315Y-155376961D02*
X69353696Y-155472200D01*
X69353696Y-155472200D02*
X69258458Y-155519819D01*
X69258458Y-155519819D02*
X69163220Y-155519819D01*
X68687029Y-155519819D02*
X68782267Y-155472200D01*
X68782267Y-155472200D02*
X68829886Y-155424580D01*
X68829886Y-155424580D02*
X68877505Y-155329342D01*
X68877505Y-155329342D02*
X68877505Y-155043628D01*
X68877505Y-155043628D02*
X68829886Y-154948390D01*
X68829886Y-154948390D02*
X68782267Y-154900771D01*
X68782267Y-154900771D02*
X68687029Y-154853152D01*
X68687029Y-154853152D02*
X68544172Y-154853152D01*
X68544172Y-154853152D02*
X68448934Y-154900771D01*
X68448934Y-154900771D02*
X68401315Y-154948390D01*
X68401315Y-154948390D02*
X68353696Y-155043628D01*
X68353696Y-155043628D02*
X68353696Y-155329342D01*
X68353696Y-155329342D02*
X68401315Y-155424580D01*
X68401315Y-155424580D02*
X68448934Y-155472200D01*
X68448934Y-155472200D02*
X68544172Y-155519819D01*
X68544172Y-155519819D02*
X68687029Y-155519819D01*
X67925124Y-154853152D02*
X67925124Y-155519819D01*
X67925124Y-154948390D02*
X67877505Y-154900771D01*
X67877505Y-154900771D02*
X67782267Y-154853152D01*
X67782267Y-154853152D02*
X67639410Y-154853152D01*
X67639410Y-154853152D02*
X67544172Y-154900771D01*
X67544172Y-154900771D02*
X67496553Y-154996009D01*
X67496553Y-154996009D02*
X67496553Y-155519819D01*
X67020362Y-155519819D02*
X67020362Y-154853152D01*
X67020362Y-154519819D02*
X67067981Y-154567438D01*
X67067981Y-154567438D02*
X67020362Y-154615057D01*
X67020362Y-154615057D02*
X66972743Y-154567438D01*
X66972743Y-154567438D02*
X67020362Y-154519819D01*
X67020362Y-154519819D02*
X67020362Y-154615057D01*
X66401315Y-155519819D02*
X66496553Y-155472200D01*
X66496553Y-155472200D02*
X66544172Y-155424580D01*
X66544172Y-155424580D02*
X66591791Y-155329342D01*
X66591791Y-155329342D02*
X66591791Y-155043628D01*
X66591791Y-155043628D02*
X66544172Y-154948390D01*
X66544172Y-154948390D02*
X66496553Y-154900771D01*
X66496553Y-154900771D02*
X66401315Y-154853152D01*
X66401315Y-154853152D02*
X66258458Y-154853152D01*
X66258458Y-154853152D02*
X66163220Y-154900771D01*
X66163220Y-154900771D02*
X66115601Y-154948390D01*
X66115601Y-154948390D02*
X66067982Y-155043628D01*
X66067982Y-155043628D02*
X66067982Y-155329342D01*
X66067982Y-155329342D02*
X66115601Y-155424580D01*
X66115601Y-155424580D02*
X66163220Y-155472200D01*
X66163220Y-155472200D02*
X66258458Y-155519819D01*
X66258458Y-155519819D02*
X66401315Y-155519819D01*
X64877505Y-155519819D02*
X64877505Y-154519819D01*
X64877505Y-154519819D02*
X64544172Y-155234104D01*
X64544172Y-155234104D02*
X64210839Y-154519819D01*
X64210839Y-154519819D02*
X64210839Y-155519819D01*
X63591791Y-155519819D02*
X63687029Y-155472200D01*
X63687029Y-155472200D02*
X63734648Y-155424580D01*
X63734648Y-155424580D02*
X63782267Y-155329342D01*
X63782267Y-155329342D02*
X63782267Y-155043628D01*
X63782267Y-155043628D02*
X63734648Y-154948390D01*
X63734648Y-154948390D02*
X63687029Y-154900771D01*
X63687029Y-154900771D02*
X63591791Y-154853152D01*
X63591791Y-154853152D02*
X63448934Y-154853152D01*
X63448934Y-154853152D02*
X63353696Y-154900771D01*
X63353696Y-154900771D02*
X63306077Y-154948390D01*
X63306077Y-154948390D02*
X63258458Y-155043628D01*
X63258458Y-155043628D02*
X63258458Y-155329342D01*
X63258458Y-155329342D02*
X63306077Y-155424580D01*
X63306077Y-155424580D02*
X63353696Y-155472200D01*
X63353696Y-155472200D02*
X63448934Y-155519819D01*
X63448934Y-155519819D02*
X63591791Y-155519819D01*
X62687029Y-155519819D02*
X62782267Y-155472200D01*
X62782267Y-155472200D02*
X62829886Y-155376961D01*
X62829886Y-155376961D02*
X62829886Y-154519819D01*
X62448933Y-154853152D02*
X62067981Y-154853152D01*
X62306076Y-154519819D02*
X62306076Y-155376961D01*
X62306076Y-155376961D02*
X62258457Y-155472200D01*
X62258457Y-155472200D02*
X62163219Y-155519819D01*
X62163219Y-155519819D02*
X62067981Y-155519819D01*
X61353695Y-155472200D02*
X61448933Y-155519819D01*
X61448933Y-155519819D02*
X61639409Y-155519819D01*
X61639409Y-155519819D02*
X61734647Y-155472200D01*
X61734647Y-155472200D02*
X61782266Y-155376961D01*
X61782266Y-155376961D02*
X61782266Y-154996009D01*
X61782266Y-154996009D02*
X61734647Y-154900771D01*
X61734647Y-154900771D02*
X61639409Y-154853152D01*
X61639409Y-154853152D02*
X61448933Y-154853152D01*
X61448933Y-154853152D02*
X61353695Y-154900771D01*
X61353695Y-154900771D02*
X61306076Y-154996009D01*
X61306076Y-154996009D02*
X61306076Y-155091247D01*
X61306076Y-155091247D02*
X61782266Y-155186485D01*
X60877504Y-154853152D02*
X60877504Y-155519819D01*
X60877504Y-154948390D02*
X60829885Y-154900771D01*
X60829885Y-154900771D02*
X60734647Y-154853152D01*
X60734647Y-154853152D02*
X60591790Y-154853152D01*
X60591790Y-154853152D02*
X60496552Y-154900771D01*
X60496552Y-154900771D02*
X60448933Y-154996009D01*
X60448933Y-154996009D02*
X60448933Y-155519819D01*
X59972742Y-155519819D02*
X59972742Y-154853152D01*
X59972742Y-154519819D02*
X60020361Y-154567438D01*
X60020361Y-154567438D02*
X59972742Y-154615057D01*
X59972742Y-154615057D02*
X59925123Y-154567438D01*
X59925123Y-154567438D02*
X59972742Y-154519819D01*
X59972742Y-154519819D02*
X59972742Y-154615057D01*
X75656077Y-44361569D02*
X75322744Y-45361569D01*
X75322744Y-45361569D02*
X74989411Y-44361569D01*
X74179887Y-44361569D02*
X74656077Y-44361569D01*
X74656077Y-44361569D02*
X74703696Y-44837759D01*
X74703696Y-44837759D02*
X74656077Y-44790140D01*
X74656077Y-44790140D02*
X74560839Y-44742521D01*
X74560839Y-44742521D02*
X74322744Y-44742521D01*
X74322744Y-44742521D02*
X74227506Y-44790140D01*
X74227506Y-44790140D02*
X74179887Y-44837759D01*
X74179887Y-44837759D02*
X74132268Y-44932997D01*
X74132268Y-44932997D02*
X74132268Y-45171092D01*
X74132268Y-45171092D02*
X74179887Y-45266330D01*
X74179887Y-45266330D02*
X74227506Y-45313950D01*
X74227506Y-45313950D02*
X74322744Y-45361569D01*
X74322744Y-45361569D02*
X74560839Y-45361569D01*
X74560839Y-45361569D02*
X74656077Y-45313950D01*
X74656077Y-45313950D02*
X74703696Y-45266330D01*
X72656077Y-45742521D02*
X72703696Y-45694902D01*
X72703696Y-45694902D02*
X72798934Y-45552045D01*
X72798934Y-45552045D02*
X72846553Y-45456807D01*
X72846553Y-45456807D02*
X72894172Y-45313950D01*
X72894172Y-45313950D02*
X72941791Y-45075854D01*
X72941791Y-45075854D02*
X72941791Y-44885378D01*
X72941791Y-44885378D02*
X72894172Y-44647283D01*
X72894172Y-44647283D02*
X72846553Y-44504426D01*
X72846553Y-44504426D02*
X72798934Y-44409188D01*
X72798934Y-44409188D02*
X72703696Y-44266330D01*
X72703696Y-44266330D02*
X72656077Y-44218711D01*
X72132267Y-45361569D02*
X72227505Y-45313950D01*
X72227505Y-45313950D02*
X72275124Y-45266330D01*
X72275124Y-45266330D02*
X72322743Y-45171092D01*
X72322743Y-45171092D02*
X72322743Y-44885378D01*
X72322743Y-44885378D02*
X72275124Y-44790140D01*
X72275124Y-44790140D02*
X72227505Y-44742521D01*
X72227505Y-44742521D02*
X72132267Y-44694902D01*
X72132267Y-44694902D02*
X71989410Y-44694902D01*
X71989410Y-44694902D02*
X71894172Y-44742521D01*
X71894172Y-44742521D02*
X71846553Y-44790140D01*
X71846553Y-44790140D02*
X71798934Y-44885378D01*
X71798934Y-44885378D02*
X71798934Y-45171092D01*
X71798934Y-45171092D02*
X71846553Y-45266330D01*
X71846553Y-45266330D02*
X71894172Y-45313950D01*
X71894172Y-45313950D02*
X71989410Y-45361569D01*
X71989410Y-45361569D02*
X72132267Y-45361569D01*
X71370362Y-45361569D02*
X71370362Y-44694902D01*
X71370362Y-44885378D02*
X71322743Y-44790140D01*
X71322743Y-44790140D02*
X71275124Y-44742521D01*
X71275124Y-44742521D02*
X71179886Y-44694902D01*
X71179886Y-44694902D02*
X71084648Y-44694902D01*
X70846552Y-45742521D02*
X70798933Y-45694902D01*
X70798933Y-45694902D02*
X70703695Y-45552045D01*
X70703695Y-45552045D02*
X70656076Y-45456807D01*
X70656076Y-45456807D02*
X70608457Y-45313950D01*
X70608457Y-45313950D02*
X70560838Y-45075854D01*
X70560838Y-45075854D02*
X70560838Y-44885378D01*
X70560838Y-44885378D02*
X70608457Y-44647283D01*
X70608457Y-44647283D02*
X70656076Y-44504426D01*
X70656076Y-44504426D02*
X70703695Y-44409188D01*
X70703695Y-44409188D02*
X70798933Y-44266330D01*
X70798933Y-44266330D02*
X70846552Y-44218711D01*
X71163220Y-153507319D02*
X71163220Y-152507319D01*
X71163220Y-152507319D02*
X70925125Y-152507319D01*
X70925125Y-152507319D02*
X70782268Y-152554938D01*
X70782268Y-152554938D02*
X70687030Y-152650176D01*
X70687030Y-152650176D02*
X70639411Y-152745414D01*
X70639411Y-152745414D02*
X70591792Y-152935890D01*
X70591792Y-152935890D02*
X70591792Y-153078747D01*
X70591792Y-153078747D02*
X70639411Y-153269223D01*
X70639411Y-153269223D02*
X70687030Y-153364461D01*
X70687030Y-153364461D02*
X70782268Y-153459700D01*
X70782268Y-153459700D02*
X70925125Y-153507319D01*
X70925125Y-153507319D02*
X71163220Y-153507319D01*
X69782268Y-153459700D02*
X69877506Y-153507319D01*
X69877506Y-153507319D02*
X70067982Y-153507319D01*
X70067982Y-153507319D02*
X70163220Y-153459700D01*
X70163220Y-153459700D02*
X70210839Y-153364461D01*
X70210839Y-153364461D02*
X70210839Y-152983509D01*
X70210839Y-152983509D02*
X70163220Y-152888271D01*
X70163220Y-152888271D02*
X70067982Y-152840652D01*
X70067982Y-152840652D02*
X69877506Y-152840652D01*
X69877506Y-152840652D02*
X69782268Y-152888271D01*
X69782268Y-152888271D02*
X69734649Y-152983509D01*
X69734649Y-152983509D02*
X69734649Y-153078747D01*
X69734649Y-153078747D02*
X70210839Y-153173985D01*
X69353696Y-153459700D02*
X69258458Y-153507319D01*
X69258458Y-153507319D02*
X69067982Y-153507319D01*
X69067982Y-153507319D02*
X68972744Y-153459700D01*
X68972744Y-153459700D02*
X68925125Y-153364461D01*
X68925125Y-153364461D02*
X68925125Y-153316842D01*
X68925125Y-153316842D02*
X68972744Y-153221604D01*
X68972744Y-153221604D02*
X69067982Y-153173985D01*
X69067982Y-153173985D02*
X69210839Y-153173985D01*
X69210839Y-153173985D02*
X69306077Y-153126366D01*
X69306077Y-153126366D02*
X69353696Y-153031128D01*
X69353696Y-153031128D02*
X69353696Y-152983509D01*
X69353696Y-152983509D02*
X69306077Y-152888271D01*
X69306077Y-152888271D02*
X69210839Y-152840652D01*
X69210839Y-152840652D02*
X69067982Y-152840652D01*
X69067982Y-152840652D02*
X68972744Y-152888271D01*
X68496553Y-153507319D02*
X68496553Y-152840652D01*
X68496553Y-152507319D02*
X68544172Y-152554938D01*
X68544172Y-152554938D02*
X68496553Y-152602557D01*
X68496553Y-152602557D02*
X68448934Y-152554938D01*
X68448934Y-152554938D02*
X68496553Y-152507319D01*
X68496553Y-152507319D02*
X68496553Y-152602557D01*
X67591792Y-152840652D02*
X67591792Y-153650176D01*
X67591792Y-153650176D02*
X67639411Y-153745414D01*
X67639411Y-153745414D02*
X67687030Y-153793033D01*
X67687030Y-153793033D02*
X67782268Y-153840652D01*
X67782268Y-153840652D02*
X67925125Y-153840652D01*
X67925125Y-153840652D02*
X68020363Y-153793033D01*
X67591792Y-153459700D02*
X67687030Y-153507319D01*
X67687030Y-153507319D02*
X67877506Y-153507319D01*
X67877506Y-153507319D02*
X67972744Y-153459700D01*
X67972744Y-153459700D02*
X68020363Y-153412080D01*
X68020363Y-153412080D02*
X68067982Y-153316842D01*
X68067982Y-153316842D02*
X68067982Y-153031128D01*
X68067982Y-153031128D02*
X68020363Y-152935890D01*
X68020363Y-152935890D02*
X67972744Y-152888271D01*
X67972744Y-152888271D02*
X67877506Y-152840652D01*
X67877506Y-152840652D02*
X67687030Y-152840652D01*
X67687030Y-152840652D02*
X67591792Y-152888271D01*
X67115601Y-152840652D02*
X67115601Y-153507319D01*
X67115601Y-152935890D02*
X67067982Y-152888271D01*
X67067982Y-152888271D02*
X66972744Y-152840652D01*
X66972744Y-152840652D02*
X66829887Y-152840652D01*
X66829887Y-152840652D02*
X66734649Y-152888271D01*
X66734649Y-152888271D02*
X66687030Y-152983509D01*
X66687030Y-152983509D02*
X66687030Y-153507319D01*
X65829887Y-153459700D02*
X65925125Y-153507319D01*
X65925125Y-153507319D02*
X66115601Y-153507319D01*
X66115601Y-153507319D02*
X66210839Y-153459700D01*
X66210839Y-153459700D02*
X66258458Y-153364461D01*
X66258458Y-153364461D02*
X66258458Y-152983509D01*
X66258458Y-152983509D02*
X66210839Y-152888271D01*
X66210839Y-152888271D02*
X66115601Y-152840652D01*
X66115601Y-152840652D02*
X65925125Y-152840652D01*
X65925125Y-152840652D02*
X65829887Y-152888271D01*
X65829887Y-152888271D02*
X65782268Y-152983509D01*
X65782268Y-152983509D02*
X65782268Y-153078747D01*
X65782268Y-153078747D02*
X66258458Y-153173985D01*
X64925125Y-153507319D02*
X64925125Y-152507319D01*
X64925125Y-153459700D02*
X65020363Y-153507319D01*
X65020363Y-153507319D02*
X65210839Y-153507319D01*
X65210839Y-153507319D02*
X65306077Y-153459700D01*
X65306077Y-153459700D02*
X65353696Y-153412080D01*
X65353696Y-153412080D02*
X65401315Y-153316842D01*
X65401315Y-153316842D02*
X65401315Y-153031128D01*
X65401315Y-153031128D02*
X65353696Y-152935890D01*
X65353696Y-152935890D02*
X65306077Y-152888271D01*
X65306077Y-152888271D02*
X65210839Y-152840652D01*
X65210839Y-152840652D02*
X65020363Y-152840652D01*
X65020363Y-152840652D02*
X64925125Y-152888271D01*
X63258458Y-153507319D02*
X63258458Y-152983509D01*
X63258458Y-152983509D02*
X63306077Y-152888271D01*
X63306077Y-152888271D02*
X63401315Y-152840652D01*
X63401315Y-152840652D02*
X63591791Y-152840652D01*
X63591791Y-152840652D02*
X63687029Y-152888271D01*
X63258458Y-153459700D02*
X63353696Y-153507319D01*
X63353696Y-153507319D02*
X63591791Y-153507319D01*
X63591791Y-153507319D02*
X63687029Y-153459700D01*
X63687029Y-153459700D02*
X63734648Y-153364461D01*
X63734648Y-153364461D02*
X63734648Y-153269223D01*
X63734648Y-153269223D02*
X63687029Y-153173985D01*
X63687029Y-153173985D02*
X63591791Y-153126366D01*
X63591791Y-153126366D02*
X63353696Y-153126366D01*
X63353696Y-153126366D02*
X63258458Y-153078747D01*
X62782267Y-152840652D02*
X62782267Y-153507319D01*
X62782267Y-152935890D02*
X62734648Y-152888271D01*
X62734648Y-152888271D02*
X62639410Y-152840652D01*
X62639410Y-152840652D02*
X62496553Y-152840652D01*
X62496553Y-152840652D02*
X62401315Y-152888271D01*
X62401315Y-152888271D02*
X62353696Y-152983509D01*
X62353696Y-152983509D02*
X62353696Y-153507319D01*
X61448934Y-153507319D02*
X61448934Y-152507319D01*
X61448934Y-153459700D02*
X61544172Y-153507319D01*
X61544172Y-153507319D02*
X61734648Y-153507319D01*
X61734648Y-153507319D02*
X61829886Y-153459700D01*
X61829886Y-153459700D02*
X61877505Y-153412080D01*
X61877505Y-153412080D02*
X61925124Y-153316842D01*
X61925124Y-153316842D02*
X61925124Y-153031128D01*
X61925124Y-153031128D02*
X61877505Y-152935890D01*
X61877505Y-152935890D02*
X61829886Y-152888271D01*
X61829886Y-152888271D02*
X61734648Y-152840652D01*
X61734648Y-152840652D02*
X61544172Y-152840652D01*
X61544172Y-152840652D02*
X61448934Y-152888271D01*
X59877505Y-152983509D02*
X59734648Y-153031128D01*
X59734648Y-153031128D02*
X59687029Y-153078747D01*
X59687029Y-153078747D02*
X59639410Y-153173985D01*
X59639410Y-153173985D02*
X59639410Y-153316842D01*
X59639410Y-153316842D02*
X59687029Y-153412080D01*
X59687029Y-153412080D02*
X59734648Y-153459700D01*
X59734648Y-153459700D02*
X59829886Y-153507319D01*
X59829886Y-153507319D02*
X60210838Y-153507319D01*
X60210838Y-153507319D02*
X60210838Y-152507319D01*
X60210838Y-152507319D02*
X59877505Y-152507319D01*
X59877505Y-152507319D02*
X59782267Y-152554938D01*
X59782267Y-152554938D02*
X59734648Y-152602557D01*
X59734648Y-152602557D02*
X59687029Y-152697795D01*
X59687029Y-152697795D02*
X59687029Y-152793033D01*
X59687029Y-152793033D02*
X59734648Y-152888271D01*
X59734648Y-152888271D02*
X59782267Y-152935890D01*
X59782267Y-152935890D02*
X59877505Y-152983509D01*
X59877505Y-152983509D02*
X60210838Y-152983509D01*
X58782267Y-152840652D02*
X58782267Y-153507319D01*
X59210838Y-152840652D02*
X59210838Y-153364461D01*
X59210838Y-153364461D02*
X59163219Y-153459700D01*
X59163219Y-153459700D02*
X59067981Y-153507319D01*
X59067981Y-153507319D02*
X58925124Y-153507319D01*
X58925124Y-153507319D02*
X58829886Y-153459700D01*
X58829886Y-153459700D02*
X58782267Y-153412080D01*
X58306076Y-153507319D02*
X58306076Y-152840652D01*
X58306076Y-152507319D02*
X58353695Y-152554938D01*
X58353695Y-152554938D02*
X58306076Y-152602557D01*
X58306076Y-152602557D02*
X58258457Y-152554938D01*
X58258457Y-152554938D02*
X58306076Y-152507319D01*
X58306076Y-152507319D02*
X58306076Y-152602557D01*
X57687029Y-153507319D02*
X57782267Y-153459700D01*
X57782267Y-153459700D02*
X57829886Y-153364461D01*
X57829886Y-153364461D02*
X57829886Y-152507319D01*
X57448933Y-152840652D02*
X57067981Y-152840652D01*
X57306076Y-152507319D02*
X57306076Y-153364461D01*
X57306076Y-153364461D02*
X57258457Y-153459700D01*
X57258457Y-153459700D02*
X57163219Y-153507319D01*
X57163219Y-153507319D02*
X57067981Y-153507319D01*
X55972742Y-153507319D02*
X55972742Y-152507319D01*
X55972742Y-152888271D02*
X55877504Y-152840652D01*
X55877504Y-152840652D02*
X55687028Y-152840652D01*
X55687028Y-152840652D02*
X55591790Y-152888271D01*
X55591790Y-152888271D02*
X55544171Y-152935890D01*
X55544171Y-152935890D02*
X55496552Y-153031128D01*
X55496552Y-153031128D02*
X55496552Y-153316842D01*
X55496552Y-153316842D02*
X55544171Y-153412080D01*
X55544171Y-153412080D02*
X55591790Y-153459700D01*
X55591790Y-153459700D02*
X55687028Y-153507319D01*
X55687028Y-153507319D02*
X55877504Y-153507319D01*
X55877504Y-153507319D02*
X55972742Y-153459700D01*
X55163218Y-152840652D02*
X54925123Y-153507319D01*
X54687028Y-152840652D02*
X54925123Y-153507319D01*
X54925123Y-153507319D02*
X55020361Y-153745414D01*
X55020361Y-153745414D02*
X55067980Y-153793033D01*
X55067980Y-153793033D02*
X55163218Y-153840652D01*
X74914411Y-108817438D02*
X75009649Y-108769819D01*
X75009649Y-108769819D02*
X75152506Y-108769819D01*
X75152506Y-108769819D02*
X75295363Y-108817438D01*
X75295363Y-108817438D02*
X75390601Y-108912676D01*
X75390601Y-108912676D02*
X75438220Y-109007914D01*
X75438220Y-109007914D02*
X75485839Y-109198390D01*
X75485839Y-109198390D02*
X75485839Y-109341247D01*
X75485839Y-109341247D02*
X75438220Y-109531723D01*
X75438220Y-109531723D02*
X75390601Y-109626961D01*
X75390601Y-109626961D02*
X75295363Y-109722200D01*
X75295363Y-109722200D02*
X75152506Y-109769819D01*
X75152506Y-109769819D02*
X75057268Y-109769819D01*
X75057268Y-109769819D02*
X74914411Y-109722200D01*
X74914411Y-109722200D02*
X74866792Y-109674580D01*
X74866792Y-109674580D02*
X74866792Y-109341247D01*
X74866792Y-109341247D02*
X75057268Y-109341247D01*
X74438220Y-109769819D02*
X74438220Y-108769819D01*
X74438220Y-108769819D02*
X73866792Y-109769819D01*
X73866792Y-109769819D02*
X73866792Y-108769819D01*
X73390601Y-109769819D02*
X73390601Y-108769819D01*
X73390601Y-108769819D02*
X73152506Y-108769819D01*
X73152506Y-108769819D02*
X73009649Y-108817438D01*
X73009649Y-108817438D02*
X72914411Y-108912676D01*
X72914411Y-108912676D02*
X72866792Y-109007914D01*
X72866792Y-109007914D02*
X72819173Y-109198390D01*
X72819173Y-109198390D02*
X72819173Y-109341247D01*
X72819173Y-109341247D02*
X72866792Y-109531723D01*
X72866792Y-109531723D02*
X72914411Y-109626961D01*
X72914411Y-109626961D02*
X73009649Y-109722200D01*
X73009649Y-109722200D02*
X73152506Y-109769819D01*
X73152506Y-109769819D02*
X73390601Y-109769819D01*
X74866792Y-118126569D02*
X75200125Y-117650378D01*
X75438220Y-118126569D02*
X75438220Y-117126569D01*
X75438220Y-117126569D02*
X75057268Y-117126569D01*
X75057268Y-117126569D02*
X74962030Y-117174188D01*
X74962030Y-117174188D02*
X74914411Y-117221807D01*
X74914411Y-117221807D02*
X74866792Y-117317045D01*
X74866792Y-117317045D02*
X74866792Y-117459902D01*
X74866792Y-117459902D02*
X74914411Y-117555140D01*
X74914411Y-117555140D02*
X74962030Y-117602759D01*
X74962030Y-117602759D02*
X75057268Y-117650378D01*
X75057268Y-117650378D02*
X75438220Y-117650378D01*
X74581077Y-117126569D02*
X74009649Y-117126569D01*
X74295363Y-118126569D02*
X74295363Y-117126569D01*
X73723934Y-118078950D02*
X73581077Y-118126569D01*
X73581077Y-118126569D02*
X73342982Y-118126569D01*
X73342982Y-118126569D02*
X73247744Y-118078950D01*
X73247744Y-118078950D02*
X73200125Y-118031330D01*
X73200125Y-118031330D02*
X73152506Y-117936092D01*
X73152506Y-117936092D02*
X73152506Y-117840854D01*
X73152506Y-117840854D02*
X73200125Y-117745616D01*
X73200125Y-117745616D02*
X73247744Y-117697997D01*
X73247744Y-117697997D02*
X73342982Y-117650378D01*
X73342982Y-117650378D02*
X73533458Y-117602759D01*
X73533458Y-117602759D02*
X73628696Y-117555140D01*
X73628696Y-117555140D02*
X73676315Y-117507521D01*
X73676315Y-117507521D02*
X73723934Y-117412283D01*
X73723934Y-117412283D02*
X73723934Y-117317045D01*
X73723934Y-117317045D02*
X73676315Y-117221807D01*
X73676315Y-117221807D02*
X73628696Y-117174188D01*
X73628696Y-117174188D02*
X73533458Y-117126569D01*
X73533458Y-117126569D02*
X73295363Y-117126569D01*
X73295363Y-117126569D02*
X73152506Y-117174188D01*
X70972744Y-157056128D02*
X70972744Y-157532319D01*
X71306077Y-156532319D02*
X70972744Y-157056128D01*
X70972744Y-157056128D02*
X70639411Y-156532319D01*
X70306077Y-157532319D02*
X70306077Y-156865652D01*
X70306077Y-156532319D02*
X70353696Y-156579938D01*
X70353696Y-156579938D02*
X70306077Y-156627557D01*
X70306077Y-156627557D02*
X70258458Y-156579938D01*
X70258458Y-156579938D02*
X70306077Y-156532319D01*
X70306077Y-156532319D02*
X70306077Y-156627557D01*
X69829887Y-157532319D02*
X69829887Y-156532319D01*
X69401316Y-157532319D02*
X69401316Y-157008509D01*
X69401316Y-157008509D02*
X69448935Y-156913271D01*
X69448935Y-156913271D02*
X69544173Y-156865652D01*
X69544173Y-156865652D02*
X69687030Y-156865652D01*
X69687030Y-156865652D02*
X69782268Y-156913271D01*
X69782268Y-156913271D02*
X69829887Y-156960890D01*
X68496554Y-156865652D02*
X68496554Y-157532319D01*
X68925125Y-156865652D02*
X68925125Y-157389461D01*
X68925125Y-157389461D02*
X68877506Y-157484700D01*
X68877506Y-157484700D02*
X68782268Y-157532319D01*
X68782268Y-157532319D02*
X68639411Y-157532319D01*
X68639411Y-157532319D02*
X68544173Y-157484700D01*
X68544173Y-157484700D02*
X68496554Y-157437080D01*
X68020363Y-157532319D02*
X68020363Y-156865652D01*
X68020363Y-156532319D02*
X68067982Y-156579938D01*
X68067982Y-156579938D02*
X68020363Y-156627557D01*
X68020363Y-156627557D02*
X67972744Y-156579938D01*
X67972744Y-156579938D02*
X68020363Y-156532319D01*
X68020363Y-156532319D02*
X68020363Y-156627557D01*
X66306078Y-157532319D02*
X66782268Y-157532319D01*
X66782268Y-157532319D02*
X66782268Y-156532319D01*
X65972744Y-157532319D02*
X65972744Y-156865652D01*
X65972744Y-156532319D02*
X66020363Y-156579938D01*
X66020363Y-156579938D02*
X65972744Y-156627557D01*
X65972744Y-156627557D02*
X65925125Y-156579938D01*
X65925125Y-156579938D02*
X65972744Y-156532319D01*
X65972744Y-156532319D02*
X65972744Y-156627557D01*
X65067983Y-157532319D02*
X65067983Y-157008509D01*
X65067983Y-157008509D02*
X65115602Y-156913271D01*
X65115602Y-156913271D02*
X65210840Y-156865652D01*
X65210840Y-156865652D02*
X65401316Y-156865652D01*
X65401316Y-156865652D02*
X65496554Y-156913271D01*
X65067983Y-157484700D02*
X65163221Y-157532319D01*
X65163221Y-157532319D02*
X65401316Y-157532319D01*
X65401316Y-157532319D02*
X65496554Y-157484700D01*
X65496554Y-157484700D02*
X65544173Y-157389461D01*
X65544173Y-157389461D02*
X65544173Y-157294223D01*
X65544173Y-157294223D02*
X65496554Y-157198985D01*
X65496554Y-157198985D02*
X65401316Y-157151366D01*
X65401316Y-157151366D02*
X65163221Y-157151366D01*
X65163221Y-157151366D02*
X65067983Y-157103747D01*
X64591792Y-156865652D02*
X64591792Y-157532319D01*
X64591792Y-156960890D02*
X64544173Y-156913271D01*
X64544173Y-156913271D02*
X64448935Y-156865652D01*
X64448935Y-156865652D02*
X64306078Y-156865652D01*
X64306078Y-156865652D02*
X64210840Y-156913271D01*
X64210840Y-156913271D02*
X64163221Y-157008509D01*
X64163221Y-157008509D02*
X64163221Y-157532319D01*
X63258459Y-156865652D02*
X63258459Y-157675176D01*
X63258459Y-157675176D02*
X63306078Y-157770414D01*
X63306078Y-157770414D02*
X63353697Y-157818033D01*
X63353697Y-157818033D02*
X63448935Y-157865652D01*
X63448935Y-157865652D02*
X63591792Y-157865652D01*
X63591792Y-157865652D02*
X63687030Y-157818033D01*
X63258459Y-157484700D02*
X63353697Y-157532319D01*
X63353697Y-157532319D02*
X63544173Y-157532319D01*
X63544173Y-157532319D02*
X63639411Y-157484700D01*
X63639411Y-157484700D02*
X63687030Y-157437080D01*
X63687030Y-157437080D02*
X63734649Y-157341842D01*
X63734649Y-157341842D02*
X63734649Y-157056128D01*
X63734649Y-157056128D02*
X63687030Y-156960890D01*
X63687030Y-156960890D02*
X63639411Y-156913271D01*
X63639411Y-156913271D02*
X63544173Y-156865652D01*
X63544173Y-156865652D02*
X63353697Y-156865652D01*
X63353697Y-156865652D02*
X63258459Y-156913271D01*
X77935839Y-104272200D02*
X77792982Y-104319819D01*
X77792982Y-104319819D02*
X77554887Y-104319819D01*
X77554887Y-104319819D02*
X77459649Y-104272200D01*
X77459649Y-104272200D02*
X77412030Y-104224580D01*
X77412030Y-104224580D02*
X77364411Y-104129342D01*
X77364411Y-104129342D02*
X77364411Y-104034104D01*
X77364411Y-104034104D02*
X77412030Y-103938866D01*
X77412030Y-103938866D02*
X77459649Y-103891247D01*
X77459649Y-103891247D02*
X77554887Y-103843628D01*
X77554887Y-103843628D02*
X77745363Y-103796009D01*
X77745363Y-103796009D02*
X77840601Y-103748390D01*
X77840601Y-103748390D02*
X77888220Y-103700771D01*
X77888220Y-103700771D02*
X77935839Y-103605533D01*
X77935839Y-103605533D02*
X77935839Y-103510295D01*
X77935839Y-103510295D02*
X77888220Y-103415057D01*
X77888220Y-103415057D02*
X77840601Y-103367438D01*
X77840601Y-103367438D02*
X77745363Y-103319819D01*
X77745363Y-103319819D02*
X77507268Y-103319819D01*
X77507268Y-103319819D02*
X77364411Y-103367438D01*
X77031077Y-103319819D02*
X76792982Y-104319819D01*
X76792982Y-104319819D02*
X76602506Y-103605533D01*
X76602506Y-103605533D02*
X76412030Y-104319819D01*
X76412030Y-104319819D02*
X76173935Y-103319819D01*
X75792982Y-104319819D02*
X75792982Y-103319819D01*
X75792982Y-103319819D02*
X75554887Y-103319819D01*
X75554887Y-103319819D02*
X75412030Y-103367438D01*
X75412030Y-103367438D02*
X75316792Y-103462676D01*
X75316792Y-103462676D02*
X75269173Y-103557914D01*
X75269173Y-103557914D02*
X75221554Y-103748390D01*
X75221554Y-103748390D02*
X75221554Y-103891247D01*
X75221554Y-103891247D02*
X75269173Y-104081723D01*
X75269173Y-104081723D02*
X75316792Y-104176961D01*
X75316792Y-104176961D02*
X75412030Y-104272200D01*
X75412030Y-104272200D02*
X75554887Y-104319819D01*
X75554887Y-104319819D02*
X75792982Y-104319819D01*
X74031077Y-104319819D02*
X74031077Y-103319819D01*
X74031077Y-103319819D02*
X73792982Y-103319819D01*
X73792982Y-103319819D02*
X73650125Y-103367438D01*
X73650125Y-103367438D02*
X73554887Y-103462676D01*
X73554887Y-103462676D02*
X73507268Y-103557914D01*
X73507268Y-103557914D02*
X73459649Y-103748390D01*
X73459649Y-103748390D02*
X73459649Y-103891247D01*
X73459649Y-103891247D02*
X73507268Y-104081723D01*
X73507268Y-104081723D02*
X73554887Y-104176961D01*
X73554887Y-104176961D02*
X73650125Y-104272200D01*
X73650125Y-104272200D02*
X73792982Y-104319819D01*
X73792982Y-104319819D02*
X74031077Y-104319819D01*
X72650125Y-104272200D02*
X72745363Y-104319819D01*
X72745363Y-104319819D02*
X72935839Y-104319819D01*
X72935839Y-104319819D02*
X73031077Y-104272200D01*
X73031077Y-104272200D02*
X73078696Y-104176961D01*
X73078696Y-104176961D02*
X73078696Y-103796009D01*
X73078696Y-103796009D02*
X73031077Y-103700771D01*
X73031077Y-103700771D02*
X72935839Y-103653152D01*
X72935839Y-103653152D02*
X72745363Y-103653152D01*
X72745363Y-103653152D02*
X72650125Y-103700771D01*
X72650125Y-103700771D02*
X72602506Y-103796009D01*
X72602506Y-103796009D02*
X72602506Y-103891247D01*
X72602506Y-103891247D02*
X73078696Y-103986485D01*
X72173934Y-104319819D02*
X72173934Y-103319819D01*
X72173934Y-103700771D02*
X72078696Y-103653152D01*
X72078696Y-103653152D02*
X71888220Y-103653152D01*
X71888220Y-103653152D02*
X71792982Y-103700771D01*
X71792982Y-103700771D02*
X71745363Y-103748390D01*
X71745363Y-103748390D02*
X71697744Y-103843628D01*
X71697744Y-103843628D02*
X71697744Y-104129342D01*
X71697744Y-104129342D02*
X71745363Y-104224580D01*
X71745363Y-104224580D02*
X71792982Y-104272200D01*
X71792982Y-104272200D02*
X71888220Y-104319819D01*
X71888220Y-104319819D02*
X72078696Y-104319819D01*
X72078696Y-104319819D02*
X72173934Y-104272200D01*
X70840601Y-103653152D02*
X70840601Y-104319819D01*
X71269172Y-103653152D02*
X71269172Y-104176961D01*
X71269172Y-104176961D02*
X71221553Y-104272200D01*
X71221553Y-104272200D02*
X71126315Y-104319819D01*
X71126315Y-104319819D02*
X70983458Y-104319819D01*
X70983458Y-104319819D02*
X70888220Y-104272200D01*
X70888220Y-104272200D02*
X70840601Y-104224580D01*
X69935839Y-103653152D02*
X69935839Y-104462676D01*
X69935839Y-104462676D02*
X69983458Y-104557914D01*
X69983458Y-104557914D02*
X70031077Y-104605533D01*
X70031077Y-104605533D02*
X70126315Y-104653152D01*
X70126315Y-104653152D02*
X70269172Y-104653152D01*
X70269172Y-104653152D02*
X70364410Y-104605533D01*
X69935839Y-104272200D02*
X70031077Y-104319819D01*
X70031077Y-104319819D02*
X70221553Y-104319819D01*
X70221553Y-104319819D02*
X70316791Y-104272200D01*
X70316791Y-104272200D02*
X70364410Y-104224580D01*
X70364410Y-104224580D02*
X70412029Y-104129342D01*
X70412029Y-104129342D02*
X70412029Y-103843628D01*
X70412029Y-103843628D02*
X70364410Y-103748390D01*
X70364410Y-103748390D02*
X70316791Y-103700771D01*
X70316791Y-103700771D02*
X70221553Y-103653152D01*
X70221553Y-103653152D02*
X70031077Y-103653152D01*
X70031077Y-103653152D02*
X69935839Y-103700771D01*
X68364410Y-103796009D02*
X68221553Y-103843628D01*
X68221553Y-103843628D02*
X68173934Y-103891247D01*
X68173934Y-103891247D02*
X68126315Y-103986485D01*
X68126315Y-103986485D02*
X68126315Y-104129342D01*
X68126315Y-104129342D02*
X68173934Y-104224580D01*
X68173934Y-104224580D02*
X68221553Y-104272200D01*
X68221553Y-104272200D02*
X68316791Y-104319819D01*
X68316791Y-104319819D02*
X68697743Y-104319819D01*
X68697743Y-104319819D02*
X68697743Y-103319819D01*
X68697743Y-103319819D02*
X68364410Y-103319819D01*
X68364410Y-103319819D02*
X68269172Y-103367438D01*
X68269172Y-103367438D02*
X68221553Y-103415057D01*
X68221553Y-103415057D02*
X68173934Y-103510295D01*
X68173934Y-103510295D02*
X68173934Y-103605533D01*
X68173934Y-103605533D02*
X68221553Y-103700771D01*
X68221553Y-103700771D02*
X68269172Y-103748390D01*
X68269172Y-103748390D02*
X68364410Y-103796009D01*
X68364410Y-103796009D02*
X68697743Y-103796009D01*
X67697743Y-104319819D02*
X67697743Y-103653152D01*
X67697743Y-103843628D02*
X67650124Y-103748390D01*
X67650124Y-103748390D02*
X67602505Y-103700771D01*
X67602505Y-103700771D02*
X67507267Y-103653152D01*
X67507267Y-103653152D02*
X67412029Y-103653152D01*
X66697743Y-104272200D02*
X66792981Y-104319819D01*
X66792981Y-104319819D02*
X66983457Y-104319819D01*
X66983457Y-104319819D02*
X67078695Y-104272200D01*
X67078695Y-104272200D02*
X67126314Y-104176961D01*
X67126314Y-104176961D02*
X67126314Y-103796009D01*
X67126314Y-103796009D02*
X67078695Y-103700771D01*
X67078695Y-103700771D02*
X66983457Y-103653152D01*
X66983457Y-103653152D02*
X66792981Y-103653152D01*
X66792981Y-103653152D02*
X66697743Y-103700771D01*
X66697743Y-103700771D02*
X66650124Y-103796009D01*
X66650124Y-103796009D02*
X66650124Y-103891247D01*
X66650124Y-103891247D02*
X67126314Y-103986485D01*
X65792981Y-104319819D02*
X65792981Y-103796009D01*
X65792981Y-103796009D02*
X65840600Y-103700771D01*
X65840600Y-103700771D02*
X65935838Y-103653152D01*
X65935838Y-103653152D02*
X66126314Y-103653152D01*
X66126314Y-103653152D02*
X66221552Y-103700771D01*
X65792981Y-104272200D02*
X65888219Y-104319819D01*
X65888219Y-104319819D02*
X66126314Y-104319819D01*
X66126314Y-104319819D02*
X66221552Y-104272200D01*
X66221552Y-104272200D02*
X66269171Y-104176961D01*
X66269171Y-104176961D02*
X66269171Y-104081723D01*
X66269171Y-104081723D02*
X66221552Y-103986485D01*
X66221552Y-103986485D02*
X66126314Y-103938866D01*
X66126314Y-103938866D02*
X65888219Y-103938866D01*
X65888219Y-103938866D02*
X65792981Y-103891247D01*
X65316790Y-104319819D02*
X65316790Y-103319819D01*
X65221552Y-103938866D02*
X64935838Y-104319819D01*
X64935838Y-103653152D02*
X65316790Y-104034104D01*
X64364409Y-104319819D02*
X64459647Y-104272200D01*
X64459647Y-104272200D02*
X64507266Y-104224580D01*
X64507266Y-104224580D02*
X64554885Y-104129342D01*
X64554885Y-104129342D02*
X64554885Y-103843628D01*
X64554885Y-103843628D02*
X64507266Y-103748390D01*
X64507266Y-103748390D02*
X64459647Y-103700771D01*
X64459647Y-103700771D02*
X64364409Y-103653152D01*
X64364409Y-103653152D02*
X64221552Y-103653152D01*
X64221552Y-103653152D02*
X64126314Y-103700771D01*
X64126314Y-103700771D02*
X64078695Y-103748390D01*
X64078695Y-103748390D02*
X64031076Y-103843628D01*
X64031076Y-103843628D02*
X64031076Y-104129342D01*
X64031076Y-104129342D02*
X64078695Y-104224580D01*
X64078695Y-104224580D02*
X64126314Y-104272200D01*
X64126314Y-104272200D02*
X64221552Y-104319819D01*
X64221552Y-104319819D02*
X64364409Y-104319819D01*
X63173933Y-103653152D02*
X63173933Y-104319819D01*
X63602504Y-103653152D02*
X63602504Y-104176961D01*
X63602504Y-104176961D02*
X63554885Y-104272200D01*
X63554885Y-104272200D02*
X63459647Y-104319819D01*
X63459647Y-104319819D02*
X63316790Y-104319819D01*
X63316790Y-104319819D02*
X63221552Y-104272200D01*
X63221552Y-104272200D02*
X63173933Y-104224580D01*
X62840599Y-103653152D02*
X62459647Y-103653152D01*
X62697742Y-103319819D02*
X62697742Y-104176961D01*
X62697742Y-104176961D02*
X62650123Y-104272200D01*
X62650123Y-104272200D02*
X62554885Y-104319819D01*
X62554885Y-104319819D02*
X62459647Y-104319819D01*
X75485839Y-112273950D02*
X75342982Y-112321569D01*
X75342982Y-112321569D02*
X75104887Y-112321569D01*
X75104887Y-112321569D02*
X75009649Y-112273950D01*
X75009649Y-112273950D02*
X74962030Y-112226330D01*
X74962030Y-112226330D02*
X74914411Y-112131092D01*
X74914411Y-112131092D02*
X74914411Y-112035854D01*
X74914411Y-112035854D02*
X74962030Y-111940616D01*
X74962030Y-111940616D02*
X75009649Y-111892997D01*
X75009649Y-111892997D02*
X75104887Y-111845378D01*
X75104887Y-111845378D02*
X75295363Y-111797759D01*
X75295363Y-111797759D02*
X75390601Y-111750140D01*
X75390601Y-111750140D02*
X75438220Y-111702521D01*
X75438220Y-111702521D02*
X75485839Y-111607283D01*
X75485839Y-111607283D02*
X75485839Y-111512045D01*
X75485839Y-111512045D02*
X75438220Y-111416807D01*
X75438220Y-111416807D02*
X75390601Y-111369188D01*
X75390601Y-111369188D02*
X75295363Y-111321569D01*
X75295363Y-111321569D02*
X75057268Y-111321569D01*
X75057268Y-111321569D02*
X74914411Y-111369188D01*
X74581077Y-111321569D02*
X74342982Y-112321569D01*
X74342982Y-112321569D02*
X74152506Y-111607283D01*
X74152506Y-111607283D02*
X73962030Y-112321569D01*
X73962030Y-112321569D02*
X73723935Y-111321569D01*
X72771554Y-112226330D02*
X72819173Y-112273950D01*
X72819173Y-112273950D02*
X72962030Y-112321569D01*
X72962030Y-112321569D02*
X73057268Y-112321569D01*
X73057268Y-112321569D02*
X73200125Y-112273950D01*
X73200125Y-112273950D02*
X73295363Y-112178711D01*
X73295363Y-112178711D02*
X73342982Y-112083473D01*
X73342982Y-112083473D02*
X73390601Y-111892997D01*
X73390601Y-111892997D02*
X73390601Y-111750140D01*
X73390601Y-111750140D02*
X73342982Y-111559664D01*
X73342982Y-111559664D02*
X73295363Y-111464426D01*
X73295363Y-111464426D02*
X73200125Y-111369188D01*
X73200125Y-111369188D02*
X73057268Y-111321569D01*
X73057268Y-111321569D02*
X72962030Y-111321569D01*
X72962030Y-111321569D02*
X72819173Y-111369188D01*
X72819173Y-111369188D02*
X72771554Y-111416807D01*
X71866792Y-112321569D02*
X72342982Y-112321569D01*
X72342982Y-112321569D02*
X72342982Y-111321569D01*
X71533458Y-112321569D02*
X71533458Y-111321569D01*
X70962030Y-112321569D02*
X71390601Y-111750140D01*
X70962030Y-111321569D02*
X71533458Y-111892997D01*
X74989411Y-39079188D02*
X75084649Y-39031569D01*
X75084649Y-39031569D02*
X75227506Y-39031569D01*
X75227506Y-39031569D02*
X75370363Y-39079188D01*
X75370363Y-39079188D02*
X75465601Y-39174426D01*
X75465601Y-39174426D02*
X75513220Y-39269664D01*
X75513220Y-39269664D02*
X75560839Y-39460140D01*
X75560839Y-39460140D02*
X75560839Y-39602997D01*
X75560839Y-39602997D02*
X75513220Y-39793473D01*
X75513220Y-39793473D02*
X75465601Y-39888711D01*
X75465601Y-39888711D02*
X75370363Y-39983950D01*
X75370363Y-39983950D02*
X75227506Y-40031569D01*
X75227506Y-40031569D02*
X75132268Y-40031569D01*
X75132268Y-40031569D02*
X74989411Y-39983950D01*
X74989411Y-39983950D02*
X74941792Y-39936330D01*
X74941792Y-39936330D02*
X74941792Y-39602997D01*
X74941792Y-39602997D02*
X75132268Y-39602997D01*
X74513220Y-40031569D02*
X74513220Y-39031569D01*
X74513220Y-39031569D02*
X73941792Y-40031569D01*
X73941792Y-40031569D02*
X73941792Y-39031569D01*
X73465601Y-40031569D02*
X73465601Y-39031569D01*
X73465601Y-39031569D02*
X73227506Y-39031569D01*
X73227506Y-39031569D02*
X73084649Y-39079188D01*
X73084649Y-39079188D02*
X72989411Y-39174426D01*
X72989411Y-39174426D02*
X72941792Y-39269664D01*
X72941792Y-39269664D02*
X72894173Y-39460140D01*
X72894173Y-39460140D02*
X72894173Y-39602997D01*
X72894173Y-39602997D02*
X72941792Y-39793473D01*
X72941792Y-39793473D02*
X72989411Y-39888711D01*
X72989411Y-39888711D02*
X73084649Y-39983950D01*
X73084649Y-39983950D02*
X73227506Y-40031569D01*
X73227506Y-40031569D02*
X73465601Y-40031569D01*
X69778220Y-26094819D02*
X69206792Y-26094819D01*
X69492506Y-27094819D02*
X69492506Y-26094819D01*
X68873458Y-27094819D02*
X68873458Y-26094819D01*
X68873458Y-26094819D02*
X68492506Y-26094819D01*
X68492506Y-26094819D02*
X68397268Y-26142438D01*
X68397268Y-26142438D02*
X68349649Y-26190057D01*
X68349649Y-26190057D02*
X68302030Y-26285295D01*
X68302030Y-26285295D02*
X68302030Y-26428152D01*
X68302030Y-26428152D02*
X68349649Y-26523390D01*
X68349649Y-26523390D02*
X68397268Y-26571009D01*
X68397268Y-26571009D02*
X68492506Y-26618628D01*
X68492506Y-26618628D02*
X68873458Y-26618628D01*
X67444887Y-26094819D02*
X67635363Y-26094819D01*
X67635363Y-26094819D02*
X67730601Y-26142438D01*
X67730601Y-26142438D02*
X67778220Y-26190057D01*
X67778220Y-26190057D02*
X67873458Y-26332914D01*
X67873458Y-26332914D02*
X67921077Y-26523390D01*
X67921077Y-26523390D02*
X67921077Y-26904342D01*
X67921077Y-26904342D02*
X67873458Y-26999580D01*
X67873458Y-26999580D02*
X67825839Y-27047200D01*
X67825839Y-27047200D02*
X67730601Y-27094819D01*
X67730601Y-27094819D02*
X67540125Y-27094819D01*
X67540125Y-27094819D02*
X67444887Y-27047200D01*
X67444887Y-27047200D02*
X67397268Y-26999580D01*
X67397268Y-26999580D02*
X67349649Y-26904342D01*
X67349649Y-26904342D02*
X67349649Y-26666247D01*
X67349649Y-26666247D02*
X67397268Y-26571009D01*
X67397268Y-26571009D02*
X67444887Y-26523390D01*
X67444887Y-26523390D02*
X67540125Y-26475771D01*
X67540125Y-26475771D02*
X67730601Y-26475771D01*
X67730601Y-26475771D02*
X67825839Y-26523390D01*
X67825839Y-26523390D02*
X67873458Y-26571009D01*
X67873458Y-26571009D02*
X67921077Y-26666247D01*
X74866792Y-120571330D02*
X74914411Y-120618950D01*
X74914411Y-120618950D02*
X75057268Y-120666569D01*
X75057268Y-120666569D02*
X75152506Y-120666569D01*
X75152506Y-120666569D02*
X75295363Y-120618950D01*
X75295363Y-120618950D02*
X75390601Y-120523711D01*
X75390601Y-120523711D02*
X75438220Y-120428473D01*
X75438220Y-120428473D02*
X75485839Y-120237997D01*
X75485839Y-120237997D02*
X75485839Y-120095140D01*
X75485839Y-120095140D02*
X75438220Y-119904664D01*
X75438220Y-119904664D02*
X75390601Y-119809426D01*
X75390601Y-119809426D02*
X75295363Y-119714188D01*
X75295363Y-119714188D02*
X75152506Y-119666569D01*
X75152506Y-119666569D02*
X75057268Y-119666569D01*
X75057268Y-119666569D02*
X74914411Y-119714188D01*
X74914411Y-119714188D02*
X74866792Y-119761807D01*
X74581077Y-119666569D02*
X74009649Y-119666569D01*
X74295363Y-120666569D02*
X74295363Y-119666569D01*
X73723934Y-120618950D02*
X73581077Y-120666569D01*
X73581077Y-120666569D02*
X73342982Y-120666569D01*
X73342982Y-120666569D02*
X73247744Y-120618950D01*
X73247744Y-120618950D02*
X73200125Y-120571330D01*
X73200125Y-120571330D02*
X73152506Y-120476092D01*
X73152506Y-120476092D02*
X73152506Y-120380854D01*
X73152506Y-120380854D02*
X73200125Y-120285616D01*
X73200125Y-120285616D02*
X73247744Y-120237997D01*
X73247744Y-120237997D02*
X73342982Y-120190378D01*
X73342982Y-120190378D02*
X73533458Y-120142759D01*
X73533458Y-120142759D02*
X73628696Y-120095140D01*
X73628696Y-120095140D02*
X73676315Y-120047521D01*
X73676315Y-120047521D02*
X73723934Y-119952283D01*
X73723934Y-119952283D02*
X73723934Y-119857045D01*
X73723934Y-119857045D02*
X73676315Y-119761807D01*
X73676315Y-119761807D02*
X73628696Y-119714188D01*
X73628696Y-119714188D02*
X73533458Y-119666569D01*
X73533458Y-119666569D02*
X73295363Y-119666569D01*
X73295363Y-119666569D02*
X73152506Y-119714188D01*
X75581077Y-124746569D02*
X75009649Y-124746569D01*
X75295363Y-125746569D02*
X75295363Y-124746569D01*
X74771553Y-124746569D02*
X74104887Y-125746569D01*
X74104887Y-124746569D02*
X74771553Y-125746569D01*
X53803220Y-26094819D02*
X53231792Y-26094819D01*
X53517506Y-27094819D02*
X53517506Y-26094819D01*
X52898458Y-27094819D02*
X52898458Y-26094819D01*
X52898458Y-26094819D02*
X52517506Y-26094819D01*
X52517506Y-26094819D02*
X52422268Y-26142438D01*
X52422268Y-26142438D02*
X52374649Y-26190057D01*
X52374649Y-26190057D02*
X52327030Y-26285295D01*
X52327030Y-26285295D02*
X52327030Y-26428152D01*
X52327030Y-26428152D02*
X52374649Y-26523390D01*
X52374649Y-26523390D02*
X52422268Y-26571009D01*
X52422268Y-26571009D02*
X52517506Y-26618628D01*
X52517506Y-26618628D02*
X52898458Y-26618628D01*
X51374649Y-27094819D02*
X51946077Y-27094819D01*
X51660363Y-27094819D02*
X51660363Y-26094819D01*
X51660363Y-26094819D02*
X51755601Y-26237676D01*
X51755601Y-26237676D02*
X51850839Y-26332914D01*
X51850839Y-26332914D02*
X51946077Y-26380533D01*
X74866792Y-123206569D02*
X75200125Y-122730378D01*
X75438220Y-123206569D02*
X75438220Y-122206569D01*
X75438220Y-122206569D02*
X75057268Y-122206569D01*
X75057268Y-122206569D02*
X74962030Y-122254188D01*
X74962030Y-122254188D02*
X74914411Y-122301807D01*
X74914411Y-122301807D02*
X74866792Y-122397045D01*
X74866792Y-122397045D02*
X74866792Y-122539902D01*
X74866792Y-122539902D02*
X74914411Y-122635140D01*
X74914411Y-122635140D02*
X74962030Y-122682759D01*
X74962030Y-122682759D02*
X75057268Y-122730378D01*
X75057268Y-122730378D02*
X75438220Y-122730378D01*
X74533458Y-122206569D02*
X73866792Y-123206569D01*
X73866792Y-122206569D02*
X74533458Y-123206569D01*
X66583220Y-26094819D02*
X66011792Y-26094819D01*
X66297506Y-27094819D02*
X66297506Y-26094819D01*
X65678458Y-27094819D02*
X65678458Y-26094819D01*
X65678458Y-26094819D02*
X65297506Y-26094819D01*
X65297506Y-26094819D02*
X65202268Y-26142438D01*
X65202268Y-26142438D02*
X65154649Y-26190057D01*
X65154649Y-26190057D02*
X65107030Y-26285295D01*
X65107030Y-26285295D02*
X65107030Y-26428152D01*
X65107030Y-26428152D02*
X65154649Y-26523390D01*
X65154649Y-26523390D02*
X65202268Y-26571009D01*
X65202268Y-26571009D02*
X65297506Y-26618628D01*
X65297506Y-26618628D02*
X65678458Y-26618628D01*
X64202268Y-26094819D02*
X64678458Y-26094819D01*
X64678458Y-26094819D02*
X64726077Y-26571009D01*
X64726077Y-26571009D02*
X64678458Y-26523390D01*
X64678458Y-26523390D02*
X64583220Y-26475771D01*
X64583220Y-26475771D02*
X64345125Y-26475771D01*
X64345125Y-26475771D02*
X64249887Y-26523390D01*
X64249887Y-26523390D02*
X64202268Y-26571009D01*
X64202268Y-26571009D02*
X64154649Y-26666247D01*
X64154649Y-26666247D02*
X64154649Y-26904342D01*
X64154649Y-26904342D02*
X64202268Y-26999580D01*
X64202268Y-26999580D02*
X64249887Y-27047200D01*
X64249887Y-27047200D02*
X64345125Y-27094819D01*
X64345125Y-27094819D02*
X64583220Y-27094819D01*
X64583220Y-27094819D02*
X64678458Y-27047200D01*
X64678458Y-27047200D02*
X64726077Y-26999580D01*
X63388220Y-26094819D02*
X62816792Y-26094819D01*
X63102506Y-27094819D02*
X63102506Y-26094819D01*
X62483458Y-27094819D02*
X62483458Y-26094819D01*
X62483458Y-26094819D02*
X62102506Y-26094819D01*
X62102506Y-26094819D02*
X62007268Y-26142438D01*
X62007268Y-26142438D02*
X61959649Y-26190057D01*
X61959649Y-26190057D02*
X61912030Y-26285295D01*
X61912030Y-26285295D02*
X61912030Y-26428152D01*
X61912030Y-26428152D02*
X61959649Y-26523390D01*
X61959649Y-26523390D02*
X62007268Y-26571009D01*
X62007268Y-26571009D02*
X62102506Y-26618628D01*
X62102506Y-26618628D02*
X62483458Y-26618628D01*
X61054887Y-26428152D02*
X61054887Y-27094819D01*
X61292982Y-26047200D02*
X61531077Y-26761485D01*
X61531077Y-26761485D02*
X60912030Y-26761485D01*
X56998220Y-26094819D02*
X56426792Y-26094819D01*
X56712506Y-27094819D02*
X56712506Y-26094819D01*
X56093458Y-27094819D02*
X56093458Y-26094819D01*
X56093458Y-26094819D02*
X55712506Y-26094819D01*
X55712506Y-26094819D02*
X55617268Y-26142438D01*
X55617268Y-26142438D02*
X55569649Y-26190057D01*
X55569649Y-26190057D02*
X55522030Y-26285295D01*
X55522030Y-26285295D02*
X55522030Y-26428152D01*
X55522030Y-26428152D02*
X55569649Y-26523390D01*
X55569649Y-26523390D02*
X55617268Y-26571009D01*
X55617268Y-26571009D02*
X55712506Y-26618628D01*
X55712506Y-26618628D02*
X56093458Y-26618628D01*
X55141077Y-26190057D02*
X55093458Y-26142438D01*
X55093458Y-26142438D02*
X54998220Y-26094819D01*
X54998220Y-26094819D02*
X54760125Y-26094819D01*
X54760125Y-26094819D02*
X54664887Y-26142438D01*
X54664887Y-26142438D02*
X54617268Y-26190057D01*
X54617268Y-26190057D02*
X54569649Y-26285295D01*
X54569649Y-26285295D02*
X54569649Y-26380533D01*
X54569649Y-26380533D02*
X54617268Y-26523390D01*
X54617268Y-26523390D02*
X55188696Y-27094819D01*
X55188696Y-27094819D02*
X54569649Y-27094819D01*
X75656077Y-41571569D02*
X75322744Y-42571569D01*
X75322744Y-42571569D02*
X74989411Y-41571569D01*
X74751315Y-41571569D02*
X74132268Y-41571569D01*
X74132268Y-41571569D02*
X74465601Y-41952521D01*
X74465601Y-41952521D02*
X74322744Y-41952521D01*
X74322744Y-41952521D02*
X74227506Y-42000140D01*
X74227506Y-42000140D02*
X74179887Y-42047759D01*
X74179887Y-42047759D02*
X74132268Y-42142997D01*
X74132268Y-42142997D02*
X74132268Y-42381092D01*
X74132268Y-42381092D02*
X74179887Y-42476330D01*
X74179887Y-42476330D02*
X74227506Y-42523950D01*
X74227506Y-42523950D02*
X74322744Y-42571569D01*
X74322744Y-42571569D02*
X74608458Y-42571569D01*
X74608458Y-42571569D02*
X74703696Y-42523950D01*
X74703696Y-42523950D02*
X74751315Y-42476330D01*
M02*
