%TF.GenerationSoftware,KiCad,Pcbnew,8.0.1*%
%TF.CreationDate,2024-04-23T21:03:34-07:00*%
%TF.ProjectId,BatteryTelemetry,42617474-6572-4795-9465-6c656d657472,rev?*%
%TF.SameCoordinates,Original*%
%TF.FileFunction,Legend,Top*%
%TF.FilePolarity,Positive*%
%FSLAX46Y46*%
G04 Gerber Fmt 4.6, Leading zero omitted, Abs format (unit mm)*
G04 Created by KiCad (PCBNEW 8.0.1) date 2024-04-23 21:03:34*
%MOMM*%
%LPD*%
G01*
G04 APERTURE LIST*
%ADD10C,0.150000*%
%ADD11C,0.120000*%
%ADD12C,0.250000*%
%ADD13C,0.000000*%
G04 APERTURE END LIST*
D10*
X79000000Y-129200000D02*
X79000000Y-135500000D01*
X78650000Y-129700000D02*
X79000000Y-129200000D01*
X79350000Y-129700000D02*
X79000000Y-129200000D01*
X79000000Y-129200000D02*
X78650000Y-129700000D01*
X73468922Y-41571569D02*
X73802255Y-42571569D01*
X73802255Y-42571569D02*
X74135588Y-41571569D01*
X74373684Y-41571569D02*
X74992731Y-41571569D01*
X74992731Y-41571569D02*
X74659398Y-41952521D01*
X74659398Y-41952521D02*
X74802255Y-41952521D01*
X74802255Y-41952521D02*
X74897493Y-42000140D01*
X74897493Y-42000140D02*
X74945112Y-42047759D01*
X74945112Y-42047759D02*
X74992731Y-42142997D01*
X74992731Y-42142997D02*
X74992731Y-42381092D01*
X74992731Y-42381092D02*
X74945112Y-42476330D01*
X74945112Y-42476330D02*
X74897493Y-42523950D01*
X74897493Y-42523950D02*
X74802255Y-42571569D01*
X74802255Y-42571569D02*
X74516541Y-42571569D01*
X74516541Y-42571569D02*
X74421303Y-42523950D01*
X74421303Y-42523950D02*
X74373684Y-42476330D01*
X72897493Y-39079188D02*
X72802255Y-39031569D01*
X72802255Y-39031569D02*
X72659398Y-39031569D01*
X72659398Y-39031569D02*
X72516541Y-39079188D01*
X72516541Y-39079188D02*
X72421303Y-39174426D01*
X72421303Y-39174426D02*
X72373684Y-39269664D01*
X72373684Y-39269664D02*
X72326065Y-39460140D01*
X72326065Y-39460140D02*
X72326065Y-39602997D01*
X72326065Y-39602997D02*
X72373684Y-39793473D01*
X72373684Y-39793473D02*
X72421303Y-39888711D01*
X72421303Y-39888711D02*
X72516541Y-39983950D01*
X72516541Y-39983950D02*
X72659398Y-40031569D01*
X72659398Y-40031569D02*
X72754636Y-40031569D01*
X72754636Y-40031569D02*
X72897493Y-39983950D01*
X72897493Y-39983950D02*
X72945112Y-39936330D01*
X72945112Y-39936330D02*
X72945112Y-39602997D01*
X72945112Y-39602997D02*
X72754636Y-39602997D01*
X73373684Y-40031569D02*
X73373684Y-39031569D01*
X73373684Y-39031569D02*
X73945112Y-40031569D01*
X73945112Y-40031569D02*
X73945112Y-39031569D01*
X74421303Y-40031569D02*
X74421303Y-39031569D01*
X74421303Y-39031569D02*
X74659398Y-39031569D01*
X74659398Y-39031569D02*
X74802255Y-39079188D01*
X74802255Y-39079188D02*
X74897493Y-39174426D01*
X74897493Y-39174426D02*
X74945112Y-39269664D01*
X74945112Y-39269664D02*
X74992731Y-39460140D01*
X74992731Y-39460140D02*
X74992731Y-39602997D01*
X74992731Y-39602997D02*
X74945112Y-39793473D01*
X74945112Y-39793473D02*
X74897493Y-39888711D01*
X74897493Y-39888711D02*
X74802255Y-39983950D01*
X74802255Y-39983950D02*
X74659398Y-40031569D01*
X74659398Y-40031569D02*
X74421303Y-40031569D01*
X43449872Y-157096009D02*
X43592729Y-157143628D01*
X43592729Y-157143628D02*
X43640348Y-157191247D01*
X43640348Y-157191247D02*
X43687967Y-157286485D01*
X43687967Y-157286485D02*
X43687967Y-157429342D01*
X43687967Y-157429342D02*
X43640348Y-157524580D01*
X43640348Y-157524580D02*
X43592729Y-157572200D01*
X43592729Y-157572200D02*
X43497491Y-157619819D01*
X43497491Y-157619819D02*
X43116539Y-157619819D01*
X43116539Y-157619819D02*
X43116539Y-156619819D01*
X43116539Y-156619819D02*
X43449872Y-156619819D01*
X43449872Y-156619819D02*
X43545110Y-156667438D01*
X43545110Y-156667438D02*
X43592729Y-156715057D01*
X43592729Y-156715057D02*
X43640348Y-156810295D01*
X43640348Y-156810295D02*
X43640348Y-156905533D01*
X43640348Y-156905533D02*
X43592729Y-157000771D01*
X43592729Y-157000771D02*
X43545110Y-157048390D01*
X43545110Y-157048390D02*
X43449872Y-157096009D01*
X43449872Y-157096009D02*
X43116539Y-157096009D01*
X44545110Y-157619819D02*
X44545110Y-157096009D01*
X44545110Y-157096009D02*
X44497491Y-157000771D01*
X44497491Y-157000771D02*
X44402253Y-156953152D01*
X44402253Y-156953152D02*
X44211777Y-156953152D01*
X44211777Y-156953152D02*
X44116539Y-157000771D01*
X44545110Y-157572200D02*
X44449872Y-157619819D01*
X44449872Y-157619819D02*
X44211777Y-157619819D01*
X44211777Y-157619819D02*
X44116539Y-157572200D01*
X44116539Y-157572200D02*
X44068920Y-157476961D01*
X44068920Y-157476961D02*
X44068920Y-157381723D01*
X44068920Y-157381723D02*
X44116539Y-157286485D01*
X44116539Y-157286485D02*
X44211777Y-157238866D01*
X44211777Y-157238866D02*
X44449872Y-157238866D01*
X44449872Y-157238866D02*
X44545110Y-157191247D01*
X44878444Y-156953152D02*
X45259396Y-156953152D01*
X45021301Y-156619819D02*
X45021301Y-157476961D01*
X45021301Y-157476961D02*
X45068920Y-157572200D01*
X45068920Y-157572200D02*
X45164158Y-157619819D01*
X45164158Y-157619819D02*
X45259396Y-157619819D01*
X45449873Y-156953152D02*
X45830825Y-156953152D01*
X45592730Y-156619819D02*
X45592730Y-157476961D01*
X45592730Y-157476961D02*
X45640349Y-157572200D01*
X45640349Y-157572200D02*
X45735587Y-157619819D01*
X45735587Y-157619819D02*
X45830825Y-157619819D01*
X46545111Y-157572200D02*
X46449873Y-157619819D01*
X46449873Y-157619819D02*
X46259397Y-157619819D01*
X46259397Y-157619819D02*
X46164159Y-157572200D01*
X46164159Y-157572200D02*
X46116540Y-157476961D01*
X46116540Y-157476961D02*
X46116540Y-157096009D01*
X46116540Y-157096009D02*
X46164159Y-157000771D01*
X46164159Y-157000771D02*
X46259397Y-156953152D01*
X46259397Y-156953152D02*
X46449873Y-156953152D01*
X46449873Y-156953152D02*
X46545111Y-157000771D01*
X46545111Y-157000771D02*
X46592730Y-157096009D01*
X46592730Y-157096009D02*
X46592730Y-157191247D01*
X46592730Y-157191247D02*
X46116540Y-157286485D01*
X47021302Y-157619819D02*
X47021302Y-156953152D01*
X47021302Y-157143628D02*
X47068921Y-157048390D01*
X47068921Y-157048390D02*
X47116540Y-157000771D01*
X47116540Y-157000771D02*
X47211778Y-156953152D01*
X47211778Y-156953152D02*
X47307016Y-156953152D01*
X47545112Y-156953152D02*
X47783207Y-157619819D01*
X48021302Y-156953152D02*
X47783207Y-157619819D01*
X47783207Y-157619819D02*
X47687969Y-157857914D01*
X47687969Y-157857914D02*
X47640350Y-157905533D01*
X47640350Y-157905533D02*
X47545112Y-157953152D01*
X49021303Y-156619819D02*
X49592731Y-156619819D01*
X49307017Y-157619819D02*
X49307017Y-156619819D01*
X50307017Y-157572200D02*
X50211779Y-157619819D01*
X50211779Y-157619819D02*
X50021303Y-157619819D01*
X50021303Y-157619819D02*
X49926065Y-157572200D01*
X49926065Y-157572200D02*
X49878446Y-157476961D01*
X49878446Y-157476961D02*
X49878446Y-157096009D01*
X49878446Y-157096009D02*
X49926065Y-157000771D01*
X49926065Y-157000771D02*
X50021303Y-156953152D01*
X50021303Y-156953152D02*
X50211779Y-156953152D01*
X50211779Y-156953152D02*
X50307017Y-157000771D01*
X50307017Y-157000771D02*
X50354636Y-157096009D01*
X50354636Y-157096009D02*
X50354636Y-157191247D01*
X50354636Y-157191247D02*
X49878446Y-157286485D01*
X50926065Y-157619819D02*
X50830827Y-157572200D01*
X50830827Y-157572200D02*
X50783208Y-157476961D01*
X50783208Y-157476961D02*
X50783208Y-156619819D01*
X51687970Y-157572200D02*
X51592732Y-157619819D01*
X51592732Y-157619819D02*
X51402256Y-157619819D01*
X51402256Y-157619819D02*
X51307018Y-157572200D01*
X51307018Y-157572200D02*
X51259399Y-157476961D01*
X51259399Y-157476961D02*
X51259399Y-157096009D01*
X51259399Y-157096009D02*
X51307018Y-157000771D01*
X51307018Y-157000771D02*
X51402256Y-156953152D01*
X51402256Y-156953152D02*
X51592732Y-156953152D01*
X51592732Y-156953152D02*
X51687970Y-157000771D01*
X51687970Y-157000771D02*
X51735589Y-157096009D01*
X51735589Y-157096009D02*
X51735589Y-157191247D01*
X51735589Y-157191247D02*
X51259399Y-157286485D01*
X52164161Y-157619819D02*
X52164161Y-156953152D01*
X52164161Y-157048390D02*
X52211780Y-157000771D01*
X52211780Y-157000771D02*
X52307018Y-156953152D01*
X52307018Y-156953152D02*
X52449875Y-156953152D01*
X52449875Y-156953152D02*
X52545113Y-157000771D01*
X52545113Y-157000771D02*
X52592732Y-157096009D01*
X52592732Y-157096009D02*
X52592732Y-157619819D01*
X52592732Y-157096009D02*
X52640351Y-157000771D01*
X52640351Y-157000771D02*
X52735589Y-156953152D01*
X52735589Y-156953152D02*
X52878446Y-156953152D01*
X52878446Y-156953152D02*
X52973685Y-157000771D01*
X52973685Y-157000771D02*
X53021304Y-157096009D01*
X53021304Y-157096009D02*
X53021304Y-157619819D01*
X53878446Y-157572200D02*
X53783208Y-157619819D01*
X53783208Y-157619819D02*
X53592732Y-157619819D01*
X53592732Y-157619819D02*
X53497494Y-157572200D01*
X53497494Y-157572200D02*
X53449875Y-157476961D01*
X53449875Y-157476961D02*
X53449875Y-157096009D01*
X53449875Y-157096009D02*
X53497494Y-157000771D01*
X53497494Y-157000771D02*
X53592732Y-156953152D01*
X53592732Y-156953152D02*
X53783208Y-156953152D01*
X53783208Y-156953152D02*
X53878446Y-157000771D01*
X53878446Y-157000771D02*
X53926065Y-157096009D01*
X53926065Y-157096009D02*
X53926065Y-157191247D01*
X53926065Y-157191247D02*
X53449875Y-157286485D01*
X54211780Y-156953152D02*
X54592732Y-156953152D01*
X54354637Y-156619819D02*
X54354637Y-157476961D01*
X54354637Y-157476961D02*
X54402256Y-157572200D01*
X54402256Y-157572200D02*
X54497494Y-157619819D01*
X54497494Y-157619819D02*
X54592732Y-157619819D01*
X54926066Y-157619819D02*
X54926066Y-156953152D01*
X54926066Y-157143628D02*
X54973685Y-157048390D01*
X54973685Y-157048390D02*
X55021304Y-157000771D01*
X55021304Y-157000771D02*
X55116542Y-156953152D01*
X55116542Y-156953152D02*
X55211780Y-156953152D01*
X55449876Y-156953152D02*
X55687971Y-157619819D01*
X55926066Y-156953152D02*
X55687971Y-157619819D01*
X55687971Y-157619819D02*
X55592733Y-157857914D01*
X55592733Y-157857914D02*
X55545114Y-157905533D01*
X55545114Y-157905533D02*
X55449876Y-157953152D01*
X57068924Y-157619819D02*
X57068924Y-156619819D01*
X57068924Y-156619819D02*
X57402257Y-157334104D01*
X57402257Y-157334104D02*
X57735590Y-156619819D01*
X57735590Y-156619819D02*
X57735590Y-157619819D01*
X58354638Y-157619819D02*
X58259400Y-157572200D01*
X58259400Y-157572200D02*
X58211781Y-157524580D01*
X58211781Y-157524580D02*
X58164162Y-157429342D01*
X58164162Y-157429342D02*
X58164162Y-157143628D01*
X58164162Y-157143628D02*
X58211781Y-157048390D01*
X58211781Y-157048390D02*
X58259400Y-157000771D01*
X58259400Y-157000771D02*
X58354638Y-156953152D01*
X58354638Y-156953152D02*
X58497495Y-156953152D01*
X58497495Y-156953152D02*
X58592733Y-157000771D01*
X58592733Y-157000771D02*
X58640352Y-157048390D01*
X58640352Y-157048390D02*
X58687971Y-157143628D01*
X58687971Y-157143628D02*
X58687971Y-157429342D01*
X58687971Y-157429342D02*
X58640352Y-157524580D01*
X58640352Y-157524580D02*
X58592733Y-157572200D01*
X58592733Y-157572200D02*
X58497495Y-157619819D01*
X58497495Y-157619819D02*
X58354638Y-157619819D01*
X59545114Y-157619819D02*
X59545114Y-156619819D01*
X59545114Y-157572200D02*
X59449876Y-157619819D01*
X59449876Y-157619819D02*
X59259400Y-157619819D01*
X59259400Y-157619819D02*
X59164162Y-157572200D01*
X59164162Y-157572200D02*
X59116543Y-157524580D01*
X59116543Y-157524580D02*
X59068924Y-157429342D01*
X59068924Y-157429342D02*
X59068924Y-157143628D01*
X59068924Y-157143628D02*
X59116543Y-157048390D01*
X59116543Y-157048390D02*
X59164162Y-157000771D01*
X59164162Y-157000771D02*
X59259400Y-156953152D01*
X59259400Y-156953152D02*
X59449876Y-156953152D01*
X59449876Y-156953152D02*
X59545114Y-157000771D01*
X60449876Y-156953152D02*
X60449876Y-157619819D01*
X60021305Y-156953152D02*
X60021305Y-157476961D01*
X60021305Y-157476961D02*
X60068924Y-157572200D01*
X60068924Y-157572200D02*
X60164162Y-157619819D01*
X60164162Y-157619819D02*
X60307019Y-157619819D01*
X60307019Y-157619819D02*
X60402257Y-157572200D01*
X60402257Y-157572200D02*
X60449876Y-157524580D01*
X61068924Y-157619819D02*
X60973686Y-157572200D01*
X60973686Y-157572200D02*
X60926067Y-157476961D01*
X60926067Y-157476961D02*
X60926067Y-156619819D01*
X61830829Y-157572200D02*
X61735591Y-157619819D01*
X61735591Y-157619819D02*
X61545115Y-157619819D01*
X61545115Y-157619819D02*
X61449877Y-157572200D01*
X61449877Y-157572200D02*
X61402258Y-157476961D01*
X61402258Y-157476961D02*
X61402258Y-157096009D01*
X61402258Y-157096009D02*
X61449877Y-157000771D01*
X61449877Y-157000771D02*
X61545115Y-156953152D01*
X61545115Y-156953152D02*
X61735591Y-156953152D01*
X61735591Y-156953152D02*
X61830829Y-157000771D01*
X61830829Y-157000771D02*
X61878448Y-157096009D01*
X61878448Y-157096009D02*
X61878448Y-157191247D01*
X61878448Y-157191247D02*
X61402258Y-157286485D01*
X69422759Y-37113220D02*
X69422759Y-36779887D01*
X69946569Y-36637030D02*
X69946569Y-37113220D01*
X69946569Y-37113220D02*
X68946569Y-37113220D01*
X68946569Y-37113220D02*
X68946569Y-36637030D01*
X68946569Y-36303696D02*
X69946569Y-35637030D01*
X68946569Y-35637030D02*
X69946569Y-36303696D01*
X68946569Y-35398934D02*
X68946569Y-34827506D01*
X69946569Y-35113220D02*
X68946569Y-35113220D01*
X69946569Y-33732267D02*
X68946569Y-33732267D01*
X68946569Y-33732267D02*
X68946569Y-33351315D01*
X68946569Y-33351315D02*
X68994188Y-33256077D01*
X68994188Y-33256077D02*
X69041807Y-33208458D01*
X69041807Y-33208458D02*
X69137045Y-33160839D01*
X69137045Y-33160839D02*
X69279902Y-33160839D01*
X69279902Y-33160839D02*
X69375140Y-33208458D01*
X69375140Y-33208458D02*
X69422759Y-33256077D01*
X69422759Y-33256077D02*
X69470378Y-33351315D01*
X69470378Y-33351315D02*
X69470378Y-33732267D01*
X69946569Y-32589410D02*
X69898950Y-32684648D01*
X69898950Y-32684648D02*
X69851330Y-32732267D01*
X69851330Y-32732267D02*
X69756092Y-32779886D01*
X69756092Y-32779886D02*
X69470378Y-32779886D01*
X69470378Y-32779886D02*
X69375140Y-32732267D01*
X69375140Y-32732267D02*
X69327521Y-32684648D01*
X69327521Y-32684648D02*
X69279902Y-32589410D01*
X69279902Y-32589410D02*
X69279902Y-32446553D01*
X69279902Y-32446553D02*
X69327521Y-32351315D01*
X69327521Y-32351315D02*
X69375140Y-32303696D01*
X69375140Y-32303696D02*
X69470378Y-32256077D01*
X69470378Y-32256077D02*
X69756092Y-32256077D01*
X69756092Y-32256077D02*
X69851330Y-32303696D01*
X69851330Y-32303696D02*
X69898950Y-32351315D01*
X69898950Y-32351315D02*
X69946569Y-32446553D01*
X69946569Y-32446553D02*
X69946569Y-32589410D01*
X69279902Y-31922743D02*
X69946569Y-31732267D01*
X69946569Y-31732267D02*
X69470378Y-31541791D01*
X69470378Y-31541791D02*
X69946569Y-31351315D01*
X69946569Y-31351315D02*
X69279902Y-31160839D01*
X69898950Y-30398934D02*
X69946569Y-30494172D01*
X69946569Y-30494172D02*
X69946569Y-30684648D01*
X69946569Y-30684648D02*
X69898950Y-30779886D01*
X69898950Y-30779886D02*
X69803711Y-30827505D01*
X69803711Y-30827505D02*
X69422759Y-30827505D01*
X69422759Y-30827505D02*
X69327521Y-30779886D01*
X69327521Y-30779886D02*
X69279902Y-30684648D01*
X69279902Y-30684648D02*
X69279902Y-30494172D01*
X69279902Y-30494172D02*
X69327521Y-30398934D01*
X69327521Y-30398934D02*
X69422759Y-30351315D01*
X69422759Y-30351315D02*
X69517997Y-30351315D01*
X69517997Y-30351315D02*
X69613235Y-30827505D01*
X69946569Y-29922743D02*
X69279902Y-29922743D01*
X69470378Y-29922743D02*
X69375140Y-29875124D01*
X69375140Y-29875124D02*
X69327521Y-29827505D01*
X69327521Y-29827505D02*
X69279902Y-29732267D01*
X69279902Y-29732267D02*
X69279902Y-29637029D01*
X71032017Y-112273950D02*
X71174874Y-112321569D01*
X71174874Y-112321569D02*
X71412969Y-112321569D01*
X71412969Y-112321569D02*
X71508207Y-112273950D01*
X71508207Y-112273950D02*
X71555826Y-112226330D01*
X71555826Y-112226330D02*
X71603445Y-112131092D01*
X71603445Y-112131092D02*
X71603445Y-112035854D01*
X71603445Y-112035854D02*
X71555826Y-111940616D01*
X71555826Y-111940616D02*
X71508207Y-111892997D01*
X71508207Y-111892997D02*
X71412969Y-111845378D01*
X71412969Y-111845378D02*
X71222493Y-111797759D01*
X71222493Y-111797759D02*
X71127255Y-111750140D01*
X71127255Y-111750140D02*
X71079636Y-111702521D01*
X71079636Y-111702521D02*
X71032017Y-111607283D01*
X71032017Y-111607283D02*
X71032017Y-111512045D01*
X71032017Y-111512045D02*
X71079636Y-111416807D01*
X71079636Y-111416807D02*
X71127255Y-111369188D01*
X71127255Y-111369188D02*
X71222493Y-111321569D01*
X71222493Y-111321569D02*
X71460588Y-111321569D01*
X71460588Y-111321569D02*
X71603445Y-111369188D01*
X71936779Y-111321569D02*
X72174874Y-112321569D01*
X72174874Y-112321569D02*
X72365350Y-111607283D01*
X72365350Y-111607283D02*
X72555826Y-112321569D01*
X72555826Y-112321569D02*
X72793922Y-111321569D01*
X73746302Y-112226330D02*
X73698683Y-112273950D01*
X73698683Y-112273950D02*
X73555826Y-112321569D01*
X73555826Y-112321569D02*
X73460588Y-112321569D01*
X73460588Y-112321569D02*
X73317731Y-112273950D01*
X73317731Y-112273950D02*
X73222493Y-112178711D01*
X73222493Y-112178711D02*
X73174874Y-112083473D01*
X73174874Y-112083473D02*
X73127255Y-111892997D01*
X73127255Y-111892997D02*
X73127255Y-111750140D01*
X73127255Y-111750140D02*
X73174874Y-111559664D01*
X73174874Y-111559664D02*
X73222493Y-111464426D01*
X73222493Y-111464426D02*
X73317731Y-111369188D01*
X73317731Y-111369188D02*
X73460588Y-111321569D01*
X73460588Y-111321569D02*
X73555826Y-111321569D01*
X73555826Y-111321569D02*
X73698683Y-111369188D01*
X73698683Y-111369188D02*
X73746302Y-111416807D01*
X74651064Y-112321569D02*
X74174874Y-112321569D01*
X74174874Y-112321569D02*
X74174874Y-111321569D01*
X74984398Y-112321569D02*
X74984398Y-111321569D01*
X75555826Y-112321569D02*
X75127255Y-111750140D01*
X75555826Y-111321569D02*
X74984398Y-111892997D01*
X76286779Y-134294819D02*
X76858207Y-134294819D01*
X76572493Y-135294819D02*
X76572493Y-134294819D01*
X77096303Y-134294819D02*
X77762969Y-135294819D01*
X77762969Y-134294819D02*
X77096303Y-135294819D01*
X76882017Y-133694819D02*
X76548684Y-133218628D01*
X76310589Y-133694819D02*
X76310589Y-132694819D01*
X76310589Y-132694819D02*
X76691541Y-132694819D01*
X76691541Y-132694819D02*
X76786779Y-132742438D01*
X76786779Y-132742438D02*
X76834398Y-132790057D01*
X76834398Y-132790057D02*
X76882017Y-132885295D01*
X76882017Y-132885295D02*
X76882017Y-133028152D01*
X76882017Y-133028152D02*
X76834398Y-133123390D01*
X76834398Y-133123390D02*
X76786779Y-133171009D01*
X76786779Y-133171009D02*
X76691541Y-133218628D01*
X76691541Y-133218628D02*
X76310589Y-133218628D01*
X77215351Y-132694819D02*
X77882017Y-133694819D01*
X77882017Y-132694819D02*
X77215351Y-133694819D01*
X64422759Y-36779887D02*
X64470378Y-36637030D01*
X64470378Y-36637030D02*
X64517997Y-36589411D01*
X64517997Y-36589411D02*
X64613235Y-36541792D01*
X64613235Y-36541792D02*
X64756092Y-36541792D01*
X64756092Y-36541792D02*
X64851330Y-36589411D01*
X64851330Y-36589411D02*
X64898950Y-36637030D01*
X64898950Y-36637030D02*
X64946569Y-36732268D01*
X64946569Y-36732268D02*
X64946569Y-37113220D01*
X64946569Y-37113220D02*
X63946569Y-37113220D01*
X63946569Y-37113220D02*
X63946569Y-36779887D01*
X63946569Y-36779887D02*
X63994188Y-36684649D01*
X63994188Y-36684649D02*
X64041807Y-36637030D01*
X64041807Y-36637030D02*
X64137045Y-36589411D01*
X64137045Y-36589411D02*
X64232283Y-36589411D01*
X64232283Y-36589411D02*
X64327521Y-36637030D01*
X64327521Y-36637030D02*
X64375140Y-36684649D01*
X64375140Y-36684649D02*
X64422759Y-36779887D01*
X64422759Y-36779887D02*
X64422759Y-37113220D01*
X64660854Y-36160839D02*
X64660854Y-35684649D01*
X64946569Y-36256077D02*
X63946569Y-35922744D01*
X63946569Y-35922744D02*
X64946569Y-35589411D01*
X63946569Y-35398934D02*
X63946569Y-34827506D01*
X64946569Y-35113220D02*
X63946569Y-35113220D01*
X64946569Y-33732267D02*
X63946569Y-33732267D01*
X63946569Y-33732267D02*
X63946569Y-33351315D01*
X63946569Y-33351315D02*
X63994188Y-33256077D01*
X63994188Y-33256077D02*
X64041807Y-33208458D01*
X64041807Y-33208458D02*
X64137045Y-33160839D01*
X64137045Y-33160839D02*
X64279902Y-33160839D01*
X64279902Y-33160839D02*
X64375140Y-33208458D01*
X64375140Y-33208458D02*
X64422759Y-33256077D01*
X64422759Y-33256077D02*
X64470378Y-33351315D01*
X64470378Y-33351315D02*
X64470378Y-33732267D01*
X64946569Y-32589410D02*
X64898950Y-32684648D01*
X64898950Y-32684648D02*
X64851330Y-32732267D01*
X64851330Y-32732267D02*
X64756092Y-32779886D01*
X64756092Y-32779886D02*
X64470378Y-32779886D01*
X64470378Y-32779886D02*
X64375140Y-32732267D01*
X64375140Y-32732267D02*
X64327521Y-32684648D01*
X64327521Y-32684648D02*
X64279902Y-32589410D01*
X64279902Y-32589410D02*
X64279902Y-32446553D01*
X64279902Y-32446553D02*
X64327521Y-32351315D01*
X64327521Y-32351315D02*
X64375140Y-32303696D01*
X64375140Y-32303696D02*
X64470378Y-32256077D01*
X64470378Y-32256077D02*
X64756092Y-32256077D01*
X64756092Y-32256077D02*
X64851330Y-32303696D01*
X64851330Y-32303696D02*
X64898950Y-32351315D01*
X64898950Y-32351315D02*
X64946569Y-32446553D01*
X64946569Y-32446553D02*
X64946569Y-32589410D01*
X64279902Y-31922743D02*
X64946569Y-31732267D01*
X64946569Y-31732267D02*
X64470378Y-31541791D01*
X64470378Y-31541791D02*
X64946569Y-31351315D01*
X64946569Y-31351315D02*
X64279902Y-31160839D01*
X64898950Y-30398934D02*
X64946569Y-30494172D01*
X64946569Y-30494172D02*
X64946569Y-30684648D01*
X64946569Y-30684648D02*
X64898950Y-30779886D01*
X64898950Y-30779886D02*
X64803711Y-30827505D01*
X64803711Y-30827505D02*
X64422759Y-30827505D01*
X64422759Y-30827505D02*
X64327521Y-30779886D01*
X64327521Y-30779886D02*
X64279902Y-30684648D01*
X64279902Y-30684648D02*
X64279902Y-30494172D01*
X64279902Y-30494172D02*
X64327521Y-30398934D01*
X64327521Y-30398934D02*
X64422759Y-30351315D01*
X64422759Y-30351315D02*
X64517997Y-30351315D01*
X64517997Y-30351315D02*
X64613235Y-30827505D01*
X64946569Y-29922743D02*
X64279902Y-29922743D01*
X64470378Y-29922743D02*
X64375140Y-29875124D01*
X64375140Y-29875124D02*
X64327521Y-29827505D01*
X64327521Y-29827505D02*
X64279902Y-29732267D01*
X64279902Y-29732267D02*
X64279902Y-29637029D01*
X73468922Y-44111569D02*
X73802255Y-45111569D01*
X73802255Y-45111569D02*
X74135588Y-44111569D01*
X74945112Y-44111569D02*
X74468922Y-44111569D01*
X74468922Y-44111569D02*
X74421303Y-44587759D01*
X74421303Y-44587759D02*
X74468922Y-44540140D01*
X74468922Y-44540140D02*
X74564160Y-44492521D01*
X74564160Y-44492521D02*
X74802255Y-44492521D01*
X74802255Y-44492521D02*
X74897493Y-44540140D01*
X74897493Y-44540140D02*
X74945112Y-44587759D01*
X74945112Y-44587759D02*
X74992731Y-44682997D01*
X74992731Y-44682997D02*
X74992731Y-44921092D01*
X74992731Y-44921092D02*
X74945112Y-45016330D01*
X74945112Y-45016330D02*
X74897493Y-45063950D01*
X74897493Y-45063950D02*
X74802255Y-45111569D01*
X74802255Y-45111569D02*
X74564160Y-45111569D01*
X74564160Y-45111569D02*
X74468922Y-45063950D01*
X74468922Y-45063950D02*
X74421303Y-45016330D01*
X72050771Y-36827506D02*
X72003152Y-36875125D01*
X72003152Y-36875125D02*
X71860295Y-36970363D01*
X71860295Y-36970363D02*
X71765057Y-37017982D01*
X71765057Y-37017982D02*
X71622200Y-37065601D01*
X71622200Y-37065601D02*
X71384104Y-37113220D01*
X71384104Y-37113220D02*
X71193628Y-37113220D01*
X71193628Y-37113220D02*
X70955533Y-37065601D01*
X70955533Y-37065601D02*
X70812676Y-37017982D01*
X70812676Y-37017982D02*
X70717438Y-36970363D01*
X70717438Y-36970363D02*
X70574580Y-36875125D01*
X70574580Y-36875125D02*
X70526961Y-36827506D01*
X70669819Y-36589410D02*
X71669819Y-36256077D01*
X71669819Y-36256077D02*
X70669819Y-35922744D01*
X70669819Y-35684648D02*
X70669819Y-35065601D01*
X70669819Y-35065601D02*
X71050771Y-35398934D01*
X71050771Y-35398934D02*
X71050771Y-35256077D01*
X71050771Y-35256077D02*
X71098390Y-35160839D01*
X71098390Y-35160839D02*
X71146009Y-35113220D01*
X71146009Y-35113220D02*
X71241247Y-35065601D01*
X71241247Y-35065601D02*
X71479342Y-35065601D01*
X71479342Y-35065601D02*
X71574580Y-35113220D01*
X71574580Y-35113220D02*
X71622200Y-35160839D01*
X71622200Y-35160839D02*
X71669819Y-35256077D01*
X71669819Y-35256077D02*
X71669819Y-35541791D01*
X71669819Y-35541791D02*
X71622200Y-35637029D01*
X71622200Y-35637029D02*
X71574580Y-35684648D01*
X71765057Y-34875125D02*
X71765057Y-34113220D01*
X71146009Y-33875124D02*
X71146009Y-33541791D01*
X71669819Y-33398934D02*
X71669819Y-33875124D01*
X71669819Y-33875124D02*
X70669819Y-33875124D01*
X70669819Y-33875124D02*
X70669819Y-33398934D01*
X70669819Y-33065600D02*
X71669819Y-32398934D01*
X70669819Y-32398934D02*
X71669819Y-33065600D01*
X70669819Y-32160838D02*
X70669819Y-31589410D01*
X71669819Y-31875124D02*
X70669819Y-31875124D01*
X72050771Y-31351314D02*
X72003152Y-31303695D01*
X72003152Y-31303695D02*
X71860295Y-31208457D01*
X71860295Y-31208457D02*
X71765057Y-31160838D01*
X71765057Y-31160838D02*
X71622200Y-31113219D01*
X71622200Y-31113219D02*
X71384104Y-31065600D01*
X71384104Y-31065600D02*
X71193628Y-31065600D01*
X71193628Y-31065600D02*
X70955533Y-31113219D01*
X70955533Y-31113219D02*
X70812676Y-31160838D01*
X70812676Y-31160838D02*
X70717438Y-31208457D01*
X70717438Y-31208457D02*
X70574580Y-31303695D01*
X70574580Y-31303695D02*
X70526961Y-31351314D01*
X70009397Y-46869819D02*
X70009397Y-45869819D01*
X70485587Y-46203152D02*
X70485587Y-46869819D01*
X70485587Y-46298390D02*
X70533206Y-46250771D01*
X70533206Y-46250771D02*
X70628444Y-46203152D01*
X70628444Y-46203152D02*
X70771301Y-46203152D01*
X70771301Y-46203152D02*
X70866539Y-46250771D01*
X70866539Y-46250771D02*
X70914158Y-46346009D01*
X70914158Y-46346009D02*
X70914158Y-46869819D01*
X71390349Y-46203152D02*
X71390349Y-47203152D01*
X71390349Y-46250771D02*
X71485587Y-46203152D01*
X71485587Y-46203152D02*
X71676063Y-46203152D01*
X71676063Y-46203152D02*
X71771301Y-46250771D01*
X71771301Y-46250771D02*
X71818920Y-46298390D01*
X71818920Y-46298390D02*
X71866539Y-46393628D01*
X71866539Y-46393628D02*
X71866539Y-46679342D01*
X71866539Y-46679342D02*
X71818920Y-46774580D01*
X71818920Y-46774580D02*
X71771301Y-46822200D01*
X71771301Y-46822200D02*
X71676063Y-46869819D01*
X71676063Y-46869819D02*
X71485587Y-46869819D01*
X71485587Y-46869819D02*
X71390349Y-46822200D01*
X72723682Y-46203152D02*
X72723682Y-46869819D01*
X72295111Y-46203152D02*
X72295111Y-46726961D01*
X72295111Y-46726961D02*
X72342730Y-46822200D01*
X72342730Y-46822200D02*
X72437968Y-46869819D01*
X72437968Y-46869819D02*
X72580825Y-46869819D01*
X72580825Y-46869819D02*
X72676063Y-46822200D01*
X72676063Y-46822200D02*
X72723682Y-46774580D01*
X73057016Y-46203152D02*
X73437968Y-46203152D01*
X73199873Y-45869819D02*
X73199873Y-46726961D01*
X73199873Y-46726961D02*
X73247492Y-46822200D01*
X73247492Y-46822200D02*
X73342730Y-46869819D01*
X73342730Y-46869819D02*
X73437968Y-46869819D01*
X74533207Y-46869819D02*
X74533207Y-45869819D01*
X74533207Y-45869819D02*
X74914159Y-45869819D01*
X74914159Y-45869819D02*
X75009397Y-45917438D01*
X75009397Y-45917438D02*
X75057016Y-45965057D01*
X75057016Y-45965057D02*
X75104635Y-46060295D01*
X75104635Y-46060295D02*
X75104635Y-46203152D01*
X75104635Y-46203152D02*
X75057016Y-46298390D01*
X75057016Y-46298390D02*
X75009397Y-46346009D01*
X75009397Y-46346009D02*
X74914159Y-46393628D01*
X74914159Y-46393628D02*
X74533207Y-46393628D01*
X75676064Y-46869819D02*
X75580826Y-46822200D01*
X75580826Y-46822200D02*
X75533207Y-46774580D01*
X75533207Y-46774580D02*
X75485588Y-46679342D01*
X75485588Y-46679342D02*
X75485588Y-46393628D01*
X75485588Y-46393628D02*
X75533207Y-46298390D01*
X75533207Y-46298390D02*
X75580826Y-46250771D01*
X75580826Y-46250771D02*
X75676064Y-46203152D01*
X75676064Y-46203152D02*
X75818921Y-46203152D01*
X75818921Y-46203152D02*
X75914159Y-46250771D01*
X75914159Y-46250771D02*
X75961778Y-46298390D01*
X75961778Y-46298390D02*
X76009397Y-46393628D01*
X76009397Y-46393628D02*
X76009397Y-46679342D01*
X76009397Y-46679342D02*
X75961778Y-46774580D01*
X75961778Y-46774580D02*
X75914159Y-46822200D01*
X75914159Y-46822200D02*
X75818921Y-46869819D01*
X75818921Y-46869819D02*
X75676064Y-46869819D01*
X76342731Y-46203152D02*
X76533207Y-46869819D01*
X76533207Y-46869819D02*
X76723683Y-46393628D01*
X76723683Y-46393628D02*
X76914159Y-46869819D01*
X76914159Y-46869819D02*
X77104635Y-46203152D01*
X77866540Y-46822200D02*
X77771302Y-46869819D01*
X77771302Y-46869819D02*
X77580826Y-46869819D01*
X77580826Y-46869819D02*
X77485588Y-46822200D01*
X77485588Y-46822200D02*
X77437969Y-46726961D01*
X77437969Y-46726961D02*
X77437969Y-46346009D01*
X77437969Y-46346009D02*
X77485588Y-46250771D01*
X77485588Y-46250771D02*
X77580826Y-46203152D01*
X77580826Y-46203152D02*
X77771302Y-46203152D01*
X77771302Y-46203152D02*
X77866540Y-46250771D01*
X77866540Y-46250771D02*
X77914159Y-46346009D01*
X77914159Y-46346009D02*
X77914159Y-46441247D01*
X77914159Y-46441247D02*
X77437969Y-46536485D01*
X78342731Y-46869819D02*
X78342731Y-46203152D01*
X78342731Y-46393628D02*
X78390350Y-46298390D01*
X78390350Y-46298390D02*
X78437969Y-46250771D01*
X78437969Y-46250771D02*
X78533207Y-46203152D01*
X78533207Y-46203152D02*
X78628445Y-46203152D01*
X73741541Y-144121009D02*
X73884398Y-144168628D01*
X73884398Y-144168628D02*
X73932017Y-144216247D01*
X73932017Y-144216247D02*
X73979636Y-144311485D01*
X73979636Y-144311485D02*
X73979636Y-144454342D01*
X73979636Y-144454342D02*
X73932017Y-144549580D01*
X73932017Y-144549580D02*
X73884398Y-144597200D01*
X73884398Y-144597200D02*
X73789160Y-144644819D01*
X73789160Y-144644819D02*
X73408208Y-144644819D01*
X73408208Y-144644819D02*
X73408208Y-143644819D01*
X73408208Y-143644819D02*
X73741541Y-143644819D01*
X73741541Y-143644819D02*
X73836779Y-143692438D01*
X73836779Y-143692438D02*
X73884398Y-143740057D01*
X73884398Y-143740057D02*
X73932017Y-143835295D01*
X73932017Y-143835295D02*
X73932017Y-143930533D01*
X73932017Y-143930533D02*
X73884398Y-144025771D01*
X73884398Y-144025771D02*
X73836779Y-144073390D01*
X73836779Y-144073390D02*
X73741541Y-144121009D01*
X73741541Y-144121009D02*
X73408208Y-144121009D01*
X74598684Y-143644819D02*
X74789160Y-143644819D01*
X74789160Y-143644819D02*
X74884398Y-143692438D01*
X74884398Y-143692438D02*
X74979636Y-143787676D01*
X74979636Y-143787676D02*
X75027255Y-143978152D01*
X75027255Y-143978152D02*
X75027255Y-144311485D01*
X75027255Y-144311485D02*
X74979636Y-144501961D01*
X74979636Y-144501961D02*
X74884398Y-144597200D01*
X74884398Y-144597200D02*
X74789160Y-144644819D01*
X74789160Y-144644819D02*
X74598684Y-144644819D01*
X74598684Y-144644819D02*
X74503446Y-144597200D01*
X74503446Y-144597200D02*
X74408208Y-144501961D01*
X74408208Y-144501961D02*
X74360589Y-144311485D01*
X74360589Y-144311485D02*
X74360589Y-143978152D01*
X74360589Y-143978152D02*
X74408208Y-143787676D01*
X74408208Y-143787676D02*
X74503446Y-143692438D01*
X74503446Y-143692438D02*
X74598684Y-143644819D01*
X75646303Y-143644819D02*
X75836779Y-143644819D01*
X75836779Y-143644819D02*
X75932017Y-143692438D01*
X75932017Y-143692438D02*
X76027255Y-143787676D01*
X76027255Y-143787676D02*
X76074874Y-143978152D01*
X76074874Y-143978152D02*
X76074874Y-144311485D01*
X76074874Y-144311485D02*
X76027255Y-144501961D01*
X76027255Y-144501961D02*
X75932017Y-144597200D01*
X75932017Y-144597200D02*
X75836779Y-144644819D01*
X75836779Y-144644819D02*
X75646303Y-144644819D01*
X75646303Y-144644819D02*
X75551065Y-144597200D01*
X75551065Y-144597200D02*
X75455827Y-144501961D01*
X75455827Y-144501961D02*
X75408208Y-144311485D01*
X75408208Y-144311485D02*
X75408208Y-143978152D01*
X75408208Y-143978152D02*
X75455827Y-143787676D01*
X75455827Y-143787676D02*
X75551065Y-143692438D01*
X75551065Y-143692438D02*
X75646303Y-143644819D01*
X76360589Y-143644819D02*
X76932017Y-143644819D01*
X76646303Y-144644819D02*
X76646303Y-143644819D01*
X76501064Y-131999580D02*
X76453445Y-132047200D01*
X76453445Y-132047200D02*
X76310588Y-132094819D01*
X76310588Y-132094819D02*
X76215350Y-132094819D01*
X76215350Y-132094819D02*
X76072493Y-132047200D01*
X76072493Y-132047200D02*
X75977255Y-131951961D01*
X75977255Y-131951961D02*
X75929636Y-131856723D01*
X75929636Y-131856723D02*
X75882017Y-131666247D01*
X75882017Y-131666247D02*
X75882017Y-131523390D01*
X75882017Y-131523390D02*
X75929636Y-131332914D01*
X75929636Y-131332914D02*
X75977255Y-131237676D01*
X75977255Y-131237676D02*
X76072493Y-131142438D01*
X76072493Y-131142438D02*
X76215350Y-131094819D01*
X76215350Y-131094819D02*
X76310588Y-131094819D01*
X76310588Y-131094819D02*
X76453445Y-131142438D01*
X76453445Y-131142438D02*
X76501064Y-131190057D01*
X76786779Y-131094819D02*
X77358207Y-131094819D01*
X77072493Y-132094819D02*
X77072493Y-131094819D01*
X77643922Y-132047200D02*
X77786779Y-132094819D01*
X77786779Y-132094819D02*
X78024874Y-132094819D01*
X78024874Y-132094819D02*
X78120112Y-132047200D01*
X78120112Y-132047200D02*
X78167731Y-131999580D01*
X78167731Y-131999580D02*
X78215350Y-131904342D01*
X78215350Y-131904342D02*
X78215350Y-131809104D01*
X78215350Y-131809104D02*
X78167731Y-131713866D01*
X78167731Y-131713866D02*
X78120112Y-131666247D01*
X78120112Y-131666247D02*
X78024874Y-131618628D01*
X78024874Y-131618628D02*
X77834398Y-131571009D01*
X77834398Y-131571009D02*
X77739160Y-131523390D01*
X77739160Y-131523390D02*
X77691541Y-131475771D01*
X77691541Y-131475771D02*
X77643922Y-131380533D01*
X77643922Y-131380533D02*
X77643922Y-131285295D01*
X77643922Y-131285295D02*
X77691541Y-131190057D01*
X77691541Y-131190057D02*
X77739160Y-131142438D01*
X77739160Y-131142438D02*
X77834398Y-131094819D01*
X77834398Y-131094819D02*
X78072493Y-131094819D01*
X78072493Y-131094819D02*
X78215350Y-131142438D01*
X73646302Y-137294819D02*
X73312969Y-136818628D01*
X73074874Y-137294819D02*
X73074874Y-136294819D01*
X73074874Y-136294819D02*
X73455826Y-136294819D01*
X73455826Y-136294819D02*
X73551064Y-136342438D01*
X73551064Y-136342438D02*
X73598683Y-136390057D01*
X73598683Y-136390057D02*
X73646302Y-136485295D01*
X73646302Y-136485295D02*
X73646302Y-136628152D01*
X73646302Y-136628152D02*
X73598683Y-136723390D01*
X73598683Y-136723390D02*
X73551064Y-136771009D01*
X73551064Y-136771009D02*
X73455826Y-136818628D01*
X73455826Y-136818628D02*
X73074874Y-136818628D01*
X74074874Y-136771009D02*
X74408207Y-136771009D01*
X74551064Y-137294819D02*
X74074874Y-137294819D01*
X74074874Y-137294819D02*
X74074874Y-136294819D01*
X74074874Y-136294819D02*
X74551064Y-136294819D01*
X74932017Y-137247200D02*
X75074874Y-137294819D01*
X75074874Y-137294819D02*
X75312969Y-137294819D01*
X75312969Y-137294819D02*
X75408207Y-137247200D01*
X75408207Y-137247200D02*
X75455826Y-137199580D01*
X75455826Y-137199580D02*
X75503445Y-137104342D01*
X75503445Y-137104342D02*
X75503445Y-137009104D01*
X75503445Y-137009104D02*
X75455826Y-136913866D01*
X75455826Y-136913866D02*
X75408207Y-136866247D01*
X75408207Y-136866247D02*
X75312969Y-136818628D01*
X75312969Y-136818628D02*
X75122493Y-136771009D01*
X75122493Y-136771009D02*
X75027255Y-136723390D01*
X75027255Y-136723390D02*
X74979636Y-136675771D01*
X74979636Y-136675771D02*
X74932017Y-136580533D01*
X74932017Y-136580533D02*
X74932017Y-136485295D01*
X74932017Y-136485295D02*
X74979636Y-136390057D01*
X74979636Y-136390057D02*
X75027255Y-136342438D01*
X75027255Y-136342438D02*
X75122493Y-136294819D01*
X75122493Y-136294819D02*
X75360588Y-136294819D01*
X75360588Y-136294819D02*
X75503445Y-136342438D01*
X75932017Y-136771009D02*
X76265350Y-136771009D01*
X76408207Y-137294819D02*
X75932017Y-137294819D01*
X75932017Y-137294819D02*
X75932017Y-136294819D01*
X75932017Y-136294819D02*
X76408207Y-136294819D01*
X76693922Y-136294819D02*
X77265350Y-136294819D01*
X76979636Y-137294819D02*
X76979636Y-136294819D01*
X73460588Y-108829188D02*
X73365350Y-108781569D01*
X73365350Y-108781569D02*
X73222493Y-108781569D01*
X73222493Y-108781569D02*
X73079636Y-108829188D01*
X73079636Y-108829188D02*
X72984398Y-108924426D01*
X72984398Y-108924426D02*
X72936779Y-109019664D01*
X72936779Y-109019664D02*
X72889160Y-109210140D01*
X72889160Y-109210140D02*
X72889160Y-109352997D01*
X72889160Y-109352997D02*
X72936779Y-109543473D01*
X72936779Y-109543473D02*
X72984398Y-109638711D01*
X72984398Y-109638711D02*
X73079636Y-109733950D01*
X73079636Y-109733950D02*
X73222493Y-109781569D01*
X73222493Y-109781569D02*
X73317731Y-109781569D01*
X73317731Y-109781569D02*
X73460588Y-109733950D01*
X73460588Y-109733950D02*
X73508207Y-109686330D01*
X73508207Y-109686330D02*
X73508207Y-109352997D01*
X73508207Y-109352997D02*
X73317731Y-109352997D01*
X73936779Y-109781569D02*
X73936779Y-108781569D01*
X73936779Y-108781569D02*
X74508207Y-109781569D01*
X74508207Y-109781569D02*
X74508207Y-108781569D01*
X74984398Y-109781569D02*
X74984398Y-108781569D01*
X74984398Y-108781569D02*
X75222493Y-108781569D01*
X75222493Y-108781569D02*
X75365350Y-108829188D01*
X75365350Y-108829188D02*
X75460588Y-108924426D01*
X75460588Y-108924426D02*
X75508207Y-109019664D01*
X75508207Y-109019664D02*
X75555826Y-109210140D01*
X75555826Y-109210140D02*
X75555826Y-109352997D01*
X75555826Y-109352997D02*
X75508207Y-109543473D01*
X75508207Y-109543473D02*
X75460588Y-109638711D01*
X75460588Y-109638711D02*
X75365350Y-109733950D01*
X75365350Y-109733950D02*
X75222493Y-109781569D01*
X75222493Y-109781569D02*
X74984398Y-109781569D01*
X76501064Y-130494819D02*
X76167731Y-130018628D01*
X75929636Y-130494819D02*
X75929636Y-129494819D01*
X75929636Y-129494819D02*
X76310588Y-129494819D01*
X76310588Y-129494819D02*
X76405826Y-129542438D01*
X76405826Y-129542438D02*
X76453445Y-129590057D01*
X76453445Y-129590057D02*
X76501064Y-129685295D01*
X76501064Y-129685295D02*
X76501064Y-129828152D01*
X76501064Y-129828152D02*
X76453445Y-129923390D01*
X76453445Y-129923390D02*
X76405826Y-129971009D01*
X76405826Y-129971009D02*
X76310588Y-130018628D01*
X76310588Y-130018628D02*
X75929636Y-130018628D01*
X76786779Y-129494819D02*
X77358207Y-129494819D01*
X77072493Y-130494819D02*
X77072493Y-129494819D01*
X77643922Y-130447200D02*
X77786779Y-130494819D01*
X77786779Y-130494819D02*
X78024874Y-130494819D01*
X78024874Y-130494819D02*
X78120112Y-130447200D01*
X78120112Y-130447200D02*
X78167731Y-130399580D01*
X78167731Y-130399580D02*
X78215350Y-130304342D01*
X78215350Y-130304342D02*
X78215350Y-130209104D01*
X78215350Y-130209104D02*
X78167731Y-130113866D01*
X78167731Y-130113866D02*
X78120112Y-130066247D01*
X78120112Y-130066247D02*
X78024874Y-130018628D01*
X78024874Y-130018628D02*
X77834398Y-129971009D01*
X77834398Y-129971009D02*
X77739160Y-129923390D01*
X77739160Y-129923390D02*
X77691541Y-129875771D01*
X77691541Y-129875771D02*
X77643922Y-129780533D01*
X77643922Y-129780533D02*
X77643922Y-129685295D01*
X77643922Y-129685295D02*
X77691541Y-129590057D01*
X77691541Y-129590057D02*
X77739160Y-129542438D01*
X77739160Y-129542438D02*
X77834398Y-129494819D01*
X77834398Y-129494819D02*
X78072493Y-129494819D01*
X78072493Y-129494819D02*
X78215350Y-129542438D01*
X72841541Y-107193950D02*
X72984398Y-107241569D01*
X72984398Y-107241569D02*
X73222493Y-107241569D01*
X73222493Y-107241569D02*
X73317731Y-107193950D01*
X73317731Y-107193950D02*
X73365350Y-107146330D01*
X73365350Y-107146330D02*
X73412969Y-107051092D01*
X73412969Y-107051092D02*
X73412969Y-106955854D01*
X73412969Y-106955854D02*
X73365350Y-106860616D01*
X73365350Y-106860616D02*
X73317731Y-106812997D01*
X73317731Y-106812997D02*
X73222493Y-106765378D01*
X73222493Y-106765378D02*
X73032017Y-106717759D01*
X73032017Y-106717759D02*
X72936779Y-106670140D01*
X72936779Y-106670140D02*
X72889160Y-106622521D01*
X72889160Y-106622521D02*
X72841541Y-106527283D01*
X72841541Y-106527283D02*
X72841541Y-106432045D01*
X72841541Y-106432045D02*
X72889160Y-106336807D01*
X72889160Y-106336807D02*
X72936779Y-106289188D01*
X72936779Y-106289188D02*
X73032017Y-106241569D01*
X73032017Y-106241569D02*
X73270112Y-106241569D01*
X73270112Y-106241569D02*
X73412969Y-106289188D01*
X73746303Y-106241569D02*
X73984398Y-107241569D01*
X73984398Y-107241569D02*
X74174874Y-106527283D01*
X74174874Y-106527283D02*
X74365350Y-107241569D01*
X74365350Y-107241569D02*
X74603446Y-106241569D01*
X74984398Y-107241569D02*
X74984398Y-106241569D01*
X74984398Y-106241569D02*
X75222493Y-106241569D01*
X75222493Y-106241569D02*
X75365350Y-106289188D01*
X75365350Y-106289188D02*
X75460588Y-106384426D01*
X75460588Y-106384426D02*
X75508207Y-106479664D01*
X75508207Y-106479664D02*
X75555826Y-106670140D01*
X75555826Y-106670140D02*
X75555826Y-106812997D01*
X75555826Y-106812997D02*
X75508207Y-107003473D01*
X75508207Y-107003473D02*
X75460588Y-107098711D01*
X75460588Y-107098711D02*
X75365350Y-107193950D01*
X75365350Y-107193950D02*
X75222493Y-107241569D01*
X75222493Y-107241569D02*
X74984398Y-107241569D01*
D11*
%TO.C,C50*%
X58965000Y-67201248D02*
X58965000Y-67723752D01*
X60435000Y-67201248D02*
X60435000Y-67723752D01*
%TO.C,C21*%
X47051248Y-114265000D02*
X47573752Y-114265000D01*
X47051248Y-115735000D02*
X47573752Y-115735000D01*
%TO.C,U2*%
X61065000Y-57890000D02*
X62325000Y-57890000D01*
X61065000Y-61650000D02*
X61065000Y-57890000D01*
X67885000Y-57890000D02*
X66625000Y-57890000D01*
X67885000Y-61650000D02*
X67885000Y-57890000D01*
X61165000Y-62930000D02*
X60835000Y-63170000D01*
X60835000Y-62690000D01*
X61165000Y-62930000D01*
G36*
X61165000Y-62930000D02*
G01*
X60835000Y-63170000D01*
X60835000Y-62690000D01*
X61165000Y-62930000D01*
G37*
%TO.C,R6*%
X42772936Y-51765000D02*
X43227064Y-51765000D01*
X42772936Y-53235000D02*
X43227064Y-53235000D01*
%TO.C,C9*%
X47051248Y-71765000D02*
X47573752Y-71765000D01*
X47051248Y-73235000D02*
X47573752Y-73235000D01*
%TO.C,R43*%
X69902064Y-135940000D02*
X69447936Y-135940000D01*
X69902064Y-137410000D02*
X69447936Y-137410000D01*
%TO.C,TP6*%
X69440000Y-28300000D02*
G75*
G02*
X67540000Y-28300000I-950000J0D01*
G01*
X67540000Y-28300000D02*
G75*
G02*
X69440000Y-28300000I950000J0D01*
G01*
%TO.C,R15*%
X42772936Y-99265000D02*
X43227064Y-99265000D01*
X42772936Y-100735000D02*
X43227064Y-100735000D01*
%TO.C,TP3*%
X59855000Y-28300000D02*
G75*
G02*
X57955000Y-28300000I-950000J0D01*
G01*
X57955000Y-28300000D02*
G75*
G02*
X59855000Y-28300000I950000J0D01*
G01*
%TO.C,R47*%
X64652064Y-71915000D02*
X64197936Y-71915000D01*
X64652064Y-73385000D02*
X64197936Y-73385000D01*
%TO.C,U4*%
X58187500Y-88465000D02*
X55987500Y-88465000D01*
X58187500Y-88465000D02*
X60387500Y-88465000D01*
X58187500Y-96535000D02*
X55987500Y-96535000D01*
X58187500Y-96535000D02*
X60387500Y-96535000D01*
X54327500Y-88925000D02*
X53997500Y-89165000D01*
X53997500Y-88685000D01*
X54327500Y-88925000D01*
G36*
X54327500Y-88925000D02*
G01*
X53997500Y-89165000D01*
X53997500Y-88685000D01*
X54327500Y-88925000D01*
G37*
%TO.C,U3*%
X68287500Y-129535000D02*
X68287500Y-129795000D01*
X68287500Y-134985000D02*
X68287500Y-134725000D01*
X71012500Y-129535000D02*
X68287500Y-129535000D01*
X71012500Y-129535000D02*
X73737500Y-129535000D01*
X71012500Y-134985000D02*
X68287500Y-134985000D01*
X71012500Y-134985000D02*
X73737500Y-134985000D01*
X73737500Y-129535000D02*
X73737500Y-129795000D01*
X73737500Y-134985000D02*
X73737500Y-134725000D01*
X74760000Y-135055000D02*
X74280000Y-135055000D01*
X74520000Y-134725000D01*
X74760000Y-135055000D01*
G36*
X74760000Y-135055000D02*
G01*
X74280000Y-135055000D01*
X74520000Y-134725000D01*
X74760000Y-135055000D01*
G37*
%TO.C,TP4*%
X63050000Y-28300000D02*
G75*
G02*
X61150000Y-28300000I-950000J0D01*
G01*
X61150000Y-28300000D02*
G75*
G02*
X63050000Y-28300000I950000J0D01*
G01*
%TO.C,IC3*%
X55750000Y-104247600D02*
X60250000Y-104247600D01*
X55750000Y-111132400D02*
X60250000Y-111132400D01*
D12*
X55171200Y-104057600D02*
G75*
G02*
X54921200Y-104057600I-125000J0D01*
G01*
X54921200Y-104057600D02*
G75*
G02*
X55171200Y-104057600I125000J0D01*
G01*
D11*
%TO.C,D13*%
X49410000Y-123850000D02*
X42000000Y-123850000D01*
X49410000Y-128150000D02*
X42000000Y-128150000D01*
X49410000Y-128150000D02*
X49410000Y-123850000D01*
%TO.C,R31*%
X42772936Y-61265000D02*
X43227064Y-61265000D01*
X42772936Y-62735000D02*
X43227064Y-62735000D01*
%TO.C,C47*%
X62823752Y-128715000D02*
X62301248Y-128715000D01*
X62823752Y-130185000D02*
X62301248Y-130185000D01*
%TO.C,R45*%
X56652064Y-56990000D02*
X56197936Y-56990000D01*
X56652064Y-58460000D02*
X56197936Y-58460000D01*
%TO.C,R22*%
X42772936Y-129265000D02*
X43227064Y-129265000D01*
X42772936Y-130735000D02*
X43227064Y-130735000D01*
%TO.C,R18*%
X42772936Y-106765000D02*
X43227064Y-106765000D01*
X42772936Y-108235000D02*
X43227064Y-108235000D01*
%TO.C,R1*%
X42772936Y-39265000D02*
X43227064Y-39265000D01*
X42772936Y-40735000D02*
X43227064Y-40735000D01*
%TO.C,C34*%
X67563748Y-64840000D02*
X68086252Y-64840000D01*
X67563748Y-66310000D02*
X68086252Y-66310000D01*
%TO.C,TP1*%
X53465000Y-28300000D02*
G75*
G02*
X51565000Y-28300000I-950000J0D01*
G01*
X51565000Y-28300000D02*
G75*
G02*
X53465000Y-28300000I950000J0D01*
G01*
%TO.C,R17*%
X42772936Y-104265000D02*
X43227064Y-104265000D01*
X42772936Y-105735000D02*
X43227064Y-105735000D01*
%TO.C,C8*%
X47051248Y-69265000D02*
X47573752Y-69265000D01*
X47051248Y-70735000D02*
X47573752Y-70735000D01*
%TO.C,C25*%
X47051248Y-136765000D02*
X47573752Y-136765000D01*
X47051248Y-138235000D02*
X47573752Y-138235000D01*
%TO.C,R54*%
X66865000Y-97827064D02*
X66865000Y-97372936D01*
X68335000Y-97827064D02*
X68335000Y-97372936D01*
%TO.C,C52*%
X55365000Y-126076248D02*
X55365000Y-126598752D01*
X56835000Y-126076248D02*
X56835000Y-126598752D01*
%TO.C,C39*%
X69276248Y-74290000D02*
X69798752Y-74290000D01*
X69276248Y-75760000D02*
X69798752Y-75760000D01*
%TO.C,R32*%
X42772936Y-91265000D02*
X43227064Y-91265000D01*
X42772936Y-92735000D02*
X43227064Y-92735000D01*
%TO.C,C40*%
X69276248Y-76790000D02*
X69798752Y-76790000D01*
X69276248Y-78260000D02*
X69798752Y-78260000D01*
%TO.C,C43*%
X69276248Y-84290000D02*
X69798752Y-84290000D01*
X69276248Y-85760000D02*
X69798752Y-85760000D01*
%TO.C,D1*%
X43290000Y-27075000D02*
X43290000Y-29075000D01*
X43290000Y-27075000D02*
X47300000Y-27075000D01*
X43290000Y-29075000D02*
X47300000Y-29075000D01*
%TO.C,R9*%
X42772936Y-71765000D02*
X43227064Y-71765000D01*
X42772936Y-73235000D02*
X43227064Y-73235000D01*
%TO.C,C16*%
X47051248Y-101765000D02*
X47573752Y-101765000D01*
X47051248Y-103235000D02*
X47573752Y-103235000D01*
%TO.C,C36*%
X65976248Y-145265000D02*
X66498752Y-145265000D01*
X65976248Y-146735000D02*
X66498752Y-146735000D01*
%TO.C,R24*%
X42772936Y-134265000D02*
X43227064Y-134265000D01*
X42772936Y-135735000D02*
X43227064Y-135735000D01*
%TO.C,D5*%
X68625000Y-48435000D02*
X68625000Y-45175000D01*
X68625000Y-48435000D02*
X70325000Y-48435000D01*
X70325000Y-48435000D02*
X70325000Y-45175000D01*
%TO.C,J4*%
X25290000Y-127440000D02*
X37010000Y-127440000D01*
X25290000Y-137500000D02*
X25290000Y-127440000D01*
X25290000Y-137500000D02*
X25290000Y-147560000D01*
X25290000Y-147560000D02*
X37010000Y-147560000D01*
X25900000Y-129750000D02*
X25900000Y-130250000D01*
X25900000Y-130250000D02*
X31400000Y-130250000D01*
X25900000Y-132250000D02*
X25900000Y-132750000D01*
X25900000Y-132750000D02*
X31400000Y-132750000D01*
X25900000Y-134750000D02*
X25900000Y-135250000D01*
X25900000Y-135250000D02*
X31400000Y-135250000D01*
X25900000Y-137250000D02*
X25900000Y-137750000D01*
X25900000Y-137750000D02*
X31400000Y-137750000D01*
X25900000Y-139750000D02*
X25900000Y-140250000D01*
X25900000Y-140250000D02*
X31400000Y-140250000D01*
X25900000Y-142250000D02*
X25900000Y-142750000D01*
X25900000Y-142750000D02*
X31400000Y-142750000D01*
X25900000Y-144750000D02*
X25900000Y-145250000D01*
X25900000Y-145250000D02*
X31400000Y-145250000D01*
X31400000Y-129750000D02*
X25900000Y-129750000D01*
X31400000Y-130250000D02*
X31400000Y-129750000D01*
X31400000Y-132250000D02*
X25900000Y-132250000D01*
X31400000Y-132750000D02*
X31400000Y-132250000D01*
X31400000Y-134750000D02*
X25900000Y-134750000D01*
X31400000Y-135250000D02*
X31400000Y-134750000D01*
X31400000Y-137250000D02*
X25900000Y-137250000D01*
X31400000Y-137750000D02*
X31400000Y-137250000D01*
X31400000Y-139750000D02*
X25900000Y-139750000D01*
X31400000Y-140250000D02*
X31400000Y-139750000D01*
X31400000Y-142250000D02*
X25900000Y-142250000D01*
X31400000Y-142750000D02*
X31400000Y-142250000D01*
X31400000Y-144750000D02*
X25900000Y-144750000D01*
X31400000Y-145250000D02*
X31400000Y-144750000D01*
X34500000Y-130000000D02*
X35100000Y-129700000D01*
X35100000Y-129700000D02*
X35100000Y-130300000D01*
X35100000Y-130300000D02*
X34500000Y-130000000D01*
X37010000Y-127440000D02*
X37010000Y-128860000D01*
X37010000Y-128860000D02*
X32510000Y-128860000D01*
X37010000Y-146140000D02*
X32510000Y-146140000D01*
X37010000Y-147560000D02*
X37010000Y-146140000D01*
%TO.C,C10*%
X47051248Y-74265000D02*
X47573752Y-74265000D01*
X47051248Y-75735000D02*
X47573752Y-75735000D01*
%TO.C,C17*%
X47051248Y-104265000D02*
X47573752Y-104265000D01*
X47051248Y-105735000D02*
X47573752Y-105735000D01*
%TO.C,R55*%
X60765000Y-117927064D02*
X60765000Y-117472936D01*
X62235000Y-117927064D02*
X62235000Y-117472936D01*
%TO.C,C5*%
X47051248Y-49265000D02*
X47573752Y-49265000D01*
X47051248Y-50735000D02*
X47573752Y-50735000D01*
%TO.C,D10*%
X49410000Y-33850000D02*
X42000000Y-33850000D01*
X49410000Y-38150000D02*
X42000000Y-38150000D01*
X49410000Y-38150000D02*
X49410000Y-33850000D01*
%TO.C,R36*%
X64647936Y-91540000D02*
X65102064Y-91540000D01*
X64647936Y-93010000D02*
X65102064Y-93010000D01*
%TO.C,C31*%
X47051248Y-61265000D02*
X47573752Y-61265000D01*
X47051248Y-62735000D02*
X47573752Y-62735000D01*
%TO.C,R23*%
X42772936Y-131765000D02*
X43227064Y-131765000D01*
X42772936Y-133235000D02*
X43227064Y-133235000D01*
%TO.C,R48*%
X64702064Y-101065000D02*
X64247936Y-101065000D01*
X64702064Y-102535000D02*
X64247936Y-102535000D01*
%TO.C,R30*%
X42772936Y-31265000D02*
X43227064Y-31265000D01*
X42772936Y-32735000D02*
X43227064Y-32735000D01*
%TO.C,TP13*%
X78050000Y-77975000D02*
G75*
G02*
X76150000Y-77975000I-950000J0D01*
G01*
X76150000Y-77975000D02*
G75*
G02*
X78050000Y-77975000I950000J0D01*
G01*
%TO.C,D11*%
X49410000Y-63850000D02*
X42000000Y-63850000D01*
X49410000Y-68150000D02*
X42000000Y-68150000D01*
X49410000Y-68150000D02*
X49410000Y-63850000D01*
%TO.C,C11*%
X47051248Y-76765000D02*
X47573752Y-76765000D01*
X47051248Y-78235000D02*
X47573752Y-78235000D01*
%TO.C,Q1*%
X59734200Y-37340000D02*
X58934200Y-37340000D01*
X59734200Y-37340000D02*
X60534200Y-37340000D01*
X59734200Y-40460000D02*
X58934200Y-40460000D01*
X59734200Y-40460000D02*
X60534200Y-40460000D01*
X58434200Y-37390000D02*
X58194200Y-37060000D01*
X58674200Y-37060000D01*
X58434200Y-37390000D01*
G36*
X58434200Y-37390000D02*
G01*
X58194200Y-37060000D01*
X58674200Y-37060000D01*
X58434200Y-37390000D01*
G37*
%TO.C,C14*%
X47051248Y-84265000D02*
X47573752Y-84265000D01*
X47051248Y-85735000D02*
X47573752Y-85735000D01*
%TO.C,D6*%
X66125000Y-48435000D02*
X66125000Y-45175000D01*
X66125000Y-48435000D02*
X67825000Y-48435000D01*
X67825000Y-48435000D02*
X67825000Y-45175000D01*
%TO.C,TP9*%
X33950000Y-121175000D02*
G75*
G02*
X32050000Y-121175000I-950000J0D01*
G01*
X32050000Y-121175000D02*
G75*
G02*
X33950000Y-121175000I950000J0D01*
G01*
%TO.C,R12*%
X42772936Y-79265000D02*
X43227064Y-79265000D01*
X42772936Y-80735000D02*
X43227064Y-80735000D01*
%TO.C,R13*%
X42772936Y-81765000D02*
X43227064Y-81765000D01*
X42772936Y-83235000D02*
X43227064Y-83235000D01*
%TO.C,R10*%
X42772936Y-74265000D02*
X43227064Y-74265000D01*
X42772936Y-75735000D02*
X43227064Y-75735000D01*
%TO.C,R11*%
X42772936Y-76765000D02*
X43227064Y-76765000D01*
X42772936Y-78235000D02*
X43227064Y-78235000D01*
%TO.C,C37*%
X69276248Y-69290000D02*
X69798752Y-69290000D01*
X69276248Y-70760000D02*
X69798752Y-70760000D01*
%TO.C,SW2*%
X72025000Y-137750000D02*
X72025000Y-138210000D01*
X72025000Y-138210000D02*
X71025000Y-138210000D01*
X72025000Y-140990000D02*
X72025000Y-141450000D01*
X72025000Y-141450000D02*
X78225000Y-141450000D01*
X78225000Y-137750000D02*
X72025000Y-137750000D01*
X78225000Y-137750000D02*
X78225000Y-138210000D01*
X78225000Y-140990000D02*
X78225000Y-141450000D01*
X73625000Y-139050000D02*
X76475000Y-139050000D01*
X76475000Y-140100000D01*
X73625000Y-140100000D01*
X73625000Y-139050000D01*
%TO.C,C49*%
X70877500Y-108648752D02*
X70877500Y-108126248D01*
X72347500Y-108648752D02*
X72347500Y-108126248D01*
%TO.C,R46*%
X65652064Y-75330000D02*
X65197936Y-75330000D01*
X65652064Y-76800000D02*
X65197936Y-76800000D01*
%TO.C,D7*%
X63625000Y-49240000D02*
X63625000Y-52500000D01*
X65325000Y-49240000D02*
X63625000Y-49240000D01*
X65325000Y-49240000D02*
X65325000Y-52500000D01*
%TO.C,R29*%
X54393300Y-40622936D02*
X54393300Y-41077064D01*
X55863300Y-40622936D02*
X55863300Y-41077064D01*
%TO.C,R52*%
X64465000Y-141627064D02*
X64465000Y-141172936D01*
X65935000Y-141627064D02*
X65935000Y-141172936D01*
%TO.C,R38*%
X71172936Y-61965000D02*
X71627064Y-61965000D01*
X71172936Y-63435000D02*
X71627064Y-63435000D01*
%TO.C,J6*%
X75745000Y-124005000D02*
X75745000Y-116325000D01*
X75745000Y-126605000D02*
X75745000Y-125275000D01*
X77075000Y-126605000D02*
X75745000Y-126605000D01*
X78405000Y-116325000D02*
X75745000Y-116325000D01*
X78405000Y-124005000D02*
X75745000Y-124005000D01*
X78405000Y-124005000D02*
X78405000Y-116325000D01*
%TO.C,R14*%
X42772936Y-84265000D02*
X43227064Y-84265000D01*
X42772936Y-85735000D02*
X43227064Y-85735000D01*
%TO.C,U1*%
X67402500Y-117165000D02*
X67402500Y-117815000D01*
X67402500Y-124385000D02*
X67402500Y-123735000D01*
X68052500Y-117165000D02*
X67402500Y-117165000D01*
X68052500Y-124385000D02*
X67402500Y-124385000D01*
X73972500Y-117165000D02*
X74622500Y-117165000D01*
X73972500Y-124385000D02*
X74622500Y-124385000D01*
X74622500Y-117165000D02*
X74622500Y-117815000D01*
%TO.C,R39*%
X77040000Y-97822936D02*
X77040000Y-98277064D01*
X78510000Y-97822936D02*
X78510000Y-98277064D01*
%TO.C,R37*%
X77622936Y-61965000D02*
X78077064Y-61965000D01*
X77622936Y-63435000D02*
X78077064Y-63435000D01*
%TO.C,R53*%
X56865000Y-69727064D02*
X56865000Y-69272936D01*
X58335000Y-69727064D02*
X58335000Y-69272936D01*
%TO.C,C6*%
X47051248Y-51765000D02*
X47573752Y-51765000D01*
X47051248Y-53235000D02*
X47573752Y-53235000D01*
%TO.C,R20*%
X42772936Y-111765000D02*
X43227064Y-111765000D01*
X42772936Y-113235000D02*
X43227064Y-113235000D01*
%TO.C,IC1*%
X55750000Y-44247600D02*
X60250000Y-44247600D01*
X55750000Y-51132400D02*
X60250000Y-51132400D01*
D12*
X55171200Y-44057600D02*
G75*
G02*
X54921200Y-44057600I-125000J0D01*
G01*
X54921200Y-44057600D02*
G75*
G02*
X55171200Y-44057600I125000J0D01*
G01*
D11*
%TO.C,C19*%
X47051248Y-109265000D02*
X47573752Y-109265000D01*
X47051248Y-110735000D02*
X47573752Y-110735000D01*
%TO.C,C33*%
X47051248Y-121265000D02*
X47573752Y-121265000D01*
X47051248Y-122735000D02*
X47573752Y-122735000D01*
%TO.C,SW3*%
X62325000Y-38350000D02*
X63325000Y-38350000D01*
X62325000Y-39350000D02*
X62325000Y-38350000D01*
X62625000Y-38650000D02*
X63475000Y-38650000D01*
X62625000Y-42350000D02*
X62625000Y-38650000D01*
X63505000Y-42350000D02*
X62625000Y-42350000D01*
X65475000Y-38650000D02*
X66005000Y-38650000D01*
X66005000Y-42350000D02*
X65445000Y-42350000D01*
X67945000Y-38650000D02*
X68505000Y-38650000D01*
X68495000Y-42350000D02*
X67945000Y-42350000D01*
X70445000Y-38650000D02*
X71325000Y-38650000D01*
X71325000Y-38650000D02*
X71325000Y-42350000D01*
X71325000Y-42350000D02*
X70455000Y-42350000D01*
%TO.C,R28*%
X42772936Y-144265000D02*
X43227064Y-144265000D01*
X42772936Y-145735000D02*
X43227064Y-145735000D01*
%TO.C,R40*%
X74040000Y-98277064D02*
X74040000Y-97822936D01*
X75510000Y-98277064D02*
X75510000Y-97822936D01*
%TO.C,C28*%
X47051248Y-144265000D02*
X47573752Y-144265000D01*
X47051248Y-145735000D02*
X47573752Y-145735000D01*
%TO.C,R49*%
X63702064Y-97515000D02*
X63247936Y-97515000D01*
X63702064Y-98985000D02*
X63247936Y-98985000D01*
%TO.C,D12*%
X49410000Y-93850000D02*
X42000000Y-93850000D01*
X49410000Y-98150000D02*
X42000000Y-98150000D01*
X49410000Y-98150000D02*
X49410000Y-93850000D01*
%TO.C,R4*%
X42772936Y-46790000D02*
X43227064Y-46790000D01*
X42772936Y-48260000D02*
X43227064Y-48260000D01*
%TO.C,R42*%
X65765000Y-113677064D02*
X65765000Y-113222936D01*
X67235000Y-113677064D02*
X67235000Y-113222936D01*
%TO.C,TP15*%
X78050000Y-85075000D02*
G75*
G02*
X76150000Y-85075000I-950000J0D01*
G01*
X76150000Y-85075000D02*
G75*
G02*
X78050000Y-85075000I950000J0D01*
G01*
%TO.C,D4*%
X67625000Y-49240000D02*
X67625000Y-52500000D01*
X69325000Y-49240000D02*
X67625000Y-49240000D01*
X69325000Y-49240000D02*
X69325000Y-52500000D01*
%TO.C,R3*%
X42772936Y-44265000D02*
X43227064Y-44265000D01*
X42772936Y-45735000D02*
X43227064Y-45735000D01*
%TO.C,R41*%
X67940000Y-140652064D02*
X67940000Y-140197936D01*
X69410000Y-140652064D02*
X69410000Y-140197936D01*
%TO.C,TP8*%
X33950000Y-64950000D02*
G75*
G02*
X32050000Y-64950000I-950000J0D01*
G01*
X32050000Y-64950000D02*
G75*
G02*
X33950000Y-64950000I950000J0D01*
G01*
%TO.C,C41*%
X69276248Y-79290000D02*
X69798752Y-79290000D01*
X69276248Y-80760000D02*
X69798752Y-80760000D01*
%TO.C,C15*%
X47051248Y-99265000D02*
X47573752Y-99265000D01*
X47051248Y-100735000D02*
X47573752Y-100735000D01*
%TO.C,TP2*%
X56660000Y-28300000D02*
G75*
G02*
X54760000Y-28300000I-950000J0D01*
G01*
X54760000Y-28300000D02*
G75*
G02*
X56660000Y-28300000I950000J0D01*
G01*
%TO.C,C27*%
X47051248Y-141765000D02*
X47573752Y-141765000D01*
X47051248Y-143235000D02*
X47573752Y-143235000D01*
%TO.C,IC4*%
X55750000Y-134247600D02*
X60250000Y-134247600D01*
X55750000Y-141132400D02*
X60250000Y-141132400D01*
D12*
X55171200Y-134057600D02*
G75*
G02*
X54921200Y-134057600I-125000J0D01*
G01*
X54921200Y-134057600D02*
G75*
G02*
X55171200Y-134057600I125000J0D01*
G01*
D11*
%TO.C,R35*%
X65647936Y-88190000D02*
X66102064Y-88190000D01*
X65647936Y-89660000D02*
X66102064Y-89660000D01*
%TO.C,D2*%
X40360000Y-31000000D02*
X36350000Y-31000000D01*
X40360000Y-33000000D02*
X36350000Y-33000000D01*
X40360000Y-33000000D02*
X40360000Y-31000000D01*
%TO.C,C1*%
X47051248Y-39265000D02*
X47573752Y-39265000D01*
X47051248Y-40735000D02*
X47573752Y-40735000D01*
%TO.C,R27*%
X42772936Y-141765000D02*
X43227064Y-141765000D01*
X42772936Y-143235000D02*
X43227064Y-143235000D01*
%TO.C,C23*%
X47051248Y-131765000D02*
X47573752Y-131765000D01*
X47051248Y-133235000D02*
X47573752Y-133235000D01*
%TO.C,TP12*%
X54475000Y-121850000D02*
G75*
G02*
X52575000Y-121850000I-950000J0D01*
G01*
X52575000Y-121850000D02*
G75*
G02*
X54475000Y-121850000I950000J0D01*
G01*
%TO.C,J5*%
X70395000Y-59100000D02*
X70395000Y-50150000D01*
X73475000Y-50030000D02*
X74375000Y-50030000D01*
X73475000Y-59220000D02*
X74375000Y-59220000D01*
X77075000Y-50030000D02*
X79805000Y-50030000D01*
X77075000Y-59220000D02*
X79805000Y-59220000D01*
X79805000Y-59220000D02*
X79805000Y-50030000D01*
%TO.C,TP10*%
X33950000Y-124725000D02*
G75*
G02*
X32050000Y-124725000I-950000J0D01*
G01*
X32050000Y-124725000D02*
G75*
G02*
X33950000Y-124725000I950000J0D01*
G01*
%TO.C,R56*%
X62465000Y-134472936D02*
X62465000Y-134927064D01*
X63935000Y-134472936D02*
X63935000Y-134927064D01*
%TO.C,C45*%
X62823752Y-126640000D02*
X62301248Y-126640000D01*
X62823752Y-128110000D02*
X62301248Y-128110000D01*
%TO.C,R34*%
X61822936Y-83515000D02*
X62277064Y-83515000D01*
X61822936Y-84985000D02*
X62277064Y-84985000D01*
%TO.C,C12*%
X47051248Y-79265000D02*
X47573752Y-79265000D01*
X47051248Y-80735000D02*
X47573752Y-80735000D01*
%TO.C,R25*%
X42772936Y-136765000D02*
X43227064Y-136765000D01*
X42772936Y-138235000D02*
X43227064Y-138235000D01*
%TO.C,R19*%
X42772936Y-109265000D02*
X43227064Y-109265000D01*
X42772936Y-110735000D02*
X43227064Y-110735000D01*
%TO.C,C13*%
X47051248Y-81765000D02*
X47573752Y-81765000D01*
X47051248Y-83235000D02*
X47573752Y-83235000D01*
%TO.C,C18*%
X47051248Y-106765000D02*
X47573752Y-106765000D01*
X47051248Y-108235000D02*
X47573752Y-108235000D01*
%TO.C,TP7*%
X33950000Y-61400000D02*
G75*
G02*
X32050000Y-61400000I-950000J0D01*
G01*
X32050000Y-61400000D02*
G75*
G02*
X33950000Y-61400000I950000J0D01*
G01*
%TO.C,IC2*%
X55750000Y-74247600D02*
X60250000Y-74247600D01*
X55750000Y-81132400D02*
X60250000Y-81132400D01*
D12*
X55171200Y-74057600D02*
G75*
G02*
X54921200Y-74057600I-125000J0D01*
G01*
X54921200Y-74057600D02*
G75*
G02*
X55171200Y-74057600I125000J0D01*
G01*
D11*
%TO.C,R5*%
X42772936Y-49265000D02*
X43227064Y-49265000D01*
X42772936Y-50735000D02*
X43227064Y-50735000D01*
%TO.C,C35*%
X63698752Y-64840000D02*
X63176248Y-64840000D01*
X63698752Y-66310000D02*
X63176248Y-66310000D01*
%TO.C,J1*%
X25290000Y-37440000D02*
X37010000Y-37440000D01*
X25290000Y-47500000D02*
X25290000Y-37440000D01*
X25290000Y-47500000D02*
X25290000Y-57560000D01*
X25290000Y-57560000D02*
X37010000Y-57560000D01*
X25900000Y-39750000D02*
X25900000Y-40250000D01*
X25900000Y-40250000D02*
X31400000Y-40250000D01*
X25900000Y-42250000D02*
X25900000Y-42750000D01*
X25900000Y-42750000D02*
X31400000Y-42750000D01*
X25900000Y-44750000D02*
X25900000Y-45250000D01*
X25900000Y-45250000D02*
X31400000Y-45250000D01*
X25900000Y-47250000D02*
X25900000Y-47750000D01*
X25900000Y-47750000D02*
X31400000Y-47750000D01*
X25900000Y-49750000D02*
X25900000Y-50250000D01*
X25900000Y-50250000D02*
X31400000Y-50250000D01*
X25900000Y-52250000D02*
X25900000Y-52750000D01*
X25900000Y-52750000D02*
X31400000Y-52750000D01*
X25900000Y-54750000D02*
X25900000Y-55250000D01*
X25900000Y-55250000D02*
X31400000Y-55250000D01*
X31400000Y-39750000D02*
X25900000Y-39750000D01*
X31400000Y-40250000D02*
X31400000Y-39750000D01*
X31400000Y-42250000D02*
X25900000Y-42250000D01*
X31400000Y-42750000D02*
X31400000Y-42250000D01*
X31400000Y-44750000D02*
X25900000Y-44750000D01*
X31400000Y-45250000D02*
X31400000Y-44750000D01*
X31400000Y-47250000D02*
X25900000Y-47250000D01*
X31400000Y-47750000D02*
X31400000Y-47250000D01*
X31400000Y-49750000D02*
X25900000Y-49750000D01*
X31400000Y-50250000D02*
X31400000Y-49750000D01*
X31400000Y-52250000D02*
X25900000Y-52250000D01*
X31400000Y-52750000D02*
X31400000Y-52250000D01*
X31400000Y-54750000D02*
X25900000Y-54750000D01*
X31400000Y-55250000D02*
X31400000Y-54750000D01*
X34500000Y-40000000D02*
X35100000Y-39700000D01*
X35100000Y-39700000D02*
X35100000Y-40300000D01*
X35100000Y-40300000D02*
X34500000Y-40000000D01*
X37010000Y-37440000D02*
X37010000Y-38860000D01*
X37010000Y-38860000D02*
X32510000Y-38860000D01*
X37010000Y-56140000D02*
X32510000Y-56140000D01*
X37010000Y-57560000D02*
X37010000Y-56140000D01*
%TO.C,J8*%
X75770000Y-40830000D02*
X75770000Y-45970000D01*
X75770000Y-40830000D02*
X78430000Y-40830000D01*
X75770000Y-45970000D02*
X78430000Y-45970000D01*
X77100000Y-38230000D02*
X78430000Y-38230000D01*
X78430000Y-38230000D02*
X78430000Y-39560000D01*
X78430000Y-40830000D02*
X78430000Y-45970000D01*
%TO.C,C46*%
X60790000Y-122076248D02*
X60790000Y-122598752D01*
X62260000Y-122076248D02*
X62260000Y-122598752D01*
%TO.C,R44*%
X57652064Y-53565000D02*
X57197936Y-53565000D01*
X57652064Y-55035000D02*
X57197936Y-55035000D01*
%TO.C,R7*%
X42772936Y-54265000D02*
X43227064Y-54265000D01*
X42772936Y-55735000D02*
X43227064Y-55735000D01*
%TO.C,C53*%
X62823752Y-130865000D02*
X62301248Y-130865000D01*
X62823752Y-132335000D02*
X62301248Y-132335000D01*
%TO.C,C2*%
X47051248Y-41765000D02*
X47573752Y-41765000D01*
X47051248Y-43235000D02*
X47573752Y-43235000D01*
%TO.C,C7*%
X47051248Y-54265000D02*
X47573752Y-54265000D01*
X47051248Y-55735000D02*
X47573752Y-55735000D01*
%TO.C,C30*%
X47051248Y-31265000D02*
X47573752Y-31265000D01*
X47051248Y-32735000D02*
X47573752Y-32735000D01*
%TO.C,C51*%
X64001248Y-78965000D02*
X64523752Y-78965000D01*
X64001248Y-80435000D02*
X64523752Y-80435000D01*
%TO.C,J3*%
X25290000Y-97440000D02*
X37010000Y-97440000D01*
X25290000Y-107500000D02*
X25290000Y-97440000D01*
X25290000Y-107500000D02*
X25290000Y-117560000D01*
X25290000Y-117560000D02*
X37010000Y-117560000D01*
X25900000Y-99750000D02*
X25900000Y-100250000D01*
X25900000Y-100250000D02*
X31400000Y-100250000D01*
X25900000Y-102250000D02*
X25900000Y-102750000D01*
X25900000Y-102750000D02*
X31400000Y-102750000D01*
X25900000Y-104750000D02*
X25900000Y-105250000D01*
X25900000Y-105250000D02*
X31400000Y-105250000D01*
X25900000Y-107250000D02*
X25900000Y-107750000D01*
X25900000Y-107750000D02*
X31400000Y-107750000D01*
X25900000Y-109750000D02*
X25900000Y-110250000D01*
X25900000Y-110250000D02*
X31400000Y-110250000D01*
X25900000Y-112250000D02*
X25900000Y-112750000D01*
X25900000Y-112750000D02*
X31400000Y-112750000D01*
X25900000Y-114750000D02*
X25900000Y-115250000D01*
X25900000Y-115250000D02*
X31400000Y-115250000D01*
X31400000Y-99750000D02*
X25900000Y-99750000D01*
X31400000Y-100250000D02*
X31400000Y-99750000D01*
X31400000Y-102250000D02*
X25900000Y-102250000D01*
X31400000Y-102750000D02*
X31400000Y-102250000D01*
X31400000Y-104750000D02*
X25900000Y-104750000D01*
X31400000Y-105250000D02*
X31400000Y-104750000D01*
X31400000Y-107250000D02*
X25900000Y-107250000D01*
X31400000Y-107750000D02*
X31400000Y-107250000D01*
X31400000Y-109750000D02*
X25900000Y-109750000D01*
X31400000Y-110250000D02*
X31400000Y-109750000D01*
X31400000Y-112250000D02*
X25900000Y-112250000D01*
X31400000Y-112750000D02*
X31400000Y-112250000D01*
X31400000Y-114750000D02*
X25900000Y-114750000D01*
X31400000Y-115250000D02*
X31400000Y-114750000D01*
X34500000Y-100000000D02*
X35100000Y-99700000D01*
X35100000Y-99700000D02*
X35100000Y-100300000D01*
X35100000Y-100300000D02*
X34500000Y-100000000D01*
X37010000Y-97440000D02*
X37010000Y-98860000D01*
X37010000Y-98860000D02*
X32510000Y-98860000D01*
X37010000Y-116140000D02*
X32510000Y-116140000D01*
X37010000Y-117560000D02*
X37010000Y-116140000D01*
%TO.C,J2*%
X25290000Y-67440000D02*
X37010000Y-67440000D01*
X25290000Y-77500000D02*
X25290000Y-67440000D01*
X25290000Y-77500000D02*
X25290000Y-87560000D01*
X25290000Y-87560000D02*
X37010000Y-87560000D01*
X25900000Y-69750000D02*
X25900000Y-70250000D01*
X25900000Y-70250000D02*
X31400000Y-70250000D01*
X25900000Y-72250000D02*
X25900000Y-72750000D01*
X25900000Y-72750000D02*
X31400000Y-72750000D01*
X25900000Y-74750000D02*
X25900000Y-75250000D01*
X25900000Y-75250000D02*
X31400000Y-75250000D01*
X25900000Y-77250000D02*
X25900000Y-77750000D01*
X25900000Y-77750000D02*
X31400000Y-77750000D01*
X25900000Y-79750000D02*
X25900000Y-80250000D01*
X25900000Y-80250000D02*
X31400000Y-80250000D01*
X25900000Y-82250000D02*
X25900000Y-82750000D01*
X25900000Y-82750000D02*
X31400000Y-82750000D01*
X25900000Y-84750000D02*
X25900000Y-85250000D01*
X25900000Y-85250000D02*
X31400000Y-85250000D01*
X31400000Y-69750000D02*
X25900000Y-69750000D01*
X31400000Y-70250000D02*
X31400000Y-69750000D01*
X31400000Y-72250000D02*
X25900000Y-72250000D01*
X31400000Y-72750000D02*
X31400000Y-72250000D01*
X31400000Y-74750000D02*
X25900000Y-74750000D01*
X31400000Y-75250000D02*
X31400000Y-74750000D01*
X31400000Y-77250000D02*
X25900000Y-77250000D01*
X31400000Y-77750000D02*
X31400000Y-77250000D01*
X31400000Y-79750000D02*
X25900000Y-79750000D01*
X31400000Y-80250000D02*
X31400000Y-79750000D01*
X31400000Y-82250000D02*
X25900000Y-82250000D01*
X31400000Y-82750000D02*
X31400000Y-82250000D01*
X31400000Y-84750000D02*
X25900000Y-84750000D01*
X31400000Y-85250000D02*
X31400000Y-84750000D01*
X34500000Y-70000000D02*
X35100000Y-69700000D01*
X35100000Y-69700000D02*
X35100000Y-70300000D01*
X35100000Y-70300000D02*
X34500000Y-70000000D01*
X37010000Y-67440000D02*
X37010000Y-68860000D01*
X37010000Y-68860000D02*
X32510000Y-68860000D01*
X37010000Y-86140000D02*
X32510000Y-86140000D01*
X37010000Y-87560000D02*
X37010000Y-86140000D01*
%TO.C,TP5*%
X66245000Y-28300000D02*
G75*
G02*
X64345000Y-28300000I-950000J0D01*
G01*
X64345000Y-28300000D02*
G75*
G02*
X66245000Y-28300000I950000J0D01*
G01*
%TO.C,TP14*%
X78050000Y-81525000D02*
G75*
G02*
X76150000Y-81525000I-950000J0D01*
G01*
X76150000Y-81525000D02*
G75*
G02*
X78050000Y-81525000I950000J0D01*
G01*
%TO.C,C20*%
X47051248Y-111765000D02*
X47573752Y-111765000D01*
X47051248Y-113235000D02*
X47573752Y-113235000D01*
%TO.C,C48*%
X65723752Y-107040000D02*
X65201248Y-107040000D01*
X65723752Y-108510000D02*
X65201248Y-108510000D01*
%TO.C,D3*%
X60294200Y-32650000D02*
X56284200Y-32650000D01*
X60294200Y-34650000D02*
X56284200Y-34650000D01*
X60294200Y-34650000D02*
X60294200Y-32650000D01*
%TO.C,C24*%
X47051248Y-134265000D02*
X47573752Y-134265000D01*
X47051248Y-135735000D02*
X47573752Y-135735000D01*
%TO.C,R51*%
X55852064Y-145265000D02*
X55397936Y-145265000D01*
X55852064Y-146735000D02*
X55397936Y-146735000D01*
%TO.C,R2*%
X42772936Y-41765000D02*
X43227064Y-41765000D01*
X42772936Y-43235000D02*
X43227064Y-43235000D01*
%TO.C,R21*%
X42772936Y-114265000D02*
X43227064Y-114265000D01*
X42772936Y-115735000D02*
X43227064Y-115735000D01*
%TO.C,C38*%
X69276248Y-71790000D02*
X69798752Y-71790000D01*
X69276248Y-73260000D02*
X69798752Y-73260000D01*
%TO.C,C3*%
X47051248Y-44265000D02*
X47573752Y-44265000D01*
X47051248Y-45735000D02*
X47573752Y-45735000D01*
D13*
%TO.C,G\u002A\u002A\u002A*%
G36*
X52373130Y-150720935D02*
G01*
X53688153Y-150721960D01*
X53688153Y-150768816D01*
X53688153Y-150815672D01*
X52373130Y-150816697D01*
X51058108Y-150817722D01*
X51058108Y-150768816D01*
X51058108Y-150719910D01*
X52373130Y-150720935D01*
G37*
G36*
X60050376Y-153317372D02*
G01*
X60050376Y-154562111D01*
X60005557Y-154562111D01*
X59960739Y-154562111D01*
X59960739Y-153317372D01*
X59960739Y-152072634D01*
X60005557Y-152072634D01*
X60050376Y-152072634D01*
X60050376Y-153317372D01*
G37*
G36*
X46683942Y-148476977D02*
G01*
X46707000Y-148489687D01*
X46718526Y-148499672D01*
X46729197Y-148511460D01*
X46736908Y-148523305D01*
X46742115Y-148536833D01*
X46745273Y-148553674D01*
X46746840Y-148575457D01*
X46747271Y-148602238D01*
X46747360Y-148658261D01*
X46651611Y-148658261D01*
X46555862Y-148658261D01*
X46555862Y-148618085D01*
X46556278Y-148589794D01*
X46557736Y-148567852D01*
X46560555Y-148550494D01*
X46565054Y-148535951D01*
X46571551Y-148522459D01*
X46573774Y-148518623D01*
X46590983Y-148496810D01*
X46611847Y-148481577D01*
X46635123Y-148473085D01*
X46659569Y-148471497D01*
X46683942Y-148476977D01*
G37*
G36*
X58138605Y-148448446D02*
G01*
X58161754Y-148462030D01*
X58172733Y-148471779D01*
X58183130Y-148482965D01*
X58190842Y-148493773D01*
X58196301Y-148505722D01*
X58199938Y-148520334D01*
X58202185Y-148539129D01*
X58203473Y-148563627D01*
X58203969Y-148581865D01*
X58205375Y-148646038D01*
X58109268Y-148646038D01*
X58013161Y-148646038D01*
X58013161Y-148586413D01*
X58013466Y-148557147D01*
X58014649Y-148534521D01*
X58017110Y-148517040D01*
X58021248Y-148503207D01*
X58027465Y-148491528D01*
X58036160Y-148480507D01*
X58043581Y-148472736D01*
X58066224Y-148454880D01*
X58090102Y-148444876D01*
X58114475Y-148442730D01*
X58138605Y-148448446D01*
G37*
G36*
X56404868Y-152807481D02*
G01*
X56436356Y-152813298D01*
X56450805Y-152817179D01*
X56461524Y-152820976D01*
X56466597Y-152823985D01*
X56466765Y-152824465D01*
X56465954Y-152836783D01*
X56464469Y-152851898D01*
X56462590Y-152867656D01*
X56460598Y-152881901D01*
X56458770Y-152892478D01*
X56457388Y-152897234D01*
X56457321Y-152897290D01*
X56452528Y-152897504D01*
X56441146Y-152897021D01*
X56424696Y-152895933D01*
X56404700Y-152894332D01*
X56396535Y-152893612D01*
X56331701Y-152890518D01*
X56271323Y-152893554D01*
X56214264Y-152902922D01*
X56159386Y-152918824D01*
X56105555Y-152941463D01*
X56093336Y-152947575D01*
X56041223Y-152978940D01*
X55992864Y-153017314D01*
X55948502Y-153062349D01*
X55908380Y-153113698D01*
X55872742Y-153171017D01*
X55841831Y-153233959D01*
X55815890Y-153302177D01*
X55796393Y-153370238D01*
X55784447Y-153419029D01*
X55784447Y-153990570D01*
X55784447Y-154562111D01*
X55739629Y-154562111D01*
X55694810Y-154562111D01*
X55694810Y-153698332D01*
X55694810Y-152834552D01*
X55731480Y-152834552D01*
X55768150Y-152834552D01*
X55768180Y-152845757D01*
X55768409Y-152852348D01*
X55769047Y-152866065D01*
X55770040Y-152885898D01*
X55771337Y-152910836D01*
X55772885Y-152939870D01*
X55774632Y-152971990D01*
X55776270Y-153001604D01*
X55778158Y-153035967D01*
X55779893Y-153068457D01*
X55781421Y-153098000D01*
X55782688Y-153123522D01*
X55783641Y-153143947D01*
X55784227Y-153158203D01*
X55784396Y-153164581D01*
X55784526Y-153171500D01*
X55785223Y-153175129D01*
X55787037Y-153174748D01*
X55790521Y-153169637D01*
X55796223Y-153159075D01*
X55804696Y-153142344D01*
X55810887Y-153129948D01*
X55845194Y-153069173D01*
X55884589Y-153013866D01*
X55928649Y-152964408D01*
X55976953Y-152921177D01*
X56029077Y-152884555D01*
X56084599Y-152854919D01*
X56141079Y-152833278D01*
X56194443Y-152819108D01*
X56249173Y-152809331D01*
X56303600Y-152804058D01*
X56356055Y-152803404D01*
X56404868Y-152807481D01*
G37*
G36*
X58269190Y-148760715D02*
G01*
X58402564Y-148760736D01*
X58533868Y-148760769D01*
X58662080Y-148760816D01*
X58786178Y-148760877D01*
X58905141Y-148760950D01*
X59017946Y-148761037D01*
X59118350Y-148761132D01*
X60105381Y-148762159D01*
X60081586Y-148775643D01*
X60041558Y-148796168D01*
X59993940Y-148816782D01*
X59939289Y-148837323D01*
X59878160Y-148857630D01*
X59811109Y-148877543D01*
X59738692Y-148896901D01*
X59661464Y-148915542D01*
X59579982Y-148933306D01*
X59494801Y-148950032D01*
X59453472Y-148957519D01*
X59368580Y-148971786D01*
X59282202Y-148984860D01*
X59193500Y-148996831D01*
X59101634Y-149007785D01*
X59005764Y-149017812D01*
X58905050Y-149026999D01*
X58798654Y-149035435D01*
X58685735Y-149043209D01*
X58575432Y-149049848D01*
X58556567Y-149050667D01*
X58530384Y-149051438D01*
X58497715Y-149052156D01*
X58459390Y-149052817D01*
X58416240Y-149053418D01*
X58369097Y-149053956D01*
X58318792Y-149054427D01*
X58266155Y-149054827D01*
X58212018Y-149055153D01*
X58157211Y-149055401D01*
X58102567Y-149055568D01*
X58048915Y-149055651D01*
X57997087Y-149055644D01*
X57947914Y-149055546D01*
X57902227Y-149055352D01*
X57860857Y-149055060D01*
X57824634Y-149054664D01*
X57794392Y-149054163D01*
X57770959Y-149053552D01*
X57764621Y-149053315D01*
X57584381Y-149044207D01*
X57411551Y-149032098D01*
X57245959Y-149016967D01*
X57087429Y-148998798D01*
X56935790Y-148977570D01*
X56790867Y-148953264D01*
X56706830Y-148937148D01*
X56627722Y-148920305D01*
X56551338Y-148902219D01*
X56478441Y-148883124D01*
X56409798Y-148863254D01*
X56346172Y-148842844D01*
X56288329Y-148822126D01*
X56237034Y-148801335D01*
X56193050Y-148780705D01*
X56189853Y-148779060D01*
X56157258Y-148762159D01*
X57144289Y-148761132D01*
X57250307Y-148761032D01*
X57363453Y-148760946D01*
X57482704Y-148760873D01*
X57607038Y-148760814D01*
X57735433Y-148760767D01*
X57866868Y-148760734D01*
X58000320Y-148760715D01*
X58134768Y-148760708D01*
X58269190Y-148760715D01*
G37*
G36*
X56868246Y-152832515D02*
G01*
X56868246Y-153592396D01*
X56969088Y-153592258D01*
X57069930Y-153592120D01*
X57461075Y-153213604D01*
X57852221Y-152835089D01*
X57904453Y-152834821D01*
X57925889Y-152834784D01*
X57940445Y-152835058D01*
X57949391Y-152835828D01*
X57953996Y-152837279D01*
X57955527Y-152839595D01*
X57955384Y-152842252D01*
X57952367Y-152845988D01*
X57943862Y-152855084D01*
X57930207Y-152869202D01*
X57911740Y-152888005D01*
X57888798Y-152911156D01*
X57861721Y-152938317D01*
X57830846Y-152969152D01*
X57796510Y-153003321D01*
X57759054Y-153040489D01*
X57718813Y-153080318D01*
X57676127Y-153122470D01*
X57631334Y-153166609D01*
X57584771Y-153212396D01*
X57562936Y-153233836D01*
X57515713Y-153280217D01*
X57470120Y-153325067D01*
X57426495Y-153368049D01*
X57385172Y-153408830D01*
X57346489Y-153447076D01*
X57310782Y-153482451D01*
X57278388Y-153514623D01*
X57249642Y-153543257D01*
X57224882Y-153568018D01*
X57204443Y-153588572D01*
X57188662Y-153604585D01*
X57177875Y-153615723D01*
X57172418Y-153621651D01*
X57171791Y-153622540D01*
X57174494Y-153626042D01*
X57182406Y-153635223D01*
X57195227Y-153649752D01*
X57212661Y-153669302D01*
X57234410Y-153693543D01*
X57260176Y-153722147D01*
X57289660Y-153754783D01*
X57322566Y-153791123D01*
X57358596Y-153830838D01*
X57397451Y-153873599D01*
X57438835Y-153919076D01*
X57482448Y-153966941D01*
X57527994Y-154016865D01*
X57575175Y-154068518D01*
X57593494Y-154088558D01*
X57641243Y-154140809D01*
X57687486Y-154191471D01*
X57731923Y-154240214D01*
X57774256Y-154286708D01*
X57814186Y-154330621D01*
X57851413Y-154371625D01*
X57885640Y-154409388D01*
X57916566Y-154443581D01*
X57943893Y-154473872D01*
X57967322Y-154499931D01*
X57986553Y-154521429D01*
X58001288Y-154538034D01*
X58011227Y-154549416D01*
X58016073Y-154555246D01*
X58016515Y-154555933D01*
X58016014Y-154558503D01*
X58012421Y-154560259D01*
X58004541Y-154561347D01*
X57991176Y-154561910D01*
X57971130Y-154562095D01*
X57965585Y-154562099D01*
X57913337Y-154562087D01*
X57508405Y-154122060D01*
X57103473Y-153682034D01*
X56985859Y-153682034D01*
X56868246Y-153682034D01*
X56868246Y-154122072D01*
X56868246Y-154562111D01*
X56823427Y-154562111D01*
X56778608Y-154562111D01*
X56778608Y-153317372D01*
X56778608Y-152072634D01*
X56823427Y-152072634D01*
X56868246Y-152072634D01*
X56868246Y-152832515D01*
G37*
G36*
X46776523Y-148756113D02*
G01*
X46920022Y-148756131D01*
X47058764Y-148756164D01*
X47192595Y-148756212D01*
X47321360Y-148756275D01*
X47444904Y-148756351D01*
X47563073Y-148756442D01*
X47675710Y-148756546D01*
X47782662Y-148756663D01*
X47883774Y-148756793D01*
X47978890Y-148756936D01*
X48067856Y-148757092D01*
X48150517Y-148757259D01*
X48226717Y-148757438D01*
X48296303Y-148757629D01*
X48359119Y-148757831D01*
X48415009Y-148758044D01*
X48463820Y-148758268D01*
X48505397Y-148758502D01*
X48539584Y-148758746D01*
X48566226Y-148759000D01*
X48585169Y-148759264D01*
X48596258Y-148759536D01*
X48599394Y-148759790D01*
X48593114Y-148765536D01*
X48580487Y-148773654D01*
X48562748Y-148783542D01*
X48541136Y-148794594D01*
X48516889Y-148806207D01*
X48491242Y-148817775D01*
X48465435Y-148828695D01*
X48440703Y-148838362D01*
X48432137Y-148841478D01*
X48347635Y-148869231D01*
X48255530Y-148895213D01*
X48156182Y-148919386D01*
X48049950Y-148941711D01*
X47937193Y-148962151D01*
X47818272Y-148980668D01*
X47693546Y-148997222D01*
X47563374Y-149011776D01*
X47428116Y-149024292D01*
X47288131Y-149034732D01*
X47143780Y-149043056D01*
X46995422Y-149049228D01*
X46843415Y-149053209D01*
X46688121Y-149054960D01*
X46529898Y-149054444D01*
X46439741Y-149053143D01*
X46288526Y-149049108D01*
X46139878Y-149042660D01*
X45994309Y-149033859D01*
X45852331Y-149022769D01*
X45714458Y-149009452D01*
X45581200Y-148993970D01*
X45453070Y-148976385D01*
X45330581Y-148956760D01*
X45214244Y-148935156D01*
X45104572Y-148911636D01*
X45002077Y-148886263D01*
X44951561Y-148872292D01*
X44897595Y-148856154D01*
X44846686Y-148839696D01*
X44799624Y-148823224D01*
X44757204Y-148807043D01*
X44720216Y-148791458D01*
X44689452Y-148776774D01*
X44665704Y-148763298D01*
X44661252Y-148760356D01*
X44664201Y-148759994D01*
X44674164Y-148759649D01*
X44691192Y-148759320D01*
X44715337Y-148759009D01*
X44746649Y-148758714D01*
X44785180Y-148758435D01*
X44830981Y-148758173D01*
X44884103Y-148757927D01*
X44944597Y-148757697D01*
X45012513Y-148757483D01*
X45087904Y-148757285D01*
X45170821Y-148757103D01*
X45261314Y-148756937D01*
X45359434Y-148756786D01*
X45465234Y-148756651D01*
X45578763Y-148756531D01*
X45700073Y-148756426D01*
X45829215Y-148756336D01*
X45966240Y-148756262D01*
X46111200Y-148756202D01*
X46264145Y-148756157D01*
X46425127Y-148756127D01*
X46594196Y-148756111D01*
X46628424Y-148756110D01*
X46776523Y-148756113D01*
G37*
G36*
X47024280Y-152240250D02*
G01*
X47041305Y-152240570D01*
X47087800Y-152241723D01*
X46768878Y-153095316D01*
X46737128Y-153180295D01*
X46705149Y-153265885D01*
X46673139Y-153351559D01*
X46641294Y-153436790D01*
X46609810Y-153521053D01*
X46578884Y-153603822D01*
X46548713Y-153684570D01*
X46519494Y-153762771D01*
X46491422Y-153837899D01*
X46464695Y-153909429D01*
X46439509Y-153976833D01*
X46416061Y-154039585D01*
X46394547Y-154097161D01*
X46375164Y-154149032D01*
X46358109Y-154194674D01*
X46343577Y-154233560D01*
X46335374Y-154255510D01*
X46220792Y-154562111D01*
X46167289Y-154562080D01*
X46113786Y-154562049D01*
X45682160Y-153405960D01*
X45647252Y-153312459D01*
X45613076Y-153220916D01*
X45579743Y-153131627D01*
X45547363Y-153044888D01*
X45516046Y-152960995D01*
X45485903Y-152880242D01*
X45457043Y-152802926D01*
X45429578Y-152729341D01*
X45403617Y-152659782D01*
X45379271Y-152594546D01*
X45356649Y-152533928D01*
X45335862Y-152478223D01*
X45317021Y-152427726D01*
X45300235Y-152382734D01*
X45285614Y-152343541D01*
X45273270Y-152310442D01*
X45263312Y-152283734D01*
X45255851Y-152263711D01*
X45250996Y-152250669D01*
X45248858Y-152244904D01*
X45248765Y-152244645D01*
X45249691Y-152242378D01*
X45255021Y-152240967D01*
X45265818Y-152240317D01*
X45283143Y-152240334D01*
X45294858Y-152240571D01*
X45342721Y-152241723D01*
X45729202Y-153280367D01*
X45762478Y-153369822D01*
X45795162Y-153457742D01*
X45827129Y-153543789D01*
X45858255Y-153627624D01*
X45888414Y-153708909D01*
X45917481Y-153787306D01*
X45945331Y-153862475D01*
X45971839Y-153934078D01*
X45996880Y-154001777D01*
X46020328Y-154065232D01*
X46042058Y-154124106D01*
X46061946Y-154178059D01*
X46079866Y-154226753D01*
X46095693Y-154269849D01*
X46109302Y-154307009D01*
X46120568Y-154337894D01*
X46129366Y-154362166D01*
X46135570Y-154379485D01*
X46139056Y-154389514D01*
X46139094Y-154389631D01*
X46147035Y-154412800D01*
X46154314Y-154432572D01*
X46160478Y-154447815D01*
X46165074Y-154457397D01*
X46167451Y-154460250D01*
X46170318Y-154456546D01*
X46175113Y-154446199D01*
X46181377Y-154430357D01*
X46188650Y-154410169D01*
X46194774Y-154392003D01*
X46197557Y-154384015D01*
X46202973Y-154368956D01*
X46210886Y-154347199D01*
X46221155Y-154319118D01*
X46233644Y-154285086D01*
X46248212Y-154245474D01*
X46264723Y-154200657D01*
X46283037Y-154151007D01*
X46303016Y-154096897D01*
X46324522Y-154038700D01*
X46347416Y-153976788D01*
X46371559Y-153911536D01*
X46396814Y-153843314D01*
X46423042Y-153772497D01*
X46450104Y-153699457D01*
X46477863Y-153624568D01*
X46506179Y-153548201D01*
X46534914Y-153470731D01*
X46563929Y-153392529D01*
X46593087Y-153313969D01*
X46622249Y-153235424D01*
X46651276Y-153157266D01*
X46680031Y-153079869D01*
X46708373Y-153003605D01*
X46736166Y-152928847D01*
X46763271Y-152855968D01*
X46789549Y-152785341D01*
X46814861Y-152717339D01*
X46839071Y-152652334D01*
X46862038Y-152590701D01*
X46883624Y-152532811D01*
X46903692Y-152479037D01*
X46922102Y-152429752D01*
X46938717Y-152385330D01*
X46953397Y-152346143D01*
X46966005Y-152312563D01*
X46976402Y-152284965D01*
X46984449Y-152263720D01*
X46990008Y-152249202D01*
X46992941Y-152241784D01*
X46993369Y-152240859D01*
X46997769Y-152240383D01*
X47008633Y-152240176D01*
X47024280Y-152240250D01*
G37*
G36*
X41617652Y-153056769D02*
G01*
X41617674Y-153170478D01*
X41617741Y-153276052D01*
X41617851Y-153373507D01*
X41618006Y-153462858D01*
X41618205Y-153544117D01*
X41618449Y-153617302D01*
X41618737Y-153682425D01*
X41619070Y-153739502D01*
X41619447Y-153788547D01*
X41619869Y-153829575D01*
X41620336Y-153862600D01*
X41620848Y-153887638D01*
X41621405Y-153904703D01*
X41621962Y-153913418D01*
X41633870Y-153990211D01*
X41652331Y-154062192D01*
X41677326Y-154129333D01*
X41708837Y-154191607D01*
X41746847Y-154248985D01*
X41791337Y-154301439D01*
X41842288Y-154348943D01*
X41899684Y-154391467D01*
X41951756Y-154422716D01*
X42012605Y-154451489D01*
X42078115Y-154474425D01*
X42147247Y-154491514D01*
X42218962Y-154502742D01*
X42292222Y-154508099D01*
X42365988Y-154507572D01*
X42439223Y-154501150D01*
X42510887Y-154488821D01*
X42579942Y-154470573D01*
X42645350Y-154446395D01*
X42678648Y-154430939D01*
X42741587Y-154395090D01*
X42798927Y-154353540D01*
X42850408Y-154306609D01*
X42895770Y-154254616D01*
X42934752Y-154197881D01*
X42967097Y-154136724D01*
X42992543Y-154071464D01*
X43004593Y-154029672D01*
X43007394Y-154018719D01*
X43009974Y-154008785D01*
X43012341Y-153999514D01*
X43014506Y-153990551D01*
X43016478Y-153981541D01*
X43018267Y-153972129D01*
X43019882Y-153961960D01*
X43021333Y-153950678D01*
X43022630Y-153937929D01*
X43023781Y-153923357D01*
X43024798Y-153906607D01*
X43025688Y-153887324D01*
X43026462Y-153865153D01*
X43027130Y-153839739D01*
X43027700Y-153810727D01*
X43028184Y-153777761D01*
X43028589Y-153740487D01*
X43028926Y-153698549D01*
X43029204Y-153651592D01*
X43029433Y-153599261D01*
X43029622Y-153541201D01*
X43029782Y-153477056D01*
X43029921Y-153406472D01*
X43030050Y-153329094D01*
X43030177Y-153244566D01*
X43030312Y-153152533D01*
X43030435Y-153071888D01*
X43031741Y-152239685D01*
X43074392Y-152239685D01*
X43117043Y-152239685D01*
X43117043Y-153065801D01*
X43117036Y-153164475D01*
X43117014Y-153255338D01*
X43116976Y-153338726D01*
X43116917Y-153414977D01*
X43116837Y-153484430D01*
X43116732Y-153547419D01*
X43116601Y-153604285D01*
X43116441Y-153655362D01*
X43116250Y-153700990D01*
X43116025Y-153741505D01*
X43115764Y-153777244D01*
X43115465Y-153808546D01*
X43115126Y-153835746D01*
X43114744Y-153859184D01*
X43114317Y-153879195D01*
X43113842Y-153896118D01*
X43113317Y-153910289D01*
X43112741Y-153922046D01*
X43112110Y-153931727D01*
X43111422Y-153939668D01*
X43110995Y-153943617D01*
X43098055Y-154024852D01*
X43078842Y-154100887D01*
X43053347Y-154171736D01*
X43021563Y-154237411D01*
X42983478Y-154297926D01*
X42939086Y-154353294D01*
X42888376Y-154403528D01*
X42831339Y-154448641D01*
X42767967Y-154488647D01*
X42720955Y-154513082D01*
X42658628Y-154539952D01*
X42595214Y-154561084D01*
X42528713Y-154577048D01*
X42457127Y-154588415D01*
X42457107Y-154588418D01*
X42432939Y-154590679D01*
X42402660Y-154592390D01*
X42368242Y-154593540D01*
X42331653Y-154594117D01*
X42294866Y-154594109D01*
X42259849Y-154593504D01*
X42228574Y-154592292D01*
X42203010Y-154590459D01*
X42198259Y-154589961D01*
X42126734Y-154578758D01*
X42055986Y-154561613D01*
X41987395Y-154539028D01*
X41922342Y-154511504D01*
X41862207Y-154479543D01*
X41821374Y-154453110D01*
X41795593Y-154433315D01*
X41767578Y-154409080D01*
X41738925Y-154382012D01*
X41711229Y-154353715D01*
X41686087Y-154325798D01*
X41665093Y-154299865D01*
X41654855Y-154285479D01*
X41617925Y-154222560D01*
X41587387Y-154154679D01*
X41563230Y-154081801D01*
X41545441Y-154003889D01*
X41534009Y-153920905D01*
X41532369Y-153902257D01*
X41531756Y-153890186D01*
X41531190Y-153869984D01*
X41530669Y-153841671D01*
X41530195Y-153805267D01*
X41529767Y-153760789D01*
X41529386Y-153708256D01*
X41529051Y-153647688D01*
X41528763Y-153579103D01*
X41528521Y-153502521D01*
X41528327Y-153417959D01*
X41528179Y-153325437D01*
X41528078Y-153224974D01*
X41528024Y-153116589D01*
X41528015Y-153043571D01*
X41528015Y-152239685D01*
X41572834Y-152239685D01*
X41617652Y-152239685D01*
X41617652Y-153056769D01*
G37*
G36*
X44352907Y-152239731D02*
G01*
X44406600Y-152239777D01*
X44799637Y-153289916D01*
X44833492Y-153380372D01*
X44866873Y-153469565D01*
X44899648Y-153557142D01*
X44931685Y-153642750D01*
X44962852Y-153726036D01*
X44993017Y-153806647D01*
X45022048Y-153884230D01*
X45049813Y-153958433D01*
X45076180Y-154028902D01*
X45101017Y-154095285D01*
X45124191Y-154157229D01*
X45145572Y-154214380D01*
X45165026Y-154266387D01*
X45182422Y-154312896D01*
X45197628Y-154353553D01*
X45210511Y-154388008D01*
X45220941Y-154415906D01*
X45228784Y-154436894D01*
X45233908Y-154450621D01*
X45234080Y-154451083D01*
X45275486Y-154562111D01*
X45227829Y-154562111D01*
X45180172Y-154562111D01*
X45050355Y-154215770D01*
X44920538Y-153869429D01*
X44352339Y-153870462D01*
X43784140Y-153871495D01*
X43655568Y-154216803D01*
X43526997Y-154562111D01*
X43478986Y-154562111D01*
X43430976Y-154562111D01*
X43435277Y-154550906D01*
X43437041Y-154546213D01*
X43441544Y-154534187D01*
X43448674Y-154515131D01*
X43458319Y-154489345D01*
X43470365Y-154457132D01*
X43484700Y-154418792D01*
X43501212Y-154374627D01*
X43519788Y-154324939D01*
X43540315Y-154270028D01*
X43562680Y-154210196D01*
X43586771Y-154145744D01*
X43612475Y-154076975D01*
X43639680Y-154004188D01*
X43668273Y-153927686D01*
X43698141Y-153847769D01*
X43723535Y-153779820D01*
X43818050Y-153779820D01*
X44352173Y-153779820D01*
X44429076Y-153779816D01*
X44498238Y-153779800D01*
X44560066Y-153779768D01*
X44614967Y-153779712D01*
X44663348Y-153779629D01*
X44705617Y-153779512D01*
X44742180Y-153779356D01*
X44773446Y-153779156D01*
X44799822Y-153778905D01*
X44821714Y-153778600D01*
X44839530Y-153778234D01*
X44853678Y-153777801D01*
X44864564Y-153777297D01*
X44872596Y-153776715D01*
X44878182Y-153776051D01*
X44881728Y-153775299D01*
X44883642Y-153774453D01*
X44884331Y-153773509D01*
X44884278Y-153772690D01*
X44882662Y-153768162D01*
X44878351Y-153756393D01*
X44871492Y-153737781D01*
X44862233Y-153712724D01*
X44850722Y-153681616D01*
X44837104Y-153644857D01*
X44821528Y-153602843D01*
X44804141Y-153555970D01*
X44785090Y-153504636D01*
X44764522Y-153449238D01*
X44742585Y-153390173D01*
X44719426Y-153327838D01*
X44695192Y-153262629D01*
X44670031Y-153194944D01*
X44644089Y-153125181D01*
X44639801Y-153113651D01*
X44613416Y-153042683D01*
X44587601Y-152973191D01*
X44562518Y-152905615D01*
X44538328Y-152840394D01*
X44515193Y-152777967D01*
X44493277Y-152718772D01*
X44472741Y-152663249D01*
X44453747Y-152611836D01*
X44436457Y-152564973D01*
X44421034Y-152523098D01*
X44407640Y-152486651D01*
X44396436Y-152456071D01*
X44387586Y-152431796D01*
X44381251Y-152414265D01*
X44377594Y-152403918D01*
X44377524Y-152403715D01*
X44370321Y-152383497D01*
X44363639Y-152366341D01*
X44358046Y-152353588D01*
X44354111Y-152346583D01*
X44352952Y-152345654D01*
X44350079Y-152349306D01*
X44345328Y-152359388D01*
X44339255Y-152374554D01*
X44332417Y-152393458D01*
X44328954Y-152403681D01*
X44325401Y-152413920D01*
X44319160Y-152431342D01*
X44310396Y-152455499D01*
X44299276Y-152485941D01*
X44285966Y-152522219D01*
X44270631Y-152563884D01*
X44253438Y-152610487D01*
X44234552Y-152661579D01*
X44214139Y-152716711D01*
X44192367Y-152775433D01*
X44169399Y-152837297D01*
X44145403Y-152901852D01*
X44120544Y-152968651D01*
X44094989Y-153037245D01*
X44075612Y-153089204D01*
X44049810Y-153158363D01*
X44024662Y-153225769D01*
X44000328Y-153290995D01*
X43976967Y-153353617D01*
X43954736Y-153413209D01*
X43933796Y-153469344D01*
X43914304Y-153521597D01*
X43896420Y-153569543D01*
X43880302Y-153612754D01*
X43866110Y-153650806D01*
X43854001Y-153683272D01*
X43844136Y-153709728D01*
X43836673Y-153729746D01*
X43831770Y-153742901D01*
X43829781Y-153748243D01*
X43818050Y-153779820D01*
X43723535Y-153779820D01*
X43729171Y-153764740D01*
X43761252Y-153678900D01*
X43794270Y-153590550D01*
X43828112Y-153499990D01*
X43860575Y-153413121D01*
X43895146Y-153320609D01*
X43929026Y-153229948D01*
X43962101Y-153141442D01*
X43994257Y-153055399D01*
X44025378Y-152972123D01*
X44055352Y-152891920D01*
X44084063Y-152815096D01*
X44111397Y-152741957D01*
X44137241Y-152672809D01*
X44161479Y-152607956D01*
X44183998Y-152547706D01*
X44204683Y-152492363D01*
X44223421Y-152442233D01*
X44240096Y-152397622D01*
X44254595Y-152358836D01*
X44266803Y-152326181D01*
X44276606Y-152299961D01*
X44283890Y-152280484D01*
X44288540Y-152268054D01*
X44290391Y-152263113D01*
X44299213Y-152239685D01*
X44352907Y-152239731D01*
G37*
G36*
X62081929Y-152835442D02*
G01*
X62129233Y-152836589D01*
X62406077Y-153525168D01*
X62435530Y-153598465D01*
X62464538Y-153670729D01*
X62492921Y-153741507D01*
X62520497Y-153810348D01*
X62547086Y-153876799D01*
X62572510Y-153940407D01*
X62596586Y-154000720D01*
X62619135Y-154057285D01*
X62639977Y-154109651D01*
X62658930Y-154157365D01*
X62675816Y-154199974D01*
X62690454Y-154237026D01*
X62702663Y-154268069D01*
X62712263Y-154292650D01*
X62719073Y-154310317D01*
X62721074Y-154315608D01*
X62731605Y-154343236D01*
X62741379Y-154367957D01*
X62749989Y-154388808D01*
X62757026Y-154404822D01*
X62762081Y-154415034D01*
X62764643Y-154418479D01*
X62766611Y-154415319D01*
X62771060Y-154405516D01*
X62778018Y-154389000D01*
X62787512Y-154365702D01*
X62799570Y-154335552D01*
X62814218Y-154298480D01*
X62831485Y-154254415D01*
X62851396Y-154203288D01*
X62873980Y-154145030D01*
X62899263Y-154079569D01*
X62927273Y-154006836D01*
X62958037Y-153926761D01*
X62991582Y-153839275D01*
X63027936Y-153744306D01*
X63067126Y-153641786D01*
X63071022Y-153631588D01*
X63100416Y-153554648D01*
X63129055Y-153479714D01*
X63156801Y-153407143D01*
X63183518Y-153337292D01*
X63209067Y-153270517D01*
X63233314Y-153207176D01*
X63256120Y-153147626D01*
X63277349Y-153092224D01*
X63296864Y-153041327D01*
X63314528Y-152995292D01*
X63330204Y-152954477D01*
X63343755Y-152919237D01*
X63355044Y-152889931D01*
X63363935Y-152866915D01*
X63370291Y-152850546D01*
X63373974Y-152841182D01*
X63374891Y-152838984D01*
X63379995Y-152836736D01*
X63392170Y-152835488D01*
X63411825Y-152835211D01*
X63424891Y-152835436D01*
X63471985Y-152836589D01*
X63085371Y-153851123D01*
X63051898Y-153938948D01*
X63019088Y-154025002D01*
X62987068Y-154108961D01*
X62955961Y-154190495D01*
X62925893Y-154269280D01*
X62896988Y-154344988D01*
X62869372Y-154417293D01*
X62843170Y-154485867D01*
X62818507Y-154550385D01*
X62795506Y-154610519D01*
X62774295Y-154665943D01*
X62754996Y-154716330D01*
X62737736Y-154761354D01*
X62722639Y-154800687D01*
X62709831Y-154834004D01*
X62699435Y-154860977D01*
X62691578Y-154881280D01*
X62686384Y-154894585D01*
X62684097Y-154900289D01*
X62665790Y-154940877D01*
X62644916Y-154982601D01*
X62622399Y-155023873D01*
X62599163Y-155063109D01*
X62576131Y-155098721D01*
X62554226Y-155129123D01*
X62542279Y-155143889D01*
X62509717Y-155177038D01*
X62473658Y-155203976D01*
X62432998Y-155225373D01*
X62386630Y-155241897D01*
X62374839Y-155245131D01*
X62346562Y-155250856D01*
X62313139Y-155254993D01*
X62276886Y-155257474D01*
X62240123Y-155258231D01*
X62205168Y-155257197D01*
X62174339Y-155254303D01*
X62158054Y-155251489D01*
X62142558Y-155247972D01*
X62130399Y-155244902D01*
X62123558Y-155242791D01*
X62122794Y-155242380D01*
X62122689Y-155237824D01*
X62123893Y-155227101D01*
X62126175Y-155212047D01*
X62127947Y-155201796D01*
X62130902Y-155184960D01*
X62133590Y-155173593D01*
X62137481Y-155166863D01*
X62144046Y-155163939D01*
X62154754Y-155163988D01*
X62171077Y-155166180D01*
X62186691Y-155168551D01*
X62237865Y-155172954D01*
X62288034Y-155171107D01*
X62335909Y-155163217D01*
X62380205Y-155149491D01*
X62417244Y-155131560D01*
X62445371Y-155111362D01*
X62473983Y-155083894D01*
X62502498Y-155049968D01*
X62530336Y-155010391D01*
X62556916Y-154965975D01*
X62581658Y-154917529D01*
X62599137Y-154877879D01*
X62607615Y-154856812D01*
X62617446Y-154831587D01*
X62628291Y-154803150D01*
X62639809Y-154772442D01*
X62651662Y-154740408D01*
X62663510Y-154707990D01*
X62675012Y-154676132D01*
X62685831Y-154645776D01*
X62695625Y-154617867D01*
X62704057Y-154593347D01*
X62710785Y-154573160D01*
X62715471Y-154558249D01*
X62717774Y-154549557D01*
X62717932Y-154547862D01*
X62716271Y-154543364D01*
X62711712Y-154531645D01*
X62704392Y-154513047D01*
X62694446Y-154487912D01*
X62682013Y-154456582D01*
X62667227Y-154419398D01*
X62650226Y-154376704D01*
X62631146Y-154328841D01*
X62610123Y-154276150D01*
X62587294Y-154218974D01*
X62562796Y-154157655D01*
X62536764Y-154092535D01*
X62509336Y-154023955D01*
X62480647Y-153952258D01*
X62450834Y-153877786D01*
X62420035Y-153800880D01*
X62388384Y-153721882D01*
X62375398Y-153689479D01*
X62343473Y-153609816D01*
X62312357Y-153532151D01*
X62282186Y-153456824D01*
X62253096Y-153384174D01*
X62225222Y-153314540D01*
X62198699Y-153248259D01*
X62173664Y-153185673D01*
X62150250Y-153127119D01*
X62128594Y-153072936D01*
X62108832Y-153023464D01*
X62091098Y-152979041D01*
X62075529Y-152940007D01*
X62062259Y-152906700D01*
X62051424Y-152879459D01*
X62043160Y-152858623D01*
X62037601Y-152844532D01*
X62034885Y-152837524D01*
X62034624Y-152836775D01*
X62038429Y-152835895D01*
X62048779Y-152835353D01*
X62064073Y-152835193D01*
X62081929Y-152835442D01*
G37*
G36*
X54685515Y-152804991D02*
G01*
X54731806Y-152809544D01*
X54775323Y-152816298D01*
X54785048Y-152818232D01*
X54854295Y-152836682D01*
X54919640Y-152862118D01*
X54980756Y-152894201D01*
X55037314Y-152932594D01*
X55088988Y-152976958D01*
X55135448Y-153026956D01*
X55176367Y-153082249D01*
X55211417Y-153142499D01*
X55240270Y-153207369D01*
X55262598Y-153276520D01*
X55272984Y-153321209D01*
X55279233Y-153355490D01*
X55284022Y-153389031D01*
X55287494Y-153423610D01*
X55289792Y-153461004D01*
X55291060Y-153502992D01*
X55291441Y-153550322D01*
X55291441Y-153641290D01*
X54642958Y-153641290D01*
X53994475Y-153641290D01*
X53997018Y-153742132D01*
X53998668Y-153791862D01*
X54001041Y-153835047D01*
X54004322Y-153873270D01*
X54008694Y-153908117D01*
X54014342Y-153941172D01*
X54021448Y-153974021D01*
X54026107Y-153992813D01*
X54047607Y-154062215D01*
X54075314Y-154128599D01*
X54108743Y-154191406D01*
X54147411Y-154250077D01*
X54190835Y-154304051D01*
X54238530Y-154352770D01*
X54290013Y-154395674D01*
X54344800Y-154432204D01*
X54402408Y-154461799D01*
X54446216Y-154478788D01*
X54505443Y-154494723D01*
X54569946Y-154504559D01*
X54639580Y-154508280D01*
X54714202Y-154505874D01*
X54720379Y-154505417D01*
X54790858Y-154497909D01*
X54854988Y-154486581D01*
X54913765Y-154471133D01*
X54968189Y-154451266D01*
X55019259Y-154426678D01*
X55057161Y-154404188D01*
X55080586Y-154387992D01*
X55105730Y-154368734D01*
X55130243Y-154348346D01*
X55151774Y-154328763D01*
X55164107Y-154316249D01*
X55181064Y-154297853D01*
X55204676Y-154332679D01*
X55228288Y-154367504D01*
X55189810Y-154404024D01*
X55135540Y-154449932D01*
X55075952Y-154489744D01*
X55011218Y-154523385D01*
X54941510Y-154550781D01*
X54866998Y-154571859D01*
X54787855Y-154586545D01*
X54756833Y-154590410D01*
X54734253Y-154592215D01*
X54706502Y-154593432D01*
X54675427Y-154594075D01*
X54642873Y-154594157D01*
X54610687Y-154593694D01*
X54580714Y-154592698D01*
X54554801Y-154591185D01*
X54534794Y-154589167D01*
X54531560Y-154588688D01*
X54460927Y-154573354D01*
X54392777Y-154550315D01*
X54326968Y-154519512D01*
X54263360Y-154480887D01*
X54252461Y-154473331D01*
X54231010Y-154456834D01*
X54206082Y-154435480D01*
X54179251Y-154410806D01*
X54152090Y-154384352D01*
X54126170Y-154357656D01*
X54103064Y-154332257D01*
X54084346Y-154309693D01*
X54081765Y-154306319D01*
X54037818Y-154242333D01*
X54000642Y-154175728D01*
X53969900Y-154105693D01*
X53945257Y-154031421D01*
X53926378Y-153952101D01*
X53919959Y-153916314D01*
X53917727Y-153898013D01*
X53915758Y-153872921D01*
X53914076Y-153842390D01*
X53912701Y-153807774D01*
X53911657Y-153770425D01*
X53910966Y-153731698D01*
X53910651Y-153692945D01*
X53910732Y-153655520D01*
X53911233Y-153620776D01*
X53912177Y-153590067D01*
X53913584Y-153564745D01*
X53914071Y-153558723D01*
X53916027Y-153543330D01*
X54012357Y-153543330D01*
X54014111Y-153552077D01*
X54014786Y-153553010D01*
X54019105Y-153553326D01*
X54031117Y-153553631D01*
X54050368Y-153553923D01*
X54076403Y-153554202D01*
X54108767Y-153554463D01*
X54147004Y-153554706D01*
X54190660Y-153554928D01*
X54239280Y-153555127D01*
X54292408Y-153555301D01*
X54349589Y-153555449D01*
X54410369Y-153555567D01*
X54474293Y-153555654D01*
X54540905Y-153555708D01*
X54609750Y-153555726D01*
X54610211Y-153555726D01*
X55202920Y-153555726D01*
X55200603Y-153475256D01*
X55199271Y-153439608D01*
X55197444Y-153410404D01*
X55194968Y-153385948D01*
X55191688Y-153364544D01*
X55189611Y-153354042D01*
X55172025Y-153287277D01*
X55148505Y-153225212D01*
X55118440Y-153166382D01*
X55098333Y-153134023D01*
X55080552Y-153109828D01*
X55058042Y-153083273D01*
X55032412Y-153055948D01*
X55005270Y-153029439D01*
X54978225Y-153005336D01*
X54952886Y-152985226D01*
X54935921Y-152973691D01*
X54882160Y-152944292D01*
X54826977Y-152921686D01*
X54769420Y-152905639D01*
X54708535Y-152895922D01*
X54643368Y-152892303D01*
X54602862Y-152892921D01*
X54535001Y-152898785D01*
X54471823Y-152911102D01*
X54412693Y-152930148D01*
X54356981Y-152956199D01*
X54304052Y-152989533D01*
X54253273Y-153030424D01*
X54223940Y-153058334D01*
X54173098Y-153114997D01*
X54129161Y-153175731D01*
X54092044Y-153240706D01*
X54061665Y-153310093D01*
X54037940Y-153384060D01*
X54020786Y-153462779D01*
X54018499Y-153476761D01*
X54014582Y-153505045D01*
X54012525Y-153527444D01*
X54012357Y-153543330D01*
X53916027Y-153543330D01*
X53925393Y-153469625D01*
X53943223Y-153385355D01*
X53967640Y-153305737D01*
X53998725Y-153230591D01*
X54036557Y-153159740D01*
X54081215Y-153093006D01*
X54132780Y-153030209D01*
X54165287Y-152996113D01*
X54220692Y-152946135D01*
X54278937Y-152903762D01*
X54340238Y-152868901D01*
X54404809Y-152841455D01*
X54472866Y-152821328D01*
X54544623Y-152808425D01*
X54598405Y-152803570D01*
X54639898Y-152802909D01*
X54685515Y-152804991D01*
G37*
G36*
X58935146Y-152804991D02*
G01*
X58981437Y-152809544D01*
X59024954Y-152816298D01*
X59034679Y-152818232D01*
X59103926Y-152836682D01*
X59169271Y-152862118D01*
X59230387Y-152894201D01*
X59286945Y-152932594D01*
X59338619Y-152976958D01*
X59385079Y-153026956D01*
X59425998Y-153082249D01*
X59461048Y-153142499D01*
X59489901Y-153207369D01*
X59512229Y-153276520D01*
X59522615Y-153321209D01*
X59528864Y-153355490D01*
X59533653Y-153389031D01*
X59537125Y-153423610D01*
X59539423Y-153461004D01*
X59540691Y-153502992D01*
X59541072Y-153550322D01*
X59541072Y-153641290D01*
X58892589Y-153641290D01*
X58244106Y-153641290D01*
X58246649Y-153742132D01*
X58248299Y-153791862D01*
X58250672Y-153835047D01*
X58253953Y-153873270D01*
X58258325Y-153908117D01*
X58263973Y-153941172D01*
X58271079Y-153974021D01*
X58275738Y-153992813D01*
X58297238Y-154062215D01*
X58324945Y-154128599D01*
X58358374Y-154191406D01*
X58397042Y-154250077D01*
X58440466Y-154304051D01*
X58488161Y-154352770D01*
X58539644Y-154395674D01*
X58594431Y-154432204D01*
X58652039Y-154461799D01*
X58695847Y-154478788D01*
X58755074Y-154494723D01*
X58819577Y-154504559D01*
X58889211Y-154508280D01*
X58963833Y-154505874D01*
X58970010Y-154505417D01*
X59040490Y-154497909D01*
X59104619Y-154486581D01*
X59163396Y-154471133D01*
X59217820Y-154451266D01*
X59268891Y-154426678D01*
X59306793Y-154404188D01*
X59330217Y-154387992D01*
X59355361Y-154368734D01*
X59379874Y-154348346D01*
X59401405Y-154328763D01*
X59413738Y-154316249D01*
X59430695Y-154297853D01*
X59454307Y-154332679D01*
X59477919Y-154367504D01*
X59439441Y-154404024D01*
X59385171Y-154449932D01*
X59325583Y-154489744D01*
X59260849Y-154523385D01*
X59191141Y-154550781D01*
X59116629Y-154571859D01*
X59037486Y-154586545D01*
X59006464Y-154590410D01*
X58983884Y-154592215D01*
X58956134Y-154593432D01*
X58925058Y-154594075D01*
X58892504Y-154594157D01*
X58860318Y-154593694D01*
X58830345Y-154592698D01*
X58804432Y-154591185D01*
X58784425Y-154589167D01*
X58781191Y-154588688D01*
X58710558Y-154573354D01*
X58642408Y-154550315D01*
X58576599Y-154519512D01*
X58512992Y-154480887D01*
X58502092Y-154473331D01*
X58480641Y-154456834D01*
X58455713Y-154435480D01*
X58428882Y-154410806D01*
X58401721Y-154384352D01*
X58375801Y-154357656D01*
X58352695Y-154332257D01*
X58333977Y-154309693D01*
X58331396Y-154306319D01*
X58287449Y-154242333D01*
X58250273Y-154175728D01*
X58219531Y-154105693D01*
X58194889Y-154031421D01*
X58176009Y-153952101D01*
X58169591Y-153916314D01*
X58167358Y-153898013D01*
X58165389Y-153872921D01*
X58163707Y-153842390D01*
X58162332Y-153807774D01*
X58161288Y-153770425D01*
X58160597Y-153731698D01*
X58160282Y-153692945D01*
X58160363Y-153655520D01*
X58160864Y-153620776D01*
X58161808Y-153590067D01*
X58163215Y-153564745D01*
X58163703Y-153558723D01*
X58165659Y-153543330D01*
X58261988Y-153543330D01*
X58263742Y-153552077D01*
X58264417Y-153553010D01*
X58268736Y-153553326D01*
X58280748Y-153553631D01*
X58300000Y-153553923D01*
X58326034Y-153554202D01*
X58358398Y-153554463D01*
X58396635Y-153554706D01*
X58440291Y-153554928D01*
X58488911Y-153555127D01*
X58542039Y-153555301D01*
X58599220Y-153555449D01*
X58660000Y-153555567D01*
X58723924Y-153555654D01*
X58790536Y-153555708D01*
X58859381Y-153555726D01*
X58859842Y-153555726D01*
X59452551Y-153555726D01*
X59450234Y-153475256D01*
X59448902Y-153439608D01*
X59447075Y-153410404D01*
X59444599Y-153385948D01*
X59441319Y-153364544D01*
X59439242Y-153354042D01*
X59421656Y-153287277D01*
X59398136Y-153225212D01*
X59368072Y-153166382D01*
X59347964Y-153134023D01*
X59330184Y-153109828D01*
X59307673Y-153083273D01*
X59282043Y-153055948D01*
X59254901Y-153029439D01*
X59227856Y-153005336D01*
X59202517Y-152985226D01*
X59185553Y-152973691D01*
X59131791Y-152944292D01*
X59076609Y-152921686D01*
X59019051Y-152905639D01*
X58958166Y-152895922D01*
X58893000Y-152892303D01*
X58852494Y-152892921D01*
X58784632Y-152898785D01*
X58721454Y-152911102D01*
X58662324Y-152930148D01*
X58606612Y-152956199D01*
X58553683Y-152989533D01*
X58502904Y-153030424D01*
X58473571Y-153058334D01*
X58422729Y-153114997D01*
X58378792Y-153175731D01*
X58341675Y-153240706D01*
X58311296Y-153310093D01*
X58287572Y-153384060D01*
X58270417Y-153462779D01*
X58268130Y-153476761D01*
X58264213Y-153505045D01*
X58262156Y-153527444D01*
X58261988Y-153543330D01*
X58165659Y-153543330D01*
X58175024Y-153469625D01*
X58192854Y-153385355D01*
X58217271Y-153305737D01*
X58248356Y-153230591D01*
X58286188Y-153159740D01*
X58330846Y-153093006D01*
X58382411Y-153030209D01*
X58414918Y-152996113D01*
X58470323Y-152946135D01*
X58528569Y-152903762D01*
X58589869Y-152868901D01*
X58654440Y-152841455D01*
X58722497Y-152821328D01*
X58794255Y-152808425D01*
X58848036Y-152803570D01*
X58889529Y-152802909D01*
X58935146Y-152804991D01*
G37*
G36*
X61253497Y-152804991D02*
G01*
X61299788Y-152809544D01*
X61343305Y-152816298D01*
X61353030Y-152818232D01*
X61422277Y-152836682D01*
X61487622Y-152862118D01*
X61548738Y-152894201D01*
X61605296Y-152932594D01*
X61656970Y-152976958D01*
X61703430Y-153026956D01*
X61744349Y-153082249D01*
X61779399Y-153142499D01*
X61808252Y-153207369D01*
X61830580Y-153276520D01*
X61840966Y-153321209D01*
X61847215Y-153355490D01*
X61852004Y-153389031D01*
X61855476Y-153423610D01*
X61857774Y-153461004D01*
X61859042Y-153502992D01*
X61859423Y-153550322D01*
X61859423Y-153641290D01*
X61210940Y-153641290D01*
X60562457Y-153641290D01*
X60565000Y-153742132D01*
X60566650Y-153791862D01*
X60569023Y-153835047D01*
X60572304Y-153873270D01*
X60576676Y-153908117D01*
X60582324Y-153941172D01*
X60589430Y-153974021D01*
X60594089Y-153992813D01*
X60615589Y-154062215D01*
X60643296Y-154128599D01*
X60676725Y-154191406D01*
X60715393Y-154250077D01*
X60758817Y-154304051D01*
X60806512Y-154352770D01*
X60857995Y-154395674D01*
X60912782Y-154432204D01*
X60970390Y-154461799D01*
X61014198Y-154478788D01*
X61073425Y-154494723D01*
X61137928Y-154504559D01*
X61207562Y-154508280D01*
X61282184Y-154505874D01*
X61288361Y-154505417D01*
X61358841Y-154497909D01*
X61422970Y-154486581D01*
X61481747Y-154471133D01*
X61536171Y-154451266D01*
X61587241Y-154426678D01*
X61625144Y-154404188D01*
X61648568Y-154387992D01*
X61673712Y-154368734D01*
X61698225Y-154348346D01*
X61719756Y-154328763D01*
X61732089Y-154316249D01*
X61749046Y-154297853D01*
X61772658Y-154332679D01*
X61796270Y-154367504D01*
X61757792Y-154404024D01*
X61703522Y-154449932D01*
X61643934Y-154489744D01*
X61579200Y-154523385D01*
X61509492Y-154550781D01*
X61434980Y-154571859D01*
X61355837Y-154586545D01*
X61324815Y-154590410D01*
X61302235Y-154592215D01*
X61274484Y-154593432D01*
X61243409Y-154594075D01*
X61210855Y-154594157D01*
X61178669Y-154593694D01*
X61148696Y-154592698D01*
X61122783Y-154591185D01*
X61102776Y-154589167D01*
X61099542Y-154588688D01*
X61028909Y-154573354D01*
X60960759Y-154550315D01*
X60894950Y-154519512D01*
X60831342Y-154480887D01*
X60820443Y-154473331D01*
X60798992Y-154456834D01*
X60774064Y-154435480D01*
X60747233Y-154410806D01*
X60720072Y-154384352D01*
X60694152Y-154357656D01*
X60671046Y-154332257D01*
X60652328Y-154309693D01*
X60649747Y-154306319D01*
X60605800Y-154242333D01*
X60568624Y-154175728D01*
X60537882Y-154105693D01*
X60513239Y-154031421D01*
X60494360Y-153952101D01*
X60487942Y-153916314D01*
X60485709Y-153898013D01*
X60483740Y-153872921D01*
X60482058Y-153842390D01*
X60480683Y-153807774D01*
X60479639Y-153770425D01*
X60478948Y-153731698D01*
X60478633Y-153692945D01*
X60478714Y-153655520D01*
X60479215Y-153620776D01*
X60480159Y-153590067D01*
X60481566Y-153564745D01*
X60482054Y-153558723D01*
X60484010Y-153543330D01*
X60580339Y-153543330D01*
X60582093Y-153552077D01*
X60582768Y-153553010D01*
X60587087Y-153553326D01*
X60599099Y-153553631D01*
X60618350Y-153553923D01*
X60644385Y-153554202D01*
X60676749Y-153554463D01*
X60714986Y-153554706D01*
X60758642Y-153554928D01*
X60807262Y-153555127D01*
X60860390Y-153555301D01*
X60917571Y-153555449D01*
X60978351Y-153555567D01*
X61042275Y-153555654D01*
X61108887Y-153555708D01*
X61177732Y-153555726D01*
X61178193Y-153555726D01*
X61770902Y-153555726D01*
X61768585Y-153475256D01*
X61767253Y-153439608D01*
X61765426Y-153410404D01*
X61762950Y-153385948D01*
X61759670Y-153364544D01*
X61757593Y-153354042D01*
X61740007Y-153287277D01*
X61716487Y-153225212D01*
X61686422Y-153166382D01*
X61666315Y-153134023D01*
X61648534Y-153109828D01*
X61626024Y-153083273D01*
X61600394Y-153055948D01*
X61573252Y-153029439D01*
X61546207Y-153005336D01*
X61520868Y-152985226D01*
X61503904Y-152973691D01*
X61450142Y-152944292D01*
X61394959Y-152921686D01*
X61337402Y-152905639D01*
X61276517Y-152895922D01*
X61211350Y-152892303D01*
X61170845Y-152892921D01*
X61102983Y-152898785D01*
X61039805Y-152911102D01*
X60980675Y-152930148D01*
X60924963Y-152956199D01*
X60872034Y-152989533D01*
X60821255Y-153030424D01*
X60791922Y-153058334D01*
X60741080Y-153114997D01*
X60697143Y-153175731D01*
X60660026Y-153240706D01*
X60629647Y-153310093D01*
X60605923Y-153384060D01*
X60588768Y-153462779D01*
X60586481Y-153476761D01*
X60582564Y-153505045D01*
X60580507Y-153527444D01*
X60580339Y-153543330D01*
X60484010Y-153543330D01*
X60493375Y-153469625D01*
X60511205Y-153385355D01*
X60535622Y-153305737D01*
X60566707Y-153230591D01*
X60604539Y-153159740D01*
X60649197Y-153093006D01*
X60700762Y-153030209D01*
X60733269Y-152996113D01*
X60788674Y-152946135D01*
X60846920Y-152903762D01*
X60908220Y-152868901D01*
X60972791Y-152841455D01*
X61040848Y-152821328D01*
X61112605Y-152808425D01*
X61166387Y-152803570D01*
X61207880Y-152802909D01*
X61253497Y-152804991D01*
G37*
G36*
X48043705Y-152807833D02*
G01*
X48111884Y-152817252D01*
X48176882Y-152831443D01*
X48237481Y-152850282D01*
X48292464Y-152873647D01*
X48293607Y-152874214D01*
X48332952Y-152896313D01*
X48371729Y-152922802D01*
X48408275Y-152952288D01*
X48440926Y-152983380D01*
X48468016Y-153014688D01*
X48477688Y-153028088D01*
X48505536Y-153075966D01*
X48526653Y-153126601D01*
X48540686Y-153178801D01*
X48547280Y-153231378D01*
X48547527Y-153262367D01*
X48546221Y-153297000D01*
X48509131Y-153298164D01*
X48472040Y-153299327D01*
X48469344Y-153267001D01*
X48461365Y-153215157D01*
X48446222Y-153166489D01*
X48423702Y-153120567D01*
X48393595Y-153076961D01*
X48355686Y-153035242D01*
X48354141Y-153033738D01*
X48311519Y-152997123D01*
X48264845Y-152966173D01*
X48213435Y-152940559D01*
X48156606Y-152919951D01*
X48093677Y-152904022D01*
X48078623Y-152901051D01*
X48056156Y-152897935D01*
X48027354Y-152895618D01*
X47993991Y-152894098D01*
X47957841Y-152893376D01*
X47920677Y-152893451D01*
X47884274Y-152894322D01*
X47850406Y-152895988D01*
X47820848Y-152898450D01*
X47800601Y-152901140D01*
X47746771Y-152912661D01*
X47695719Y-152928512D01*
X47649029Y-152948105D01*
X47608288Y-152970851D01*
X47602991Y-152974361D01*
X47586229Y-152987194D01*
X47566688Y-153004431D01*
X47546388Y-153024066D01*
X47527351Y-153044094D01*
X47511596Y-153062512D01*
X47504404Y-153072183D01*
X47480148Y-153114540D01*
X47463332Y-153159112D01*
X47453949Y-153205049D01*
X47451992Y-153251498D01*
X47457457Y-153297611D01*
X47470336Y-153342534D01*
X47490623Y-153385419D01*
X47506811Y-153410458D01*
X47528431Y-153437526D01*
X47553091Y-153462596D01*
X47581322Y-153485925D01*
X47613652Y-153507767D01*
X47650611Y-153528377D01*
X47692729Y-153548010D01*
X47740534Y-153566922D01*
X47794557Y-153585367D01*
X47855327Y-153603600D01*
X47923374Y-153621876D01*
X47969690Y-153633399D01*
X48058206Y-153656585D01*
X48138871Y-153681369D01*
X48211838Y-153707840D01*
X48277263Y-153736085D01*
X48335300Y-153766192D01*
X48386104Y-153798247D01*
X48429831Y-153832339D01*
X48466636Y-153868555D01*
X48496673Y-153906983D01*
X48517680Y-153942795D01*
X48536529Y-153986597D01*
X48549668Y-154032242D01*
X48557360Y-154081106D01*
X48559870Y-154134569D01*
X48559397Y-154160013D01*
X48554565Y-154215121D01*
X48543961Y-154265122D01*
X48527113Y-154311100D01*
X48503547Y-154354138D01*
X48472793Y-154395322D01*
X48442701Y-154427655D01*
X48395917Y-154468734D01*
X48344501Y-154503877D01*
X48288129Y-154533228D01*
X48226477Y-154556932D01*
X48159219Y-154575133D01*
X48086031Y-154587978D01*
X48082546Y-154588439D01*
X48060134Y-154590624D01*
X48031503Y-154592304D01*
X47998567Y-154593467D01*
X47963241Y-154594100D01*
X47927440Y-154594190D01*
X47893079Y-154593723D01*
X47862071Y-154592688D01*
X47836332Y-154591070D01*
X47827084Y-154590161D01*
X47759796Y-154579748D01*
X47694766Y-154564310D01*
X47633161Y-154544253D01*
X47576150Y-154519984D01*
X47524902Y-154491910D01*
X47502636Y-154477163D01*
X47457912Y-154441762D01*
X47418592Y-154402793D01*
X47385304Y-154361080D01*
X47358678Y-154317448D01*
X47339343Y-154272724D01*
X47334262Y-154256417D01*
X47329120Y-154234681D01*
X47324830Y-154210284D01*
X47321663Y-154185558D01*
X47319888Y-154162833D01*
X47319776Y-154144443D01*
X47320467Y-154137351D01*
X47322897Y-154122072D01*
X47358753Y-154122072D01*
X47394608Y-154122072D01*
X47397287Y-154145500D01*
X47406855Y-154199112D01*
X47422702Y-154249069D01*
X47444480Y-154294711D01*
X47471843Y-154335376D01*
X47504442Y-154370402D01*
X47523932Y-154386611D01*
X47548599Y-154403343D01*
X47578914Y-154420845D01*
X47612608Y-154437962D01*
X47647410Y-154453537D01*
X47680122Y-154466095D01*
X47739100Y-154483407D01*
X47802303Y-154496172D01*
X47868195Y-154504362D01*
X47935238Y-154507953D01*
X48001895Y-154506917D01*
X48066629Y-154501231D01*
X48127902Y-154490866D01*
X48184178Y-154475798D01*
X48187633Y-154474653D01*
X48241746Y-154452970D01*
X48292022Y-154425783D01*
X48337675Y-154393722D01*
X48377915Y-154357418D01*
X48411953Y-154317503D01*
X48439002Y-154274607D01*
X48439933Y-154272826D01*
X48454035Y-154243125D01*
X48463593Y-154216056D01*
X48469321Y-154188659D01*
X48471930Y-154157974D01*
X48472294Y-154138370D01*
X48470498Y-154098986D01*
X48464537Y-154063351D01*
X48453756Y-154029387D01*
X48437499Y-153995018D01*
X48415539Y-153958820D01*
X48384632Y-153918841D01*
X48346625Y-153881813D01*
X48301424Y-153847685D01*
X48248934Y-153816403D01*
X48189059Y-153787914D01*
X48121707Y-153762165D01*
X48046781Y-153739105D01*
X48000920Y-153727208D01*
X47971977Y-153720173D01*
X47939269Y-153712249D01*
X47906440Y-153704318D01*
X47877137Y-153697262D01*
X47871903Y-153696005D01*
X47829993Y-153685239D01*
X47786127Y-153672697D01*
X47742313Y-153659032D01*
X47700559Y-153644895D01*
X47662872Y-153630937D01*
X47632191Y-153618225D01*
X47577650Y-153591931D01*
X47530672Y-153564736D01*
X47490677Y-153536008D01*
X47457084Y-153505114D01*
X47429311Y-153471423D01*
X47406778Y-153434301D01*
X47388904Y-153393116D01*
X47375108Y-153347235D01*
X47372305Y-153335306D01*
X47368795Y-153313606D01*
X47366462Y-153286686D01*
X47365310Y-153256813D01*
X47365343Y-153226258D01*
X47366564Y-153197286D01*
X47368978Y-153172168D01*
X47371990Y-153155465D01*
X47389430Y-153101289D01*
X47413979Y-153050701D01*
X47445289Y-153003999D01*
X47483016Y-152961479D01*
X47526812Y-152923435D01*
X47576333Y-152890166D01*
X47631232Y-152861966D01*
X47691163Y-152839131D01*
X47755781Y-152821959D01*
X47763517Y-152820356D01*
X47832251Y-152809449D01*
X47902672Y-152803808D01*
X47973562Y-152803311D01*
X48043705Y-152807833D01*
G37*
G36*
X52501475Y-152240724D02*
G01*
X52565932Y-152240979D01*
X52622799Y-152241223D01*
X52672636Y-152241471D01*
X52716002Y-152241734D01*
X52753455Y-152242027D01*
X52785555Y-152242362D01*
X52812862Y-152242753D01*
X52835933Y-152243212D01*
X52855330Y-152243752D01*
X52871610Y-152244387D01*
X52885332Y-152245129D01*
X52897057Y-152245991D01*
X52907343Y-152246988D01*
X52916749Y-152248130D01*
X52925834Y-152249433D01*
X52934644Y-152250824D01*
X53013084Y-152265908D01*
X53084597Y-152284666D01*
X53149624Y-152307293D01*
X53208608Y-152333984D01*
X53261990Y-152364936D01*
X53310213Y-152400343D01*
X53346444Y-152433066D01*
X53385803Y-152477103D01*
X53418868Y-152525265D01*
X53445895Y-152578063D01*
X53467139Y-152636006D01*
X53482853Y-152699603D01*
X53484861Y-152710282D01*
X53488934Y-152740362D01*
X53491565Y-152775936D01*
X53492767Y-152814766D01*
X53492555Y-152854612D01*
X53490941Y-152893234D01*
X53487939Y-152928393D01*
X53483563Y-152957851D01*
X53483352Y-152958919D01*
X53467502Y-153022767D01*
X53446588Y-153080652D01*
X53420251Y-153133264D01*
X53388132Y-153181291D01*
X53349872Y-153225423D01*
X53339168Y-153236061D01*
X53294512Y-153274332D01*
X53246927Y-153305439D01*
X53195316Y-153330002D01*
X53141705Y-153347800D01*
X53125912Y-153352169D01*
X53112723Y-153355941D01*
X53104481Y-153358441D01*
X53103472Y-153358786D01*
X53104452Y-153360480D01*
X53112050Y-153363222D01*
X53124874Y-153366568D01*
X53134658Y-153368714D01*
X53189797Y-153383356D01*
X53245439Y-153404250D01*
X53299133Y-153430293D01*
X53348427Y-153460386D01*
X53364736Y-153472082D01*
X53392005Y-153494477D01*
X53421257Y-153521811D01*
X53450443Y-153551941D01*
X53477518Y-153582724D01*
X53500433Y-153612017D01*
X53506174Y-153620169D01*
X53540059Y-153676617D01*
X53566307Y-153735637D01*
X53584954Y-153797373D01*
X53596034Y-153861966D01*
X53599582Y-153929558D01*
X53596705Y-153989442D01*
X53588913Y-154052119D01*
X53577318Y-154109000D01*
X53561480Y-154161710D01*
X53540956Y-154211877D01*
X53530535Y-154233159D01*
X53507405Y-154273865D01*
X53481278Y-154311037D01*
X53450448Y-154346918D01*
X53422838Y-154374687D01*
X53376178Y-154415138D01*
X53326199Y-154450293D01*
X53272139Y-154480511D01*
X53213238Y-154506150D01*
X53148732Y-154527568D01*
X53077862Y-154545125D01*
X53048467Y-154550978D01*
X53041147Y-154552301D01*
X53033819Y-154553480D01*
X53025982Y-154554525D01*
X53017137Y-154555447D01*
X53006784Y-154556256D01*
X52994422Y-154556961D01*
X52979553Y-154557574D01*
X52961674Y-154558104D01*
X52940288Y-154558561D01*
X52914892Y-154558957D01*
X52884988Y-154559300D01*
X52850076Y-154559602D01*
X52809655Y-154559873D01*
X52763225Y-154560122D01*
X52710286Y-154560361D01*
X52650339Y-154560599D01*
X52582883Y-154560846D01*
X52562591Y-154560918D01*
X52121534Y-154562483D01*
X52121534Y-153417196D01*
X52211172Y-153417196D01*
X52211172Y-153947167D01*
X52211172Y-154477139D01*
X52591112Y-154475380D01*
X52665753Y-154474991D01*
X52732441Y-154474552D01*
X52791375Y-154474059D01*
X52842751Y-154473509D01*
X52886766Y-154472899D01*
X52923617Y-154472225D01*
X52953501Y-154471485D01*
X52976615Y-154470675D01*
X52993157Y-154469792D01*
X53003322Y-154468834D01*
X53003648Y-154468787D01*
X53061248Y-154458921D01*
X53112455Y-154447202D01*
X53158908Y-154433157D01*
X53202246Y-154416308D01*
X53231108Y-154402841D01*
X53288418Y-154370156D01*
X53339336Y-154332447D01*
X53383792Y-154289834D01*
X53421714Y-154242437D01*
X53453032Y-154190376D01*
X53477675Y-154133772D01*
X53495570Y-154072743D01*
X53506648Y-154007411D01*
X53510837Y-153937894D01*
X53510875Y-153930574D01*
X53507393Y-153865947D01*
X53496836Y-153805273D01*
X53479069Y-153748230D01*
X53453955Y-153694496D01*
X53421357Y-153643751D01*
X53381139Y-153595674D01*
X53359574Y-153573915D01*
X53311248Y-153532948D01*
X53258148Y-153498237D01*
X53200096Y-153469707D01*
X53136917Y-153447282D01*
X53068433Y-153430885D01*
X53004828Y-153421512D01*
X52993117Y-153420710D01*
X52973548Y-153419982D01*
X52946414Y-153419331D01*
X52912006Y-153418761D01*
X52870614Y-153418275D01*
X52822530Y-153417875D01*
X52768047Y-153417564D01*
X52707454Y-153417346D01*
X52641043Y-153417223D01*
X52588217Y-153417196D01*
X52211172Y-153417196D01*
X52121534Y-153417196D01*
X52121534Y-153400872D01*
X52121534Y-152325248D01*
X52211172Y-152325248D01*
X52211172Y-152826655D01*
X52211172Y-153328062D01*
X52552405Y-153326514D01*
X52613387Y-153326230D01*
X52666820Y-153325956D01*
X52713305Y-153325676D01*
X52753442Y-153325376D01*
X52787830Y-153325040D01*
X52817070Y-153324651D01*
X52841762Y-153324196D01*
X52862506Y-153323657D01*
X52879903Y-153323020D01*
X52894553Y-153322269D01*
X52907055Y-153321389D01*
X52918010Y-153320364D01*
X52928018Y-153319179D01*
X52937679Y-153317817D01*
X52947320Y-153316309D01*
X53016228Y-153303108D01*
X53078079Y-153286771D01*
X53133430Y-153267052D01*
X53182843Y-153243710D01*
X53226876Y-153216499D01*
X53266089Y-153185177D01*
X53281005Y-153170988D01*
X53315808Y-153131503D01*
X53344510Y-153088518D01*
X53367338Y-153041455D01*
X53384521Y-152989734D01*
X53396284Y-152932777D01*
X53402856Y-152870004D01*
X53403460Y-152858999D01*
X53403466Y-152791112D01*
X53396761Y-152727449D01*
X53383389Y-152668139D01*
X53363398Y-152613316D01*
X53336834Y-152563111D01*
X53303743Y-152517655D01*
X53271619Y-152483876D01*
X53227589Y-152447741D01*
X53177820Y-152416414D01*
X53122128Y-152389828D01*
X53060327Y-152367920D01*
X52992235Y-152350624D01*
X52917666Y-152337875D01*
X52836437Y-152329608D01*
X52834560Y-152329476D01*
X52820302Y-152328766D01*
X52798747Y-152328094D01*
X52770747Y-152327469D01*
X52737152Y-152326902D01*
X52698814Y-152326404D01*
X52656585Y-152325984D01*
X52611316Y-152325654D01*
X52563858Y-152325424D01*
X52515063Y-152325304D01*
X52493326Y-152325289D01*
X52211172Y-152325248D01*
X52121534Y-152325248D01*
X52121534Y-152239261D01*
X52501475Y-152240724D01*
G37*
G36*
X52429898Y-148586548D02*
G01*
X52507089Y-148595827D01*
X52583803Y-148613093D01*
X52659896Y-148638305D01*
X52735224Y-148671423D01*
X52809641Y-148712406D01*
X52883004Y-148761214D01*
X52955167Y-148817807D01*
X52957471Y-148819760D01*
X52992783Y-148849759D01*
X53458626Y-148849830D01*
X53532600Y-148849838D01*
X53598894Y-148849853D01*
X53657975Y-148849898D01*
X53710311Y-148849995D01*
X53756372Y-148850167D01*
X53796624Y-148850436D01*
X53831536Y-148850826D01*
X53861576Y-148851359D01*
X53887213Y-148852057D01*
X53908914Y-148852942D01*
X53927148Y-148854039D01*
X53942383Y-148855368D01*
X53955087Y-148856953D01*
X53965727Y-148858817D01*
X53974773Y-148860981D01*
X53982693Y-148863469D01*
X53989954Y-148866303D01*
X53997024Y-148869506D01*
X54004373Y-148873100D01*
X54011240Y-148876506D01*
X54032029Y-148888541D01*
X54053434Y-148903883D01*
X54066610Y-148915121D01*
X54071025Y-148919368D01*
X54075364Y-148923910D01*
X54079894Y-148929198D01*
X54084881Y-148935680D01*
X54090589Y-148943806D01*
X54097285Y-148954025D01*
X54105235Y-148966786D01*
X54114705Y-148982540D01*
X54125960Y-149001734D01*
X54139267Y-149024819D01*
X54154890Y-149052244D01*
X54173097Y-149084458D01*
X54194153Y-149121911D01*
X54218324Y-149165052D01*
X54245875Y-149214329D01*
X54277073Y-149270194D01*
X54283385Y-149281499D01*
X54474518Y-149623891D01*
X56208188Y-149623920D01*
X56351514Y-149623925D01*
X56486918Y-149623935D01*
X56614624Y-149623952D01*
X56734860Y-149623975D01*
X56847850Y-149624007D01*
X56953821Y-149624046D01*
X57052998Y-149624096D01*
X57145608Y-149624155D01*
X57231877Y-149624225D01*
X57312030Y-149624307D01*
X57386293Y-149624401D01*
X57454892Y-149624508D01*
X57518054Y-149624630D01*
X57576003Y-149624766D01*
X57628967Y-149624918D01*
X57677170Y-149625086D01*
X57720840Y-149625271D01*
X57760201Y-149625474D01*
X57795479Y-149625696D01*
X57826901Y-149625937D01*
X57854693Y-149626198D01*
X57879080Y-149626481D01*
X57900288Y-149626785D01*
X57918544Y-149627112D01*
X57934072Y-149627462D01*
X57947100Y-149627836D01*
X57957852Y-149628235D01*
X57966556Y-149628660D01*
X57973436Y-149629111D01*
X57978719Y-149629589D01*
X57982248Y-149630037D01*
X57999649Y-149632611D01*
X58014021Y-149634646D01*
X58023462Y-149635879D01*
X58026048Y-149636124D01*
X58026651Y-149632166D01*
X58027221Y-149620754D01*
X58027747Y-149602585D01*
X58028220Y-149578353D01*
X58028631Y-149548755D01*
X58028969Y-149514486D01*
X58029226Y-149476242D01*
X58029392Y-149434718D01*
X58029458Y-149390610D01*
X58029459Y-149385547D01*
X58029459Y-149134969D01*
X58125208Y-149134969D01*
X58220957Y-149134969D01*
X58220957Y-149395733D01*
X58220965Y-149448269D01*
X58221001Y-149493243D01*
X58221081Y-149531240D01*
X58221221Y-149562847D01*
X58221440Y-149588650D01*
X58221753Y-149609235D01*
X58222177Y-149625189D01*
X58222728Y-149637098D01*
X58223425Y-149645548D01*
X58224282Y-149651125D01*
X58225317Y-149654416D01*
X58226547Y-149656006D01*
X58227988Y-149656483D01*
X58228389Y-149656496D01*
X58235294Y-149657495D01*
X58248623Y-149660253D01*
X58266931Y-149664413D01*
X58288773Y-149669618D01*
X58312704Y-149675511D01*
X58337278Y-149681734D01*
X58361052Y-149687930D01*
X58382579Y-149693743D01*
X58400414Y-149698814D01*
X58404306Y-149699979D01*
X58472074Y-149722794D01*
X58533012Y-149747998D01*
X58586949Y-149775471D01*
X58633714Y-149805095D01*
X58673136Y-149836751D01*
X58705044Y-149870319D01*
X58729267Y-149905681D01*
X58743151Y-149935595D01*
X58748651Y-149957449D01*
X58751779Y-149986172D01*
X58752599Y-150020857D01*
X58751174Y-150060595D01*
X58747567Y-150104479D01*
X58741842Y-150151601D01*
X58734063Y-150201055D01*
X58724291Y-150251931D01*
X58719548Y-150273773D01*
X58699454Y-150354105D01*
X58676243Y-150430661D01*
X58650164Y-150503041D01*
X58621465Y-150570844D01*
X58590395Y-150633670D01*
X58557203Y-150691118D01*
X58522136Y-150742788D01*
X58485444Y-150788279D01*
X58447373Y-150827192D01*
X58408173Y-150859125D01*
X58368093Y-150883679D01*
X58331661Y-150899075D01*
X58303526Y-150906776D01*
X58273899Y-150911347D01*
X58240842Y-150912957D01*
X58202415Y-150911774D01*
X58193208Y-150911167D01*
X58135307Y-150904640D01*
X58081761Y-150893734D01*
X58033180Y-150878680D01*
X57990174Y-150859713D01*
X57953351Y-150837065D01*
X57923323Y-150810969D01*
X57919025Y-150806305D01*
X57915901Y-150802811D01*
X57913012Y-150799473D01*
X57910176Y-150795882D01*
X57907211Y-150791633D01*
X57903934Y-150786319D01*
X57900163Y-150779533D01*
X57895717Y-150770869D01*
X57890412Y-150759920D01*
X57884067Y-150746280D01*
X57876500Y-150729542D01*
X57867528Y-150709299D01*
X57856969Y-150685144D01*
X57844641Y-150656672D01*
X57830363Y-150623475D01*
X57813950Y-150585148D01*
X57795223Y-150541282D01*
X57773997Y-150491473D01*
X57750092Y-150435312D01*
X57723324Y-150372394D01*
X57699146Y-150315554D01*
X57526266Y-149909148D01*
X55739629Y-149909216D01*
X53952991Y-149909284D01*
X53820075Y-150293213D01*
X53687160Y-150677141D01*
X52373165Y-150678166D01*
X51059170Y-150679191D01*
X51038860Y-150621124D01*
X51034372Y-150608262D01*
X51027458Y-150588400D01*
X51018360Y-150562238D01*
X51007322Y-150530475D01*
X50994585Y-150493811D01*
X50980394Y-150452946D01*
X50964991Y-150408579D01*
X50948619Y-150361409D01*
X50931521Y-150312136D01*
X50913939Y-150261460D01*
X50905136Y-150236080D01*
X50791722Y-149909102D01*
X49005093Y-149910125D01*
X47218465Y-149911148D01*
X47048399Y-150310443D01*
X47025036Y-150365278D01*
X47002346Y-150418507D01*
X46980558Y-150469589D01*
X46959904Y-150517981D01*
X46940616Y-150563143D01*
X46922926Y-150604532D01*
X46907065Y-150641607D01*
X46893264Y-150673827D01*
X46881756Y-150700649D01*
X46872772Y-150721533D01*
X46866542Y-150735937D01*
X46863524Y-150742821D01*
X46842691Y-150779479D01*
X46814916Y-150812102D01*
X46780420Y-150840539D01*
X46739425Y-150864640D01*
X46692152Y-150884256D01*
X46638822Y-150899237D01*
X46630204Y-150901098D01*
X46618749Y-150903038D01*
X46602254Y-150905271D01*
X46582440Y-150907623D01*
X46561028Y-150909925D01*
X46539740Y-150912004D01*
X46520298Y-150913689D01*
X46504423Y-150914809D01*
X46493837Y-150915193D01*
X46490671Y-150914983D01*
X46485875Y-150914191D01*
X46475385Y-150912615D01*
X46462985Y-150910814D01*
X46422731Y-150901064D01*
X46382278Y-150883488D01*
X46341996Y-150858393D01*
X46302255Y-150826083D01*
X46263424Y-150786861D01*
X46225873Y-150741032D01*
X46189973Y-150688901D01*
X46186243Y-150682960D01*
X46153124Y-150624690D01*
X46121955Y-150559986D01*
X46093162Y-150490311D01*
X46067167Y-150417124D01*
X46044396Y-150341887D01*
X46025272Y-150266061D01*
X46010219Y-150191108D01*
X45999663Y-150118488D01*
X45994027Y-150049664D01*
X45993191Y-150018028D01*
X45993295Y-149995037D01*
X45994105Y-149977955D01*
X45995884Y-149964551D01*
X45998894Y-149952597D01*
X46001931Y-149943744D01*
X46018313Y-149909512D01*
X46041442Y-149877512D01*
X46071626Y-149847454D01*
X46109173Y-149819046D01*
X46154390Y-149792000D01*
X46173031Y-149782326D01*
X46204821Y-149767198D01*
X46237866Y-149753133D01*
X46273101Y-149739842D01*
X46311461Y-149727037D01*
X46353880Y-149714428D01*
X46401295Y-149701725D01*
X46454639Y-149688641D01*
X46514847Y-149674886D01*
X46534471Y-149670567D01*
X46543639Y-149668564D01*
X46543639Y-149401767D01*
X46543639Y-149134969D01*
X46645500Y-149134969D01*
X46747360Y-149134969D01*
X46747360Y-149385547D01*
X46747414Y-149429901D01*
X46747570Y-149471748D01*
X46747817Y-149510394D01*
X46748147Y-149545142D01*
X46748550Y-149575297D01*
X46749016Y-149600163D01*
X46749537Y-149619045D01*
X46750102Y-149631247D01*
X46750702Y-149636074D01*
X46750771Y-149636124D01*
X46756026Y-149635550D01*
X46767435Y-149634002D01*
X46783100Y-149631745D01*
X46794571Y-149630037D01*
X46798636Y-149629532D01*
X46804097Y-149629056D01*
X46811183Y-149628607D01*
X46820118Y-149628184D01*
X46831131Y-149627788D01*
X46844447Y-149627416D01*
X46860292Y-149627068D01*
X46878894Y-149626744D01*
X46900478Y-149626442D01*
X46925271Y-149626162D01*
X46953500Y-149625903D01*
X46985391Y-149625664D01*
X47021170Y-149625444D01*
X47061064Y-149625243D01*
X47105299Y-149625061D01*
X47154102Y-149624895D01*
X47207699Y-149624745D01*
X47266316Y-149624611D01*
X47330181Y-149624492D01*
X47399519Y-149624387D01*
X47474558Y-149624295D01*
X47555522Y-149624215D01*
X47642640Y-149624147D01*
X47736137Y-149624089D01*
X47836239Y-149624042D01*
X47943174Y-149624004D01*
X48057168Y-149623974D01*
X48178446Y-149623952D01*
X48307237Y-149623937D01*
X48443765Y-149623928D01*
X48560804Y-149623925D01*
X50286647Y-149623901D01*
X50475564Y-149284705D01*
X50507473Y-149227440D01*
X50535701Y-149176854D01*
X50560511Y-149132497D01*
X50582169Y-149093918D01*
X50600939Y-149060667D01*
X50617085Y-149032293D01*
X50630873Y-149008346D01*
X50642566Y-148988374D01*
X50652429Y-148971929D01*
X50660726Y-148958558D01*
X50667722Y-148947812D01*
X50673682Y-148939240D01*
X50678870Y-148932391D01*
X50683550Y-148926816D01*
X50687987Y-148922063D01*
X50689150Y-148920889D01*
X50718627Y-148895546D01*
X50751440Y-148875602D01*
X50785121Y-148861303D01*
X50811605Y-148851796D01*
X51289928Y-148850664D01*
X51768252Y-148849532D01*
X51793121Y-148826491D01*
X51857073Y-148772463D01*
X51925757Y-148724264D01*
X51998248Y-148682399D01*
X52073621Y-148647369D01*
X52150954Y-148619675D01*
X52196911Y-148607033D01*
X52274665Y-148592110D01*
X52352375Y-148585295D01*
X52429898Y-148586548D01*
G37*
G36*
X50458833Y-152313064D02*
G01*
X50541947Y-152317999D01*
X50620202Y-152326423D01*
X50694928Y-152338513D01*
X50767455Y-152354443D01*
X50833263Y-152372606D01*
X50920682Y-152403008D01*
X51003004Y-152439738D01*
X51080177Y-152482728D01*
X51152149Y-152531907D01*
X51218867Y-152587207D01*
X51280280Y-152648556D01*
X51336337Y-152715887D01*
X51386984Y-152789128D01*
X51432171Y-152868210D01*
X51471846Y-152953064D01*
X51505955Y-153043619D01*
X51534449Y-153139806D01*
X51557274Y-153241556D01*
X51574380Y-153348798D01*
X51577286Y-153372405D01*
X51584378Y-153446712D01*
X51588779Y-153524027D01*
X51590514Y-153602617D01*
X51589611Y-153680750D01*
X51586095Y-153756695D01*
X51579993Y-153828721D01*
X51571331Y-153895095D01*
X51569187Y-153908165D01*
X51552505Y-153988175D01*
X51529934Y-154068483D01*
X51502177Y-154147057D01*
X51469942Y-154221866D01*
X51439915Y-154280318D01*
X51401495Y-154343333D01*
X51360582Y-154398770D01*
X51316819Y-154446914D01*
X51269849Y-154488052D01*
X51219315Y-154522469D01*
X51164860Y-154550450D01*
X51106127Y-154572282D01*
X51059743Y-154584637D01*
X51045718Y-154587001D01*
X51025734Y-154589293D01*
X51001981Y-154591313D01*
X50976647Y-154592861D01*
X50963992Y-154593398D01*
X50927769Y-154594089D01*
X50897736Y-154593118D01*
X50872043Y-154590165D01*
X50848842Y-154584914D01*
X50826285Y-154577047D01*
X50802524Y-154566245D01*
X50800646Y-154565309D01*
X50775687Y-154550099D01*
X50749577Y-154529521D01*
X50724508Y-154505639D01*
X50702671Y-154480516D01*
X50688025Y-154459284D01*
X50662208Y-154408032D01*
X50642132Y-154351337D01*
X50627964Y-154289699D01*
X50625020Y-154271216D01*
X50619818Y-154235184D01*
X50592345Y-154283545D01*
X50552631Y-154346948D01*
X50509665Y-154402953D01*
X50463257Y-154451712D01*
X50413219Y-154493377D01*
X50359364Y-154528100D01*
X50301503Y-154556033D01*
X50239448Y-154577329D01*
X50223966Y-154581454D01*
X50208081Y-154585318D01*
X50194291Y-154588169D01*
X50180868Y-154590160D01*
X50166087Y-154591446D01*
X50148219Y-154592180D01*
X50125537Y-154592515D01*
X50098580Y-154592604D01*
X50062639Y-154592267D01*
X50033083Y-154590968D01*
X50008168Y-154588368D01*
X49986154Y-154584129D01*
X49965298Y-154577914D01*
X49943860Y-154569385D01*
X49920098Y-154558203D01*
X49919305Y-154557810D01*
X49876736Y-154532185D01*
X49837796Y-154499488D01*
X49802705Y-154460048D01*
X49771684Y-154414195D01*
X49744952Y-154362258D01*
X49722731Y-154304566D01*
X49705239Y-154241448D01*
X49703976Y-154235836D01*
X49696645Y-154199641D01*
X49691217Y-154165121D01*
X49687489Y-154130106D01*
X49685254Y-154092424D01*
X49684406Y-154054241D01*
X49770424Y-154054241D01*
X49774231Y-154122323D01*
X49782553Y-154186161D01*
X49795277Y-154245332D01*
X49812288Y-154299415D01*
X49833473Y-154347989D01*
X49858718Y-154390631D01*
X49887908Y-154426920D01*
X49920931Y-154456434D01*
X49926213Y-154460255D01*
X49961699Y-154481356D01*
X49999708Y-154496305D01*
X50041087Y-154505274D01*
X50086683Y-154508433D01*
X50137346Y-154505954D01*
X50147376Y-154504887D01*
X50208256Y-154494065D01*
X50266949Y-154475696D01*
X50324097Y-154449552D01*
X50356168Y-154431121D01*
X50384469Y-154411180D01*
X50414404Y-154385777D01*
X50444076Y-154356792D01*
X50471585Y-154326106D01*
X50495035Y-154295600D01*
X50499445Y-154289124D01*
X50516835Y-154260898D01*
X50535631Y-154226871D01*
X50554857Y-154189033D01*
X50573539Y-154149379D01*
X50590701Y-154109898D01*
X50605245Y-154072920D01*
X50625622Y-154017656D01*
X50658523Y-153636956D01*
X50663277Y-153581812D01*
X50667826Y-153528811D01*
X50672119Y-153478539D01*
X50676108Y-153431582D01*
X50679745Y-153388522D01*
X50682978Y-153349947D01*
X50685761Y-153316440D01*
X50688044Y-153288587D01*
X50689777Y-153266972D01*
X50690912Y-153252182D01*
X50691401Y-153244799D01*
X50691416Y-153244240D01*
X50687844Y-153233253D01*
X50677758Y-153219718D01*
X50662086Y-153204407D01*
X50641759Y-153188092D01*
X50617703Y-153171542D01*
X50590848Y-153155530D01*
X50573535Y-153146378D01*
X50537192Y-153130779D01*
X50498219Y-153119531D01*
X50455005Y-153112274D01*
X50405943Y-153108646D01*
X50405656Y-153108636D01*
X50348216Y-153108946D01*
X50295672Y-153114589D01*
X50246389Y-153126024D01*
X50198732Y-153143711D01*
X50151066Y-153168109D01*
X50115860Y-153190065D01*
X50090646Y-153208741D01*
X50062763Y-153232587D01*
X50033921Y-153259900D01*
X50005833Y-153288978D01*
X49980208Y-153318121D01*
X49958760Y-153345625D01*
X49957115Y-153347931D01*
X49917293Y-153410823D01*
X49882043Y-153480438D01*
X49851375Y-153556745D01*
X49825298Y-153639714D01*
X49803823Y-153729316D01*
X49786957Y-153825520D01*
X49776811Y-153907030D01*
X49771246Y-153982336D01*
X49770424Y-154054241D01*
X49684406Y-154054241D01*
X49684310Y-154049902D01*
X49684257Y-154026323D01*
X49687384Y-153932431D01*
X49696064Y-153839691D01*
X49710085Y-153748940D01*
X49729237Y-153661016D01*
X49753306Y-153576757D01*
X49782080Y-153497001D01*
X49815348Y-153422587D01*
X49852897Y-153354351D01*
X49855284Y-153350469D01*
X49900824Y-153283077D01*
X49949403Y-153223228D01*
X50001013Y-153170929D01*
X50055645Y-153126185D01*
X50113292Y-153089001D01*
X50173947Y-153059384D01*
X50237602Y-153037337D01*
X50304250Y-153022867D01*
X50312009Y-153021703D01*
X50332220Y-153019786D01*
X50357947Y-153018803D01*
X50387131Y-153018690D01*
X50417714Y-153019384D01*
X50447639Y-153020822D01*
X50474848Y-153022942D01*
X50497281Y-153025679D01*
X50508060Y-153027699D01*
X50549275Y-153039442D01*
X50590289Y-153055874D01*
X50632033Y-153077511D01*
X50675436Y-153104865D01*
X50721427Y-153138451D01*
X50750739Y-153161879D01*
X50766536Y-153175034D01*
X50776982Y-153184398D01*
X50783108Y-153191249D01*
X50785947Y-153196866D01*
X50786527Y-153202524D01*
X50786279Y-153205916D01*
X50785748Y-153211739D01*
X50784560Y-153225142D01*
X50782764Y-153245587D01*
X50780405Y-153272535D01*
X50777530Y-153305448D01*
X50774187Y-153343787D01*
X50770422Y-153387014D01*
X50766282Y-153434590D01*
X50761814Y-153485978D01*
X50757066Y-153540638D01*
X50752083Y-153598032D01*
X50746914Y-153657621D01*
X50746033Y-153667773D01*
X50739942Y-153738090D01*
X50734524Y-153800824D01*
X50729745Y-153856509D01*
X50725566Y-153905680D01*
X50721950Y-153948871D01*
X50718860Y-153986617D01*
X50716260Y-154019453D01*
X50714111Y-154047912D01*
X50712377Y-154072531D01*
X50711020Y-154093842D01*
X50710003Y-154112381D01*
X50709290Y-154128682D01*
X50708843Y-154143279D01*
X50708624Y-154156708D01*
X50708597Y-154169502D01*
X50708725Y-154182197D01*
X50708969Y-154195326D01*
X50709061Y-154199487D01*
X50710411Y-154240433D01*
X50712437Y-154273540D01*
X50715162Y-154299092D01*
X50717699Y-154313571D01*
X50726005Y-154342524D01*
X50737810Y-154372009D01*
X50751807Y-154399171D01*
X50766690Y-154421154D01*
X50767226Y-154421813D01*
X50786042Y-154441247D01*
X50810062Y-154460808D01*
X50836622Y-154478500D01*
X50858461Y-154490226D01*
X50870613Y-154495642D01*
X50881346Y-154499327D01*
X50892883Y-154501693D01*
X50907445Y-154503154D01*
X50927252Y-154504122D01*
X50934727Y-154504384D01*
X50996754Y-154502737D01*
X51055648Y-154493576D01*
X51111362Y-154476924D01*
X51163851Y-154452809D01*
X51213067Y-154421257D01*
X51258965Y-154382292D01*
X51301498Y-154335943D01*
X51340619Y-154282233D01*
X51346048Y-154273770D01*
X51380992Y-154212489D01*
X51411221Y-154146697D01*
X51436811Y-154076055D01*
X51457840Y-154000221D01*
X51474384Y-153918855D01*
X51486520Y-153831617D01*
X51494326Y-153738167D01*
X51497877Y-153638164D01*
X51498130Y-153601240D01*
X51495903Y-153497582D01*
X51489172Y-153399782D01*
X51477808Y-153306822D01*
X51461680Y-153217684D01*
X51440657Y-153131350D01*
X51435586Y-153113404D01*
X51411838Y-153041694D01*
X51382402Y-152970126D01*
X51348166Y-152900434D01*
X51310020Y-152834351D01*
X51268853Y-152773614D01*
X51246705Y-152744915D01*
X51227405Y-152722599D01*
X51203648Y-152697504D01*
X51177395Y-152671518D01*
X51150604Y-152646535D01*
X51125234Y-152624443D01*
X51106197Y-152609310D01*
X51037428Y-152562964D01*
X50963023Y-152522456D01*
X50883049Y-152487805D01*
X50797577Y-152459030D01*
X50706674Y-152436149D01*
X50610409Y-152419184D01*
X50508851Y-152408151D01*
X50402069Y-152403071D01*
X50364658Y-152402703D01*
X50259899Y-152406309D01*
X50158666Y-152417262D01*
X50060958Y-152435561D01*
X49966777Y-152461205D01*
X49876123Y-152494196D01*
X49788996Y-152534532D01*
X49705398Y-152582214D01*
X49625328Y-152637240D01*
X49548787Y-152699612D01*
X49502366Y-152742690D01*
X49444260Y-152801883D01*
X49392699Y-152860207D01*
X49346478Y-152919313D01*
X49304392Y-152980853D01*
X49265238Y-153046479D01*
X49227811Y-153117845D01*
X49225521Y-153122494D01*
X49185539Y-153211394D01*
X49151287Y-153303697D01*
X49122620Y-153399975D01*
X49099395Y-153500802D01*
X49081467Y-153606749D01*
X49068692Y-153718391D01*
X49065430Y-153758669D01*
X49063875Y-153787202D01*
X49062859Y-153821485D01*
X49062355Y-153860008D01*
X49062339Y-153901264D01*
X49062784Y-153943743D01*
X49063667Y-153985936D01*
X49064961Y-154026335D01*
X49066641Y-154063431D01*
X49068683Y-154095716D01*
X49071059Y-154121679D01*
X49071594Y-154126147D01*
X49088413Y-154233246D01*
X49111259Y-154335032D01*
X49140229Y-154431783D01*
X49175420Y-154523774D01*
X49216928Y-154611282D01*
X49264850Y-154694585D01*
X49277766Y-154714667D01*
X49333252Y-154792541D01*
X49392768Y-154863363D01*
X49456415Y-154927197D01*
X49524295Y-154984106D01*
X49596511Y-155034154D01*
X49673163Y-155077406D01*
X49754354Y-155113926D01*
X49840185Y-155143776D01*
X49930758Y-155167022D01*
X50023726Y-155183388D01*
X50114737Y-155192753D01*
X50206226Y-155195730D01*
X50297250Y-155192447D01*
X50386863Y-155183032D01*
X50474121Y-155167612D01*
X50558080Y-155146317D01*
X50637795Y-155119273D01*
X50702537Y-155091373D01*
X50719274Y-155083435D01*
X50733156Y-155076994D01*
X50742636Y-155072757D01*
X50746123Y-155071415D01*
X50748749Y-155074754D01*
X50754287Y-155083746D01*
X50761816Y-155096853D01*
X50767227Y-155106642D01*
X50775419Y-155121525D01*
X50780570Y-155132245D01*
X50782018Y-155140147D01*
X50779101Y-155146574D01*
X50771155Y-155152870D01*
X50757519Y-155160379D01*
X50737529Y-155170445D01*
X50735197Y-155171623D01*
X50701914Y-155187629D01*
X50669148Y-155201493D01*
X50634290Y-155214221D01*
X50594731Y-155226818D01*
X50582051Y-155230576D01*
X50485501Y-155254856D01*
X50386164Y-155272234D01*
X50285610Y-155282532D01*
X50185407Y-155285574D01*
X50114877Y-155283204D01*
X50010057Y-155273386D01*
X49910150Y-155257091D01*
X49815083Y-155234289D01*
X49724783Y-155204950D01*
X49639178Y-155169042D01*
X49558193Y-155126535D01*
X49481757Y-155077398D01*
X49409797Y-155021601D01*
X49342239Y-154959112D01*
X49339891Y-154956740D01*
X49308260Y-154923925D01*
X49281182Y-154893932D01*
X49256827Y-154864519D01*
X49233365Y-154833442D01*
X49208967Y-154798459D01*
X49200750Y-154786205D01*
X49156067Y-154713791D01*
X49116548Y-154638413D01*
X49081985Y-154559436D01*
X49052165Y-154476224D01*
X49026880Y-154388145D01*
X49005919Y-154294561D01*
X48989071Y-154194840D01*
X48979270Y-154117998D01*
X48977439Y-154096047D01*
X48975984Y-154067230D01*
X48974898Y-154032821D01*
X48974174Y-153994094D01*
X48973806Y-153952321D01*
X48973787Y-153908778D01*
X48974112Y-153864738D01*
X48974772Y-153821475D01*
X48975763Y-153780263D01*
X48977076Y-153742375D01*
X48978707Y-153709085D01*
X48980647Y-153681667D01*
X48981564Y-153672106D01*
X48994590Y-153568081D01*
X49010984Y-153470559D01*
X49031026Y-153378500D01*
X49054998Y-153290863D01*
X49083180Y-153206611D01*
X49115855Y-153124703D01*
X49149136Y-153052534D01*
X49199603Y-152958258D01*
X49255602Y-152869795D01*
X49316949Y-152787283D01*
X49383460Y-152710862D01*
X49454951Y-152640671D01*
X49531239Y-152576850D01*
X49612140Y-152519536D01*
X49697469Y-152468870D01*
X49787043Y-152424990D01*
X49880679Y-152388036D01*
X49978192Y-152358147D01*
X50079399Y-152335462D01*
X50101751Y-152331517D01*
X50141114Y-152325250D01*
X50177195Y-152320359D01*
X50211940Y-152316699D01*
X50247295Y-152314124D01*
X50285205Y-152312489D01*
X50327615Y-152311646D01*
X50369529Y-152311444D01*
X50458833Y-152313064D01*
G37*
D11*
%TO.C,C26*%
X47051248Y-139265000D02*
X47573752Y-139265000D01*
X47051248Y-140735000D02*
X47573752Y-140735000D01*
%TO.C,J7*%
X75745000Y-110580000D02*
X75745000Y-105440000D01*
X75745000Y-113180000D02*
X75745000Y-111850000D01*
X77075000Y-113180000D02*
X75745000Y-113180000D01*
X78405000Y-105440000D02*
X75745000Y-105440000D01*
X78405000Y-110580000D02*
X75745000Y-110580000D01*
X78405000Y-110580000D02*
X78405000Y-105440000D01*
%TO.C,R50*%
X60098764Y-145265000D02*
X59644636Y-145265000D01*
X60098764Y-146735000D02*
X59644636Y-146735000D01*
%TO.C,C32*%
X47051248Y-91265000D02*
X47573752Y-91265000D01*
X47051248Y-92735000D02*
X47573752Y-92735000D01*
%TO.C,C22*%
X47051248Y-129265000D02*
X47573752Y-129265000D01*
X47051248Y-130735000D02*
X47573752Y-130735000D01*
%TO.C,TP11*%
X54200000Y-63875000D02*
G75*
G02*
X52300000Y-63875000I-950000J0D01*
G01*
X52300000Y-63875000D02*
G75*
G02*
X54200000Y-63875000I950000J0D01*
G01*
%TO.C,Y1*%
X67865000Y-108710000D02*
X67865000Y-108490000D01*
X69475000Y-110140000D02*
X70265000Y-110140000D01*
X70085000Y-108710000D02*
X70085000Y-108490000D01*
X70265000Y-109350000D02*
X70265000Y-110140000D01*
%TO.C,SW1*%
X72025000Y-145075000D02*
X72025000Y-145535000D01*
X72025000Y-145535000D02*
X71025000Y-145535000D01*
X72025000Y-148315000D02*
X72025000Y-148775000D01*
X72025000Y-148775000D02*
X78225000Y-148775000D01*
X78225000Y-145075000D02*
X72025000Y-145075000D01*
X78225000Y-145075000D02*
X78225000Y-145535000D01*
X78225000Y-148315000D02*
X78225000Y-148775000D01*
X73625000Y-146375000D02*
X76475000Y-146375000D01*
X76475000Y-147425000D01*
X73625000Y-147425000D01*
X73625000Y-146375000D01*
%TO.C,C44*%
X62823752Y-124615000D02*
X62301248Y-124615000D01*
X62823752Y-126085000D02*
X62301248Y-126085000D01*
%TO.C,C29*%
X63740000Y-46176248D02*
X63740000Y-46698752D01*
X65210000Y-46176248D02*
X65210000Y-46698752D01*
%TO.C,C42*%
X69276248Y-81790000D02*
X69798752Y-81790000D01*
X69276248Y-83260000D02*
X69798752Y-83260000D01*
%TO.C,R33*%
X42772936Y-121265000D02*
X43227064Y-121265000D01*
X42772936Y-122735000D02*
X43227064Y-122735000D01*
%TO.C,R26*%
X42772936Y-139265000D02*
X43227064Y-139265000D01*
X42772936Y-140735000D02*
X43227064Y-140735000D01*
%TO.C,R16*%
X42772936Y-101765000D02*
X43227064Y-101765000D01*
X42772936Y-103235000D02*
X43227064Y-103235000D01*
%TO.C,R8*%
X42772936Y-69265000D02*
X43227064Y-69265000D01*
X42772936Y-70735000D02*
X43227064Y-70735000D01*
%TO.C,C4*%
X47051248Y-46790000D02*
X47573752Y-46790000D01*
X47051248Y-48260000D02*
X47573752Y-48260000D01*
%TD*%
M02*
