%TF.GenerationSoftware,KiCad,Pcbnew,8.0.1*%
%TF.CreationDate,2024-04-23T21:03:34-07:00*%
%TF.ProjectId,BatteryTelemetry,42617474-6572-4795-9465-6c656d657472,rev?*%
%TF.SameCoordinates,Original*%
%TF.FileFunction,Soldermask,Top*%
%TF.FilePolarity,Negative*%
%FSLAX46Y46*%
G04 Gerber Fmt 4.6, Leading zero omitted, Abs format (unit mm)*
G04 Created by KiCad (PCBNEW 8.0.1) date 2024-04-23 21:03:34*
%MOMM*%
%LPD*%
G01*
G04 APERTURE LIST*
G04 Aperture macros list*
%AMRoundRect*
0 Rectangle with rounded corners*
0 $1 Rounding radius*
0 $2 $3 $4 $5 $6 $7 $8 $9 X,Y pos of 4 corners*
0 Add a 4 corners polygon primitive as box body*
4,1,4,$2,$3,$4,$5,$6,$7,$8,$9,$2,$3,0*
0 Add four circle primitives for the rounded corners*
1,1,$1+$1,$2,$3*
1,1,$1+$1,$4,$5*
1,1,$1+$1,$6,$7*
1,1,$1+$1,$8,$9*
0 Add four rect primitives between the rounded corners*
20,1,$1+$1,$2,$3,$4,$5,0*
20,1,$1+$1,$4,$5,$6,$7,0*
20,1,$1+$1,$6,$7,$8,$9,0*
20,1,$1+$1,$8,$9,$2,$3,0*%
G04 Aperture macros list end*
%ADD10RoundRect,0.250000X-0.475000X0.337500X-0.475000X-0.337500X0.475000X-0.337500X0.475000X0.337500X0*%
%ADD11RoundRect,0.250000X-0.337500X-0.475000X0.337500X-0.475000X0.337500X0.475000X-0.337500X0.475000X0*%
%ADD12RoundRect,0.375000X0.375000X-0.625000X0.375000X0.625000X-0.375000X0.625000X-0.375000X-0.625000X0*%
%ADD13RoundRect,0.500000X1.400000X-0.500000X1.400000X0.500000X-1.400000X0.500000X-1.400000X-0.500000X0*%
%ADD14RoundRect,0.250000X-0.350000X-0.450000X0.350000X-0.450000X0.350000X0.450000X-0.350000X0.450000X0*%
%ADD15C,5.600000*%
%ADD16RoundRect,0.250000X0.350000X0.450000X-0.350000X0.450000X-0.350000X-0.450000X0.350000X-0.450000X0*%
%ADD17C,1.500000*%
%ADD18RoundRect,0.100000X-0.637500X-0.100000X0.637500X-0.100000X0.637500X0.100000X-0.637500X0.100000X0*%
%ADD19RoundRect,0.150000X0.650000X0.150000X-0.650000X0.150000X-0.650000X-0.150000X0.650000X-0.150000X0*%
%ADD20RoundRect,0.102000X-0.785950X-0.203400X0.785950X-0.203400X0.785950X0.203400X-0.785950X0.203400X0*%
%ADD21RoundRect,0.250000X1.500000X0.900000X-1.500000X0.900000X-1.500000X-0.900000X1.500000X-0.900000X0*%
%ADD22RoundRect,0.250000X0.337500X0.475000X-0.337500X0.475000X-0.337500X-0.475000X0.337500X-0.475000X0*%
%ADD23RoundRect,0.250000X0.450000X-0.350000X0.450000X0.350000X-0.450000X0.350000X-0.450000X-0.350000X0*%
%ADD24RoundRect,0.225000X-0.225000X-0.375000X0.225000X-0.375000X0.225000X0.375000X-0.225000X0.375000X0*%
%ADD25RoundRect,0.250000X0.250000X-0.250000X0.250000X0.250000X-0.250000X0.250000X-0.250000X-0.250000X0*%
%ADD26RoundRect,0.250000X-0.725000X0.600000X-0.725000X-0.600000X0.725000X-0.600000X0.725000X0.600000X0*%
%ADD27O,1.950000X1.700000*%
%ADD28RoundRect,0.150000X-0.512500X-0.150000X0.512500X-0.150000X0.512500X0.150000X-0.512500X0.150000X0*%
%ADD29R,2.250000X2.250000*%
%ADD30C,2.250000*%
%ADD31RoundRect,0.250000X0.475000X-0.337500X0.475000X0.337500X-0.475000X0.337500X-0.475000X-0.337500X0*%
%ADD32RoundRect,0.250000X-0.250000X0.250000X-0.250000X-0.250000X0.250000X-0.250000X0.250000X0.250000X0*%
%ADD33RoundRect,0.250000X-0.450000X0.350000X-0.450000X-0.350000X0.450000X-0.350000X0.450000X0.350000X0*%
%ADD34R,1.700000X1.700000*%
%ADD35O,1.700000X1.700000*%
%ADD36RoundRect,0.050000X0.387500X0.050000X-0.387500X0.050000X-0.387500X-0.050000X0.387500X-0.050000X0*%
%ADD37RoundRect,0.050000X0.050000X0.387500X-0.050000X0.387500X-0.050000X-0.387500X0.050000X-0.387500X0*%
%ADD38RoundRect,0.144000X1.456000X1.456000X-1.456000X1.456000X-1.456000X-1.456000X1.456000X-1.456000X0*%
%ADD39R,1.600000X1.600000*%
%ADD40C,1.600000*%
%ADD41RoundRect,0.225000X0.225000X0.375000X-0.225000X0.375000X-0.225000X-0.375000X0.225000X-0.375000X0*%
%ADD42C,0.700000*%
%ADD43O,2.400000X0.900000*%
%ADD44O,1.700000X0.900000*%
%ADD45R,0.800000X0.900000*%
%ADD46C,0.711200*%
%ADD47C,0.800000*%
G04 APERTURE END LIST*
D10*
%TO.C,C50*%
X59700000Y-66425000D03*
X59700000Y-68500000D03*
%TD*%
D11*
%TO.C,C21*%
X46275000Y-115000000D03*
X48350000Y-115000000D03*
%TD*%
D12*
%TO.C,U2*%
X62175000Y-62950000D03*
X64475000Y-62950000D03*
D13*
X64475000Y-56650000D03*
D12*
X66775000Y-62950000D03*
%TD*%
D14*
%TO.C,R6*%
X42000000Y-52500000D03*
X44000000Y-52500000D03*
%TD*%
D11*
%TO.C,C9*%
X46275000Y-72500000D03*
X48350000Y-72500000D03*
%TD*%
D15*
%TO.C,H4*%
X75000000Y-155000000D03*
%TD*%
D16*
%TO.C,R43*%
X70675000Y-136675000D03*
X68675000Y-136675000D03*
%TD*%
D17*
%TO.C,TP6*%
X68490000Y-28300000D03*
%TD*%
D14*
%TO.C,R15*%
X42000000Y-100000000D03*
X44000000Y-100000000D03*
%TD*%
D17*
%TO.C,TP3*%
X58905000Y-28300000D03*
%TD*%
D16*
%TO.C,R47*%
X65425000Y-72650000D03*
X63425000Y-72650000D03*
%TD*%
D18*
%TO.C,U4*%
X55325000Y-88925000D03*
X55325000Y-89575000D03*
X55325000Y-90225000D03*
X55325000Y-90875000D03*
X55325000Y-91525000D03*
X55325000Y-92175000D03*
X55325000Y-92825000D03*
X55325000Y-93475000D03*
X55325000Y-94125000D03*
X55325000Y-94775000D03*
X55325000Y-95425000D03*
X55325000Y-96075000D03*
X61050000Y-96075000D03*
X61050000Y-95425000D03*
X61050000Y-94775000D03*
X61050000Y-94125000D03*
X61050000Y-93475000D03*
X61050000Y-92825000D03*
X61050000Y-92175000D03*
X61050000Y-91525000D03*
X61050000Y-90875000D03*
X61050000Y-90225000D03*
X61050000Y-89575000D03*
X61050000Y-88925000D03*
%TD*%
D19*
%TO.C,U3*%
X74612500Y-134165000D03*
X74612500Y-132895000D03*
X74612500Y-131625000D03*
X74612500Y-130355000D03*
X67412500Y-130355000D03*
X67412500Y-131625000D03*
X67412500Y-132895000D03*
X67412500Y-134165000D03*
%TD*%
D17*
%TO.C,TP4*%
X62100000Y-28300000D03*
%TD*%
D20*
%TO.C,IC3*%
X55128300Y-104765000D03*
X55128300Y-105415000D03*
X55128300Y-106065000D03*
X55128300Y-106715000D03*
X55128300Y-107365000D03*
X55128300Y-108015000D03*
X55128300Y-108665000D03*
X55128300Y-109315000D03*
X55128300Y-109965000D03*
X55128300Y-110615000D03*
X60871700Y-110615000D03*
X60871700Y-109965000D03*
X60871700Y-109315000D03*
X60871700Y-108665000D03*
X60871700Y-108015000D03*
X60871700Y-107365000D03*
X60871700Y-106715000D03*
X60871700Y-106065000D03*
X60871700Y-105415000D03*
X60871700Y-104765000D03*
%TD*%
D21*
%TO.C,D13*%
X47400000Y-126000000D03*
X42000000Y-126000000D03*
%TD*%
D14*
%TO.C,R31*%
X42000000Y-62000000D03*
X44000000Y-62000000D03*
%TD*%
D22*
%TO.C,C47*%
X63600000Y-129450000D03*
X61525000Y-129450000D03*
%TD*%
D16*
%TO.C,R45*%
X57425000Y-57725000D03*
X55425000Y-57725000D03*
%TD*%
D14*
%TO.C,R22*%
X42000000Y-130000000D03*
X44000000Y-130000000D03*
%TD*%
%TO.C,R18*%
X42000000Y-107500000D03*
X44000000Y-107500000D03*
%TD*%
%TO.C,R1*%
X42000000Y-40000000D03*
X44000000Y-40000000D03*
%TD*%
D11*
%TO.C,C34*%
X66787500Y-65575000D03*
X68862500Y-65575000D03*
%TD*%
D17*
%TO.C,TP1*%
X52515000Y-28300000D03*
%TD*%
D14*
%TO.C,R17*%
X42000000Y-105000000D03*
X44000000Y-105000000D03*
%TD*%
D11*
%TO.C,C8*%
X46275000Y-70000000D03*
X48350000Y-70000000D03*
%TD*%
%TO.C,C25*%
X46275000Y-137500000D03*
X48350000Y-137500000D03*
%TD*%
D23*
%TO.C,R54*%
X67600000Y-98600000D03*
X67600000Y-96600000D03*
%TD*%
D10*
%TO.C,C52*%
X56100000Y-125300000D03*
X56100000Y-127375000D03*
%TD*%
D11*
%TO.C,C39*%
X68500000Y-75025000D03*
X70575000Y-75025000D03*
%TD*%
D14*
%TO.C,R32*%
X42000000Y-92000000D03*
X44000000Y-92000000D03*
%TD*%
D11*
%TO.C,C40*%
X68500000Y-77525000D03*
X70575000Y-77525000D03*
%TD*%
%TO.C,C43*%
X68500000Y-85025000D03*
X70575000Y-85025000D03*
%TD*%
D24*
%TO.C,D1*%
X44000000Y-28075000D03*
X47300000Y-28075000D03*
%TD*%
D14*
%TO.C,R9*%
X42000000Y-72500000D03*
X44000000Y-72500000D03*
%TD*%
D11*
%TO.C,C16*%
X46275000Y-102500000D03*
X48350000Y-102500000D03*
%TD*%
%TO.C,C36*%
X65200000Y-146000000D03*
X67275000Y-146000000D03*
%TD*%
D14*
%TO.C,R24*%
X42000000Y-135000000D03*
X44000000Y-135000000D03*
%TD*%
D25*
%TO.C,D5*%
X69475000Y-47675000D03*
X69475000Y-45175000D03*
%TD*%
D26*
%TO.C,J4*%
X33000000Y-130000000D03*
D27*
X33000000Y-132500000D03*
X33000000Y-135000000D03*
X33000000Y-137500000D03*
X33000000Y-140000000D03*
X33000000Y-142500000D03*
X33000000Y-145000000D03*
%TD*%
D11*
%TO.C,C10*%
X46275000Y-75000000D03*
X48350000Y-75000000D03*
%TD*%
D15*
%TO.C,H3*%
X30000000Y-155000000D03*
%TD*%
D11*
%TO.C,C17*%
X46275000Y-105000000D03*
X48350000Y-105000000D03*
%TD*%
D23*
%TO.C,R55*%
X61500000Y-118700000D03*
X61500000Y-116700000D03*
%TD*%
D11*
%TO.C,C5*%
X46275000Y-50000000D03*
X48350000Y-50000000D03*
%TD*%
D21*
%TO.C,D10*%
X47400000Y-36000000D03*
X42000000Y-36000000D03*
%TD*%
D14*
%TO.C,R36*%
X63875000Y-92275000D03*
X65875000Y-92275000D03*
%TD*%
D11*
%TO.C,C31*%
X46275000Y-62000000D03*
X48350000Y-62000000D03*
%TD*%
D14*
%TO.C,R23*%
X42000000Y-132500000D03*
X44000000Y-132500000D03*
%TD*%
D16*
%TO.C,R48*%
X65475000Y-101800000D03*
X63475000Y-101800000D03*
%TD*%
D14*
%TO.C,R30*%
X42000000Y-32000000D03*
X44000000Y-32000000D03*
%TD*%
D17*
%TO.C,TP13*%
X77100000Y-77975000D03*
%TD*%
D21*
%TO.C,D11*%
X47400000Y-66000000D03*
X42000000Y-66000000D03*
%TD*%
D11*
%TO.C,C11*%
X46275000Y-77500000D03*
X48350000Y-77500000D03*
%TD*%
D28*
%TO.C,Q1*%
X58596700Y-37950000D03*
X58596700Y-39850000D03*
X60871700Y-38900000D03*
%TD*%
D11*
%TO.C,C14*%
X46275000Y-85000000D03*
X48350000Y-85000000D03*
%TD*%
D25*
%TO.C,D6*%
X66975000Y-47675000D03*
X66975000Y-45175000D03*
%TD*%
D17*
%TO.C,TP9*%
X33000000Y-121175000D03*
%TD*%
D14*
%TO.C,R12*%
X42000000Y-80000000D03*
X44000000Y-80000000D03*
%TD*%
%TO.C,R13*%
X42000000Y-82500000D03*
X44000000Y-82500000D03*
%TD*%
%TO.C,R10*%
X42000000Y-75000000D03*
X44000000Y-75000000D03*
%TD*%
%TO.C,R11*%
X42000000Y-77500000D03*
X44000000Y-77500000D03*
%TD*%
D11*
%TO.C,C37*%
X68500000Y-70025000D03*
X70575000Y-70025000D03*
%TD*%
D29*
%TO.C,SW2*%
X71875000Y-139600000D03*
D30*
X78375000Y-139600000D03*
%TD*%
D31*
%TO.C,C49*%
X71612500Y-109425000D03*
X71612500Y-107350000D03*
%TD*%
D16*
%TO.C,R46*%
X66425000Y-76065000D03*
X64425000Y-76065000D03*
%TD*%
D32*
%TO.C,D7*%
X64475000Y-50000000D03*
X64475000Y-52500000D03*
%TD*%
D33*
%TO.C,R29*%
X55128300Y-39850000D03*
X55128300Y-41850000D03*
%TD*%
D23*
%TO.C,R52*%
X65200000Y-142400000D03*
X65200000Y-140400000D03*
%TD*%
D15*
%TO.C,H2*%
X75000000Y-30000000D03*
%TD*%
D14*
%TO.C,R38*%
X70400000Y-62700000D03*
X72400000Y-62700000D03*
%TD*%
D34*
%TO.C,J6*%
X77075000Y-125275000D03*
D35*
X77075000Y-122735000D03*
X77075000Y-120195000D03*
X77075000Y-117655000D03*
%TD*%
D14*
%TO.C,R14*%
X42000000Y-85000000D03*
X44000000Y-85000000D03*
%TD*%
D36*
%TO.C,U1*%
X74450000Y-123375000D03*
X74450000Y-122975000D03*
X74450000Y-122575000D03*
X74450000Y-122175000D03*
X74450000Y-121775000D03*
X74450000Y-121375000D03*
X74450000Y-120975000D03*
X74450000Y-120575000D03*
X74450000Y-120175000D03*
X74450000Y-119775000D03*
X74450000Y-119375000D03*
X74450000Y-118975000D03*
X74450000Y-118575000D03*
X74450000Y-118175000D03*
D37*
X73612500Y-117337500D03*
X73212500Y-117337500D03*
X72812500Y-117337500D03*
X72412500Y-117337500D03*
X72012500Y-117337500D03*
X71612500Y-117337500D03*
X71212500Y-117337500D03*
X70812500Y-117337500D03*
X70412500Y-117337500D03*
X70012500Y-117337500D03*
X69612500Y-117337500D03*
X69212500Y-117337500D03*
X68812500Y-117337500D03*
X68412500Y-117337500D03*
D36*
X67575000Y-118175000D03*
X67575000Y-118575000D03*
X67575000Y-118975000D03*
X67575000Y-119375000D03*
X67575000Y-119775000D03*
X67575000Y-120175000D03*
X67575000Y-120575000D03*
X67575000Y-120975000D03*
X67575000Y-121375000D03*
X67575000Y-121775000D03*
X67575000Y-122175000D03*
X67575000Y-122575000D03*
X67575000Y-122975000D03*
X67575000Y-123375000D03*
D37*
X68412500Y-124212500D03*
X68812500Y-124212500D03*
X69212500Y-124212500D03*
X69612500Y-124212500D03*
X70012500Y-124212500D03*
X70412500Y-124212500D03*
X70812500Y-124212500D03*
X71212500Y-124212500D03*
X71612500Y-124212500D03*
X72012500Y-124212500D03*
X72412500Y-124212500D03*
X72812500Y-124212500D03*
X73212500Y-124212500D03*
X73612500Y-124212500D03*
D38*
X71012500Y-120775000D03*
%TD*%
D33*
%TO.C,R39*%
X77775000Y-97050000D03*
X77775000Y-99050000D03*
%TD*%
D14*
%TO.C,R37*%
X76850000Y-62700000D03*
X78850000Y-62700000D03*
%TD*%
D23*
%TO.C,R53*%
X57600000Y-70500000D03*
X57600000Y-68500000D03*
%TD*%
D11*
%TO.C,C6*%
X46275000Y-52500000D03*
X48350000Y-52500000D03*
%TD*%
D14*
%TO.C,R20*%
X42000000Y-112500000D03*
X44000000Y-112500000D03*
%TD*%
D20*
%TO.C,IC1*%
X55128300Y-44765000D03*
X55128300Y-45415000D03*
X55128300Y-46065000D03*
X55128300Y-46715000D03*
X55128300Y-47365000D03*
X55128300Y-48015000D03*
X55128300Y-48665000D03*
X55128300Y-49315000D03*
X55128300Y-49965000D03*
X55128300Y-50615000D03*
X60871700Y-50615000D03*
X60871700Y-49965000D03*
X60871700Y-49315000D03*
X60871700Y-48665000D03*
X60871700Y-48015000D03*
X60871700Y-47365000D03*
X60871700Y-46715000D03*
X60871700Y-46065000D03*
X60871700Y-45415000D03*
X60871700Y-44765000D03*
%TD*%
D11*
%TO.C,C19*%
X46275000Y-110000000D03*
X48350000Y-110000000D03*
%TD*%
D15*
%TO.C,H1*%
X30000000Y-30000000D03*
%TD*%
D11*
%TO.C,C33*%
X46275000Y-122000000D03*
X48350000Y-122000000D03*
%TD*%
D39*
%TO.C,SW3*%
X64475000Y-38900000D03*
D40*
X66975000Y-38900000D03*
X69475000Y-38900000D03*
X64475000Y-42100000D03*
X66975000Y-42100000D03*
X69475000Y-42100000D03*
%TD*%
D14*
%TO.C,R28*%
X42000000Y-145000000D03*
X44000000Y-145000000D03*
%TD*%
D23*
%TO.C,R40*%
X74775000Y-99050000D03*
X74775000Y-97050000D03*
%TD*%
D11*
%TO.C,C28*%
X46275000Y-145000000D03*
X48350000Y-145000000D03*
%TD*%
D16*
%TO.C,R49*%
X64475000Y-98250000D03*
X62475000Y-98250000D03*
%TD*%
D21*
%TO.C,D12*%
X47400000Y-96000000D03*
X42000000Y-96000000D03*
%TD*%
D14*
%TO.C,R4*%
X42000000Y-47525000D03*
X44000000Y-47525000D03*
%TD*%
D23*
%TO.C,R42*%
X66500000Y-114450000D03*
X66500000Y-112450000D03*
%TD*%
D17*
%TO.C,TP15*%
X77100000Y-85075000D03*
%TD*%
D32*
%TO.C,D4*%
X68475000Y-50000000D03*
X68475000Y-52500000D03*
%TD*%
D14*
%TO.C,R3*%
X42000000Y-45000000D03*
X44000000Y-45000000D03*
%TD*%
D23*
%TO.C,R41*%
X68675000Y-141425000D03*
X68675000Y-139425000D03*
%TD*%
D17*
%TO.C,TP8*%
X33000000Y-64950000D03*
%TD*%
D11*
%TO.C,C41*%
X68500000Y-80025000D03*
X70575000Y-80025000D03*
%TD*%
%TO.C,C15*%
X46275000Y-100000000D03*
X48350000Y-100000000D03*
%TD*%
D17*
%TO.C,TP2*%
X55710000Y-28300000D03*
%TD*%
D11*
%TO.C,C27*%
X46275000Y-142500000D03*
X48350000Y-142500000D03*
%TD*%
D20*
%TO.C,IC4*%
X55128300Y-134765000D03*
X55128300Y-135415000D03*
X55128300Y-136065000D03*
X55128300Y-136715000D03*
X55128300Y-137365000D03*
X55128300Y-138015000D03*
X55128300Y-138665000D03*
X55128300Y-139315000D03*
X55128300Y-139965000D03*
X55128300Y-140615000D03*
X60871700Y-140615000D03*
X60871700Y-139965000D03*
X60871700Y-139315000D03*
X60871700Y-138665000D03*
X60871700Y-138015000D03*
X60871700Y-137365000D03*
X60871700Y-136715000D03*
X60871700Y-136065000D03*
X60871700Y-135415000D03*
X60871700Y-134765000D03*
%TD*%
D14*
%TO.C,R35*%
X64875000Y-88925000D03*
X66875000Y-88925000D03*
%TD*%
D41*
%TO.C,D2*%
X39650000Y-32000000D03*
X36350000Y-32000000D03*
%TD*%
D11*
%TO.C,C1*%
X46275000Y-40000000D03*
X48350000Y-40000000D03*
%TD*%
D14*
%TO.C,R27*%
X42000000Y-142500000D03*
X44000000Y-142500000D03*
%TD*%
D11*
%TO.C,C23*%
X46275000Y-132500000D03*
X48350000Y-132500000D03*
%TD*%
D17*
%TO.C,TP12*%
X53525000Y-121850000D03*
%TD*%
D42*
%TO.C,J5*%
X71075000Y-57600000D03*
X71075000Y-56750000D03*
X71075000Y-55900000D03*
X71075000Y-55050000D03*
X71075000Y-54200000D03*
X71075000Y-53350000D03*
X71075000Y-52500000D03*
X71075000Y-51650000D03*
X72425000Y-51650000D03*
X72425000Y-52500000D03*
X72425000Y-53350000D03*
X72425000Y-54200000D03*
X72425000Y-55050000D03*
X72425000Y-55900000D03*
X72425000Y-56750000D03*
X72425000Y-57600000D03*
D43*
X72055000Y-58950000D03*
D44*
X75435000Y-58950000D03*
D43*
X72055000Y-50300000D03*
D44*
X75435000Y-50300000D03*
%TD*%
D17*
%TO.C,TP10*%
X33000000Y-124725000D03*
%TD*%
D33*
%TO.C,R56*%
X63200000Y-133700000D03*
X63200000Y-135700000D03*
%TD*%
D22*
%TO.C,C45*%
X63600000Y-127375000D03*
X61525000Y-127375000D03*
%TD*%
D14*
%TO.C,R34*%
X61050000Y-84250000D03*
X63050000Y-84250000D03*
%TD*%
D11*
%TO.C,C12*%
X46275000Y-80000000D03*
X48350000Y-80000000D03*
%TD*%
D14*
%TO.C,R25*%
X42000000Y-137500000D03*
X44000000Y-137500000D03*
%TD*%
%TO.C,R19*%
X42000000Y-110000000D03*
X44000000Y-110000000D03*
%TD*%
D11*
%TO.C,C13*%
X46275000Y-82500000D03*
X48350000Y-82500000D03*
%TD*%
%TO.C,C18*%
X46275000Y-107500000D03*
X48350000Y-107500000D03*
%TD*%
D17*
%TO.C,TP7*%
X33000000Y-61400000D03*
%TD*%
D20*
%TO.C,IC2*%
X55128300Y-74765000D03*
X55128300Y-75415000D03*
X55128300Y-76065000D03*
X55128300Y-76715000D03*
X55128300Y-77365000D03*
X55128300Y-78015000D03*
X55128300Y-78665000D03*
X55128300Y-79315000D03*
X55128300Y-79965000D03*
X55128300Y-80615000D03*
X60871700Y-80615000D03*
X60871700Y-79965000D03*
X60871700Y-79315000D03*
X60871700Y-78665000D03*
X60871700Y-78015000D03*
X60871700Y-77365000D03*
X60871700Y-76715000D03*
X60871700Y-76065000D03*
X60871700Y-75415000D03*
X60871700Y-74765000D03*
%TD*%
D14*
%TO.C,R5*%
X42000000Y-50000000D03*
X44000000Y-50000000D03*
%TD*%
D22*
%TO.C,C35*%
X64475000Y-65575000D03*
X62400000Y-65575000D03*
%TD*%
D26*
%TO.C,J1*%
X33000000Y-40000000D03*
D27*
X33000000Y-42500000D03*
X33000000Y-45000000D03*
X33000000Y-47500000D03*
X33000000Y-50000000D03*
X33000000Y-52500000D03*
X33000000Y-55000000D03*
%TD*%
D34*
%TO.C,J8*%
X77100000Y-39560000D03*
D35*
X77100000Y-42100000D03*
X77100000Y-44640000D03*
%TD*%
D10*
%TO.C,C46*%
X61525000Y-121300000D03*
X61525000Y-123375000D03*
%TD*%
D16*
%TO.C,R44*%
X58425000Y-54300000D03*
X56425000Y-54300000D03*
%TD*%
D14*
%TO.C,R7*%
X42000000Y-55000000D03*
X44000000Y-55000000D03*
%TD*%
D22*
%TO.C,C53*%
X63600000Y-131600000D03*
X61525000Y-131600000D03*
%TD*%
D11*
%TO.C,C2*%
X46275000Y-42500000D03*
X48350000Y-42500000D03*
%TD*%
%TO.C,C7*%
X46275000Y-55000000D03*
X48350000Y-55000000D03*
%TD*%
%TO.C,C30*%
X46275000Y-32000000D03*
X48350000Y-32000000D03*
%TD*%
%TO.C,C51*%
X63225000Y-79700000D03*
X65300000Y-79700000D03*
%TD*%
D26*
%TO.C,J3*%
X33000000Y-100000000D03*
D27*
X33000000Y-102500000D03*
X33000000Y-105000000D03*
X33000000Y-107500000D03*
X33000000Y-110000000D03*
X33000000Y-112500000D03*
X33000000Y-115000000D03*
%TD*%
D26*
%TO.C,J2*%
X33000000Y-70000000D03*
D27*
X33000000Y-72500000D03*
X33000000Y-75000000D03*
X33000000Y-77500000D03*
X33000000Y-80000000D03*
X33000000Y-82500000D03*
X33000000Y-85000000D03*
%TD*%
D17*
%TO.C,TP5*%
X65295000Y-28300000D03*
%TD*%
%TO.C,TP14*%
X77100000Y-81525000D03*
%TD*%
D11*
%TO.C,C20*%
X46275000Y-112500000D03*
X48350000Y-112500000D03*
%TD*%
D22*
%TO.C,C48*%
X66500000Y-107775000D03*
X64425000Y-107775000D03*
%TD*%
D41*
%TO.C,D3*%
X59584200Y-33650000D03*
X56284200Y-33650000D03*
%TD*%
D11*
%TO.C,C24*%
X46275000Y-135000000D03*
X48350000Y-135000000D03*
%TD*%
D16*
%TO.C,R51*%
X56625000Y-146000000D03*
X54625000Y-146000000D03*
%TD*%
D14*
%TO.C,R2*%
X42000000Y-42500000D03*
X44000000Y-42500000D03*
%TD*%
%TO.C,R21*%
X42000000Y-115000000D03*
X44000000Y-115000000D03*
%TD*%
D11*
%TO.C,C38*%
X68500000Y-72525000D03*
X70575000Y-72525000D03*
%TD*%
%TO.C,C3*%
X46275000Y-45000000D03*
X48350000Y-45000000D03*
%TD*%
%TO.C,C26*%
X46275000Y-140000000D03*
X48350000Y-140000000D03*
%TD*%
D34*
%TO.C,J7*%
X77075000Y-111850000D03*
D35*
X77075000Y-109310000D03*
X77075000Y-106770000D03*
%TD*%
D16*
%TO.C,R50*%
X60871700Y-146000000D03*
X58871700Y-146000000D03*
%TD*%
D11*
%TO.C,C32*%
X46275000Y-92000000D03*
X48350000Y-92000000D03*
%TD*%
%TO.C,C22*%
X46275000Y-130000000D03*
X48350000Y-130000000D03*
%TD*%
D17*
%TO.C,TP11*%
X53250000Y-63875000D03*
%TD*%
D45*
%TO.C,Y1*%
X69600000Y-109425000D03*
X69600000Y-107775000D03*
X68350000Y-107775000D03*
X68350000Y-109425000D03*
%TD*%
D29*
%TO.C,SW1*%
X71875000Y-146925000D03*
D30*
X78375000Y-146925000D03*
%TD*%
D22*
%TO.C,C44*%
X63600000Y-125350000D03*
X61525000Y-125350000D03*
%TD*%
D10*
%TO.C,C29*%
X64475000Y-45400000D03*
X64475000Y-47475000D03*
%TD*%
D11*
%TO.C,C42*%
X68500000Y-82525000D03*
X70575000Y-82525000D03*
%TD*%
D14*
%TO.C,R33*%
X42000000Y-122000000D03*
X44000000Y-122000000D03*
%TD*%
%TO.C,R26*%
X42000000Y-140000000D03*
X44000000Y-140000000D03*
%TD*%
%TO.C,R16*%
X42000000Y-102500000D03*
X44000000Y-102500000D03*
%TD*%
%TO.C,R8*%
X42000000Y-70000000D03*
X44000000Y-70000000D03*
%TD*%
D11*
%TO.C,C4*%
X46275000Y-47525000D03*
X48350000Y-47525000D03*
%TD*%
D46*
X49650000Y-42500000D03*
X59700000Y-70100000D03*
X49650000Y-137500000D03*
X65300000Y-81700000D03*
X56100000Y-129200000D03*
X49650000Y-110000000D03*
X49650000Y-132500000D03*
X49650000Y-40000000D03*
X49650000Y-140000000D03*
X70400000Y-102750000D03*
X49650000Y-102500000D03*
X62825000Y-95500000D03*
X49650000Y-105000000D03*
X49650000Y-130000000D03*
X56250000Y-87650000D03*
X49650000Y-107500000D03*
X49650000Y-45000000D03*
X49650000Y-47525000D03*
X49650000Y-115000000D03*
X49650000Y-72500000D03*
X79100000Y-99625000D03*
X49650000Y-55000000D03*
X49650000Y-85000000D03*
X49650000Y-77500000D03*
X49650000Y-135000000D03*
X49650000Y-82500000D03*
X49650000Y-80000000D03*
X49650000Y-50000000D03*
X49650000Y-100000000D03*
X49650000Y-32000000D03*
X49650000Y-145000000D03*
X63300000Y-123375000D03*
X49650000Y-70000000D03*
X72900000Y-128625000D03*
X62700000Y-47475000D03*
X49650000Y-75000000D03*
D42*
X72562500Y-115600000D03*
D46*
X49650000Y-142500000D03*
X49650000Y-112500000D03*
X49650000Y-52500000D03*
X71150000Y-47675000D03*
X62575000Y-52500000D03*
X66075000Y-116475000D03*
D42*
X60950000Y-52500000D03*
X65000000Y-126562394D03*
D47*
X73169975Y-100075000D03*
D42*
X58425000Y-52500000D03*
D46*
X64050000Y-121300000D03*
D47*
X65000000Y-128675000D03*
X66750000Y-100075000D03*
D46*
X59700000Y-63875000D03*
X59700000Y-58400000D03*
X56950000Y-52500000D03*
X53775000Y-57725000D03*
X61500000Y-114800000D03*
D47*
X70506323Y-115860929D03*
X69936467Y-115039181D03*
D46*
X63125000Y-90400000D03*
X63125000Y-88375000D03*
D47*
X69236467Y-114225000D03*
D42*
X77775000Y-101550000D03*
X69281250Y-126562394D03*
X74775000Y-101550000D03*
X68368154Y-126562394D03*
D47*
X57950000Y-86300000D03*
X74450000Y-115600668D03*
X61050000Y-86325000D03*
D46*
X61350000Y-100075000D03*
X65275000Y-100075000D03*
X57200000Y-87600000D03*
D42*
X69300000Y-99200000D03*
M02*
