M48
; DRILL file {KiCad 8.0.1} date 2024-04-23T21:03:39-0700
; FORMAT={-:-/ absolute / metric / decimal}
; #@! TF.CreationDate,2024-04-23T21:03:39-07:00
; #@! TF.GenerationSoftware,Kicad,Pcbnew,8.0.1
; #@! TF.FileFunction,Plated,1,2,PTH
FMAT,2
METRIC
; #@! TA.AperFunction,Plated,PTH,ViaDrill
T1C0.300
; #@! TA.AperFunction,Plated,PTH,ViaDrill
T2C0.305
; #@! TA.AperFunction,Plated,PTH,ComponentDrill
T3C0.350
; #@! TA.AperFunction,Plated,PTH,ViaDrill
T4C0.400
; #@! TA.AperFunction,Plated,PTH,ComponentDrill
T5C0.400
; #@! TA.AperFunction,Plated,PTH,ComponentDrill
T6C0.600
; #@! TA.AperFunction,Plated,PTH,ComponentDrill
T7C0.700
; #@! TA.AperFunction,Plated,PTH,ComponentDrill
T8C0.800
; #@! TA.AperFunction,Plated,PTH,ComponentDrill
T9C0.950
; #@! TA.AperFunction,Plated,PTH,ComponentDrill
T10C1.000
; #@! TA.AperFunction,Plated,PTH,ComponentDrill
T11C1.300
; #@! TA.AperFunction,Plated,PTH,ComponentDrill
T12C3.200
%
G90
G05
T1
X58.425Y-52.5
X60.95Y-52.5
X65.0Y-126.562
X68.368Y-126.562
X69.281Y-126.562
X69.3Y-99.2
X72.562Y-115.6
X74.775Y-101.55
X77.775Y-101.55
T2
X49.65Y-32.0
X49.65Y-40.0
X49.65Y-42.5
X49.65Y-45.0
X49.65Y-47.525
X49.65Y-50.0
X49.65Y-52.5
X49.65Y-55.0
X49.65Y-70.0
X49.65Y-72.5
X49.65Y-75.0
X49.65Y-77.5
X49.65Y-80.0
X49.65Y-82.5
X49.65Y-85.0
X49.65Y-100.0
X49.65Y-102.5
X49.65Y-105.0
X49.65Y-107.5
X49.65Y-110.0
X49.65Y-112.5
X49.65Y-115.0
X49.65Y-130.0
X49.65Y-132.5
X49.65Y-135.0
X49.65Y-137.5
X49.65Y-140.0
X49.65Y-142.5
X49.65Y-145.0
X53.775Y-57.725
X56.1Y-129.2
X56.25Y-87.65
X56.95Y-52.5
X57.2Y-87.6
X59.7Y-58.4
X59.7Y-63.875
X59.7Y-70.1
X61.35Y-100.075
X61.5Y-114.8
X62.575Y-52.5
X62.7Y-47.475
X62.825Y-95.5
X63.125Y-88.375
X63.125Y-90.4
X63.3Y-123.375
X64.05Y-121.3
X65.275Y-100.075
X65.3Y-81.7
X66.075Y-116.475
X70.4Y-102.75
X71.15Y-47.675
X72.9Y-128.625
X79.1Y-99.625
T3
X69.737Y-119.5
X69.737Y-120.775
X69.737Y-122.05
X71.013Y-119.5
X71.013Y-120.775
X71.013Y-122.05
X72.287Y-119.5
X72.287Y-120.775
X72.287Y-122.05
T4
X57.95Y-86.3
X61.05Y-86.325
X65.0Y-128.675
X66.75Y-100.075
X69.236Y-114.225
X69.936Y-115.039
X70.506Y-115.861
X73.17Y-100.075
X74.45Y-115.601
T5
X71.075Y-51.65
X71.075Y-52.5
X71.075Y-53.35
X71.075Y-54.2
X71.075Y-55.05
X71.075Y-55.9
X71.075Y-56.75
X71.075Y-57.6
X72.425Y-51.65
X72.425Y-52.5
X72.425Y-53.35
X72.425Y-54.2
X72.425Y-55.05
X72.425Y-55.9
X72.425Y-56.75
X72.425Y-57.6
T7
X33.0Y-61.4
X33.0Y-64.95
X33.0Y-121.175
X33.0Y-124.725
X52.515Y-28.3
X53.25Y-63.875
X53.525Y-121.85
X55.71Y-28.3
X58.905Y-28.3
X62.1Y-28.3
X65.295Y-28.3
X68.49Y-28.3
X77.1Y-77.975
X77.1Y-81.525
X77.1Y-85.075
T8
X64.475Y-38.9
X64.475Y-42.1
X66.975Y-38.9
X66.975Y-42.1
X69.475Y-38.9
X69.475Y-42.1
T9
X33.0Y-40.0
X33.0Y-42.5
X33.0Y-45.0
X33.0Y-47.5
X33.0Y-50.0
X33.0Y-52.5
X33.0Y-55.0
X33.0Y-70.0
X33.0Y-72.5
X33.0Y-75.0
X33.0Y-77.5
X33.0Y-80.0
X33.0Y-82.5
X33.0Y-85.0
X33.0Y-100.0
X33.0Y-102.5
X33.0Y-105.0
X33.0Y-107.5
X33.0Y-110.0
X33.0Y-112.5
X33.0Y-115.0
X33.0Y-130.0
X33.0Y-132.5
X33.0Y-135.0
X33.0Y-137.5
X33.0Y-140.0
X33.0Y-142.5
X33.0Y-145.0
T10
X77.075Y-106.77
X77.075Y-109.31
X77.075Y-111.85
X77.075Y-117.655
X77.075Y-120.195
X77.075Y-122.735
X77.075Y-125.275
X77.1Y-39.56
X77.1Y-42.1
X77.1Y-44.64
T11
X71.875Y-139.6
X71.875Y-146.925
X78.375Y-139.6
X78.375Y-146.925
T12
X30.0Y-30.0
X30.0Y-155.0
X75.0Y-30.0
X75.0Y-155.0
T6
X71.305Y-50.3G85X72.805Y-50.3
G05
X71.305Y-58.95G85X72.805Y-58.95
G05
X75.035Y-50.3G85X75.835Y-50.3
G05
X75.035Y-58.95G85X75.835Y-58.95
G05
M30
