M48
; DRILL file {KiCad 8.0.1} date 2024-04-24T01:01:51-0700
; FORMAT={-:-/ absolute / inch / decimal}
; #@! TF.CreationDate,2024-04-24T01:01:51-07:00
; #@! TF.GenerationSoftware,Kicad,Pcbnew,8.0.1
; #@! TF.FileFunction,Plated,1,2,PTH
FMAT,2
INCH
; #@! TA.AperFunction,Plated,PTH,ViaDrill
T1C0.0118
; #@! TA.AperFunction,Plated,PTH,ViaDrill
T2C0.0120
; #@! TA.AperFunction,Plated,PTH,ComponentDrill
T3C0.0138
; #@! TA.AperFunction,Plated,PTH,ViaDrill
T4C0.0157
; #@! TA.AperFunction,Plated,PTH,ComponentDrill
T5C0.0157
; #@! TA.AperFunction,Plated,PTH,ComponentDrill
T6C0.0236
; #@! TA.AperFunction,Plated,PTH,ComponentDrill
T7C0.0276
; #@! TA.AperFunction,Plated,PTH,ComponentDrill
T8C0.0315
; #@! TA.AperFunction,Plated,PTH,ComponentDrill
T9C0.0374
; #@! TA.AperFunction,Plated,PTH,ComponentDrill
T10C0.0394
; #@! TA.AperFunction,Plated,PTH,ComponentDrill
T11C0.0512
; #@! TA.AperFunction,Plated,PTH,ComponentDrill
T12C0.1260
%
G90
G05
T1
X2.3002Y-2.0669
X2.3996Y-2.0669
X2.5591Y-4.9828
X2.6917Y-4.9828
X2.7276Y-4.9828
X2.7283Y-3.9055
X2.8568Y-4.5512
X2.9439Y-3.998
X3.062Y-3.998
T2
X1.9547Y-1.2598
X1.9547Y-1.5748
X1.9547Y-1.6732
X1.9547Y-1.7717
X1.9547Y-1.8711
X1.9547Y-1.9685
X1.9547Y-2.0669
X1.9547Y-2.1654
X1.9547Y-2.7559
X1.9547Y-2.8543
X1.9547Y-2.9528
X1.9547Y-3.0512
X1.9547Y-3.1496
X1.9547Y-3.248
X1.9547Y-3.3465
X1.9547Y-3.937
X1.9547Y-4.0354
X1.9547Y-4.1339
X1.9547Y-4.2323
X1.9547Y-4.3307
X1.9547Y-4.4291
X1.9547Y-4.5276
X1.9547Y-5.1181
X1.9547Y-5.2165
X1.9547Y-5.315
X1.9547Y-5.4134
X1.9547Y-5.5118
X1.9547Y-5.6102
X1.9547Y-5.7087
X2.1171Y-2.2726
X2.2087Y-5.0866
X2.2146Y-3.4508
X2.2421Y-2.0669
X2.252Y-3.4488
X2.3504Y-2.2992
X2.3504Y-2.5148
X2.3504Y-2.7598
X2.4154Y-3.94
X2.4213Y-4.5197
X2.4636Y-2.0669
X2.4685Y-1.8691
X2.4734Y-3.7598
X2.4852Y-3.4793
X2.4852Y-3.5591
X2.4921Y-4.8573
X2.5217Y-4.7756
X2.5699Y-3.94
X2.5709Y-3.2165
X2.6014Y-4.5856
X2.7717Y-4.0453
X2.8012Y-1.877
X2.8701Y-5.064
X3.1142Y-3.9222
T3
X2.7456Y-4.7047
X2.7456Y-4.7549
X2.7456Y-4.8051
X2.7958Y-4.7047
X2.7958Y-4.7549
X2.7958Y-4.8051
X2.846Y-4.7047
X2.846Y-4.7549
X2.846Y-4.8051
T4
X2.2815Y-3.3976
X2.4035Y-3.3986
X2.5591Y-5.0659
X2.628Y-3.94
X2.7258Y-4.497
X2.7534Y-4.5291
X2.7758Y-4.5615
X2.8807Y-3.94
X2.9311Y-4.5512
T5
X2.7982Y-2.0335
X2.7982Y-2.0669
X2.7982Y-2.1004
X2.7982Y-2.1339
X2.7982Y-2.1673
X2.7982Y-2.2008
X2.7982Y-2.2343
X2.7982Y-2.2677
X2.8514Y-2.0335
X2.8514Y-2.0669
X2.8514Y-2.1004
X2.8514Y-2.1339
X2.8514Y-2.1673
X2.8514Y-2.2008
X2.8514Y-2.2343
X2.8514Y-2.2677
T7
X1.2992Y-2.4173
X1.2992Y-2.5571
X1.2992Y-4.7707
X1.2992Y-4.9104
X2.0675Y-1.1142
X2.0965Y-2.5148
X2.1073Y-4.7972
X2.1933Y-1.1142
X2.3191Y-1.1142
X2.4449Y-1.1142
X2.5707Y-1.1142
X2.6965Y-1.1142
X3.0354Y-3.0699
X3.0354Y-3.2096
X3.0354Y-3.3494
T8
X2.5384Y-1.5315
X2.5384Y-1.6575
X2.6368Y-1.5315
X2.6368Y-1.6575
X2.7352Y-1.5315
X2.7352Y-1.6575
T9
X1.2992Y-1.5748
X1.2992Y-1.6732
X1.2992Y-1.7717
X1.2992Y-1.8701
X1.2992Y-1.9685
X1.2992Y-2.0669
X1.2992Y-2.1654
X1.2992Y-2.7559
X1.2992Y-2.8543
X1.2992Y-2.9528
X1.2992Y-3.0512
X1.2992Y-3.1496
X1.2992Y-3.248
X1.2992Y-3.3465
X1.2992Y-3.937
X1.2992Y-4.0354
X1.2992Y-4.1339
X1.2992Y-4.2323
X1.2992Y-4.3307
X1.2992Y-4.4291
X1.2992Y-4.5276
X1.2992Y-5.1181
X1.2992Y-5.2165
X1.2992Y-5.315
X1.2992Y-5.4134
X1.2992Y-5.5118
X1.2992Y-5.6102
X1.2992Y-5.7087
T10
X3.0344Y-4.2035
X3.0344Y-4.3035
X3.0344Y-4.4035
X3.0344Y-4.6321
X3.0344Y-4.7321
X3.0344Y-4.8321
X3.0344Y-4.9321
X3.0354Y-1.5575
X3.0354Y-1.6575
X3.0354Y-1.7575
T11
X2.8297Y-5.4961
X2.8297Y-5.7844
X3.0856Y-5.4961
X3.0856Y-5.7844
T12
X1.1811Y-1.1811
X1.1811Y-6.1024
X2.9528Y-1.1811
X2.9528Y-6.1024
T6
G00X2.8073Y-1.9803
M15
G01X2.8663Y-1.9803
M16
G05
G00X2.8073Y-2.3209
M15
G01X2.8663Y-2.3209
M16
G05
G00X2.9541Y-1.9803
M15
G01X2.9856Y-1.9803
M16
G05
G00X2.9541Y-2.3209
M15
G01X2.9856Y-2.3209
M16
G05
M30
