%TF.GenerationSoftware,KiCad,Pcbnew,8.0.1*%
%TF.CreationDate,2024-04-23T21:03:34-07:00*%
%TF.ProjectId,BatteryTelemetry,42617474-6572-4795-9465-6c656d657472,rev?*%
%TF.SameCoordinates,Original*%
%TF.FileFunction,Soldermask,Bot*%
%TF.FilePolarity,Negative*%
%FSLAX46Y46*%
G04 Gerber Fmt 4.6, Leading zero omitted, Abs format (unit mm)*
G04 Created by KiCad (PCBNEW 8.0.1) date 2024-04-23 21:03:34*
%MOMM*%
%LPD*%
G01*
G04 APERTURE LIST*
G04 Aperture macros list*
%AMRoundRect*
0 Rectangle with rounded corners*
0 $1 Rounding radius*
0 $2 $3 $4 $5 $6 $7 $8 $9 X,Y pos of 4 corners*
0 Add a 4 corners polygon primitive as box body*
4,1,4,$2,$3,$4,$5,$6,$7,$8,$9,$2,$3,0*
0 Add four circle primitives for the rounded corners*
1,1,$1+$1,$2,$3*
1,1,$1+$1,$4,$5*
1,1,$1+$1,$6,$7*
1,1,$1+$1,$8,$9*
0 Add four rect primitives between the rounded corners*
20,1,$1+$1,$2,$3,$4,$5,0*
20,1,$1+$1,$4,$5,$6,$7,0*
20,1,$1+$1,$6,$7,$8,$9,0*
20,1,$1+$1,$8,$9,$2,$3,0*%
G04 Aperture macros list end*
%ADD10C,5.600000*%
%ADD11C,1.500000*%
%ADD12RoundRect,0.250000X-0.725000X0.600000X-0.725000X-0.600000X0.725000X-0.600000X0.725000X0.600000X0*%
%ADD13O,1.950000X1.700000*%
%ADD14R,2.250000X2.250000*%
%ADD15C,2.250000*%
%ADD16R,1.700000X1.700000*%
%ADD17O,1.700000X1.700000*%
%ADD18R,1.600000X1.600000*%
%ADD19C,1.600000*%
%ADD20C,0.700000*%
%ADD21O,2.400000X0.900000*%
%ADD22O,1.700000X0.900000*%
%ADD23C,0.711200*%
%ADD24C,0.800000*%
G04 APERTURE END LIST*
D10*
%TO.C,H4*%
X75000000Y-155000000D03*
%TD*%
D11*
%TO.C,TP6*%
X68490000Y-28300000D03*
%TD*%
%TO.C,TP3*%
X58905000Y-28300000D03*
%TD*%
%TO.C,TP4*%
X62100000Y-28300000D03*
%TD*%
%TO.C,TP1*%
X52515000Y-28300000D03*
%TD*%
D12*
%TO.C,J4*%
X33000000Y-130000000D03*
D13*
X33000000Y-132500000D03*
X33000000Y-135000000D03*
X33000000Y-137500000D03*
X33000000Y-140000000D03*
X33000000Y-142500000D03*
X33000000Y-145000000D03*
%TD*%
D10*
%TO.C,H3*%
X30000000Y-155000000D03*
%TD*%
D11*
%TO.C,TP13*%
X77100000Y-77975000D03*
%TD*%
%TO.C,TP9*%
X33000000Y-121175000D03*
%TD*%
D14*
%TO.C,SW2*%
X71875000Y-139600000D03*
D15*
X78375000Y-139600000D03*
%TD*%
D10*
%TO.C,H2*%
X75000000Y-30000000D03*
%TD*%
D16*
%TO.C,J6*%
X77075000Y-125275000D03*
D17*
X77075000Y-122735000D03*
X77075000Y-120195000D03*
X77075000Y-117655000D03*
%TD*%
D10*
%TO.C,H1*%
X30000000Y-30000000D03*
%TD*%
D18*
%TO.C,SW3*%
X64475000Y-38900000D03*
D19*
X66975000Y-38900000D03*
X69475000Y-38900000D03*
X64475000Y-42100000D03*
X66975000Y-42100000D03*
X69475000Y-42100000D03*
%TD*%
D11*
%TO.C,TP15*%
X77100000Y-85075000D03*
%TD*%
%TO.C,TP8*%
X33000000Y-64950000D03*
%TD*%
%TO.C,TP2*%
X55710000Y-28300000D03*
%TD*%
%TO.C,TP12*%
X53525000Y-121850000D03*
%TD*%
D20*
%TO.C,J5*%
X71075000Y-57600000D03*
X71075000Y-56750000D03*
X71075000Y-55900000D03*
X71075000Y-55050000D03*
X71075000Y-54200000D03*
X71075000Y-53350000D03*
X71075000Y-52500000D03*
X71075000Y-51650000D03*
X72425000Y-51650000D03*
X72425000Y-52500000D03*
X72425000Y-53350000D03*
X72425000Y-54200000D03*
X72425000Y-55050000D03*
X72425000Y-55900000D03*
X72425000Y-56750000D03*
X72425000Y-57600000D03*
D21*
X72055000Y-58950000D03*
D22*
X75435000Y-58950000D03*
D21*
X72055000Y-50300000D03*
D22*
X75435000Y-50300000D03*
%TD*%
D11*
%TO.C,TP10*%
X33000000Y-124725000D03*
%TD*%
%TO.C,TP7*%
X33000000Y-61400000D03*
%TD*%
D12*
%TO.C,J1*%
X33000000Y-40000000D03*
D13*
X33000000Y-42500000D03*
X33000000Y-45000000D03*
X33000000Y-47500000D03*
X33000000Y-50000000D03*
X33000000Y-52500000D03*
X33000000Y-55000000D03*
%TD*%
D16*
%TO.C,J8*%
X77100000Y-39560000D03*
D17*
X77100000Y-42100000D03*
X77100000Y-44640000D03*
%TD*%
D12*
%TO.C,J3*%
X33000000Y-100000000D03*
D13*
X33000000Y-102500000D03*
X33000000Y-105000000D03*
X33000000Y-107500000D03*
X33000000Y-110000000D03*
X33000000Y-112500000D03*
X33000000Y-115000000D03*
%TD*%
D12*
%TO.C,J2*%
X33000000Y-70000000D03*
D13*
X33000000Y-72500000D03*
X33000000Y-75000000D03*
X33000000Y-77500000D03*
X33000000Y-80000000D03*
X33000000Y-82500000D03*
X33000000Y-85000000D03*
%TD*%
D11*
%TO.C,TP5*%
X65295000Y-28300000D03*
%TD*%
%TO.C,TP14*%
X77100000Y-81525000D03*
%TD*%
D16*
%TO.C,J7*%
X77075000Y-111850000D03*
D17*
X77075000Y-109310000D03*
X77075000Y-106770000D03*
%TD*%
D11*
%TO.C,TP11*%
X53250000Y-63875000D03*
%TD*%
D14*
%TO.C,SW1*%
X71875000Y-146925000D03*
D15*
X78375000Y-146925000D03*
%TD*%
D23*
X49650000Y-42500000D03*
X59700000Y-70100000D03*
X49650000Y-137500000D03*
X65300000Y-81700000D03*
X56100000Y-129200000D03*
X49650000Y-110000000D03*
X49650000Y-132500000D03*
X49650000Y-40000000D03*
X49650000Y-140000000D03*
X70400000Y-102750000D03*
X49650000Y-102500000D03*
X62825000Y-95500000D03*
X49650000Y-105000000D03*
X49650000Y-130000000D03*
X56250000Y-87650000D03*
X49650000Y-107500000D03*
X49650000Y-45000000D03*
X49650000Y-47525000D03*
X49650000Y-115000000D03*
X49650000Y-72500000D03*
X79100000Y-99625000D03*
X49650000Y-55000000D03*
X49650000Y-85000000D03*
X49650000Y-77500000D03*
X49650000Y-135000000D03*
X49650000Y-82500000D03*
X49650000Y-80000000D03*
X49650000Y-50000000D03*
X49650000Y-100000000D03*
X49650000Y-32000000D03*
X49650000Y-145000000D03*
X63300000Y-123375000D03*
X49650000Y-70000000D03*
X72900000Y-128625000D03*
X62700000Y-47475000D03*
X49650000Y-75000000D03*
D20*
X72562500Y-115600000D03*
D23*
X49650000Y-142500000D03*
X49650000Y-112500000D03*
X49650000Y-52500000D03*
X71150000Y-47675000D03*
X62575000Y-52500000D03*
X66075000Y-116475000D03*
D20*
X60950000Y-52500000D03*
X65000000Y-126562394D03*
D24*
X73169975Y-100075000D03*
D20*
X58425000Y-52500000D03*
D23*
X64050000Y-121300000D03*
D24*
X65000000Y-128675000D03*
X66750000Y-100075000D03*
D23*
X59700000Y-63875000D03*
X59700000Y-58400000D03*
X56950000Y-52500000D03*
X53775000Y-57725000D03*
X61500000Y-114800000D03*
D24*
X70506323Y-115860929D03*
X69936467Y-115039181D03*
D23*
X63125000Y-90400000D03*
X63125000Y-88375000D03*
D24*
X69236467Y-114225000D03*
D20*
X77775000Y-101550000D03*
X69281250Y-126562394D03*
X74775000Y-101550000D03*
X68368154Y-126562394D03*
D24*
X57950000Y-86300000D03*
X74450000Y-115600668D03*
X61050000Y-86325000D03*
D23*
X61350000Y-100075000D03*
X65275000Y-100075000D03*
X57200000Y-87600000D03*
D20*
X69300000Y-99200000D03*
M02*
